M48
; DRILL file {KiCad (6.0.2-0)} date 2022 March 08, Tuesday 15:03:41
; FORMAT={3:3/ absolute / metric / suppress leading zeros}
; #@! TF.CreationDate,2022-03-08T15:03:41+01:00
; #@! TF.GenerationSoftware,Kicad,Pcbnew,(6.0.2-0)
; #@! TF.FileFunction,MixedPlating,1,2
FMAT,2
METRIC,TZ
; #@! TA.AperFunction,Plated,PTH,ViaDrill
T1C0.400
; #@! TA.AperFunction,Plated,PTH,ComponentDrill
T2C0.600
; #@! TA.AperFunction,Plated,PTH,ComponentDrill
T3C0.800
; #@! TA.AperFunction,Plated,PTH,ComponentDrill
T4C0.900
; #@! TA.AperFunction,Plated,PTH,ComponentDrill
T5C1.000
; #@! TA.AperFunction,Plated,PTH,ComponentDrill
T6C1.040
; #@! TA.AperFunction,Plated,PTH,ComponentDrill
T7C3.000
; #@! TA.AperFunction,Plated,PTH,ComponentDrill
T8C4.000
; #@! TA.AperFunction,NonPlated,NPTH,ComponentDrill
T9C1.100
%
G90
G05
T1
X129570Y-62130
X134120Y-54170
X149830Y-50690
X154740Y-52750
T2
X110880Y-70270
X112880Y-70270
X118280Y-46010
X119250Y-108950
X120280Y-46010
X121250Y-108950
X150220Y-109450
X150640Y-46390
X152220Y-109450
X152640Y-46390
X158320Y-69210
X160320Y-69210
T4
X110686Y-42279
X110837Y-113359
X114530Y-46338
X114780Y-75300
X114780Y-80300
X115020Y-109650
X116240Y-41640
X116314Y-114480
X119780Y-77800
X151110Y-77960
X154703Y-114541
X154956Y-41280
X155997Y-109711
X156110Y-75460
X156110Y-80460
X156250Y-46110
X160180Y-113420
X160433Y-42401
T6
X122770Y-58200
X122770Y-60740
X122770Y-63280
X122770Y-65820
X122770Y-68360
X122770Y-70900
X122770Y-73440
X122770Y-75980
X122770Y-78520
X122770Y-81060
X122770Y-83600
X122770Y-86140
X122770Y-88680
X122770Y-91220
X122770Y-93760
X122770Y-96300
X122770Y-98840
X122770Y-101380
X122770Y-103920
X148170Y-58200
X148170Y-60740
X148170Y-63280
X148170Y-65820
X148170Y-68360
X148170Y-70900
X148170Y-73440
X148170Y-75980
X148170Y-78520
X148170Y-81060
X148170Y-83600
X148170Y-86140
X148170Y-88680
X148170Y-91220
X148170Y-93760
X148170Y-96300
X148170Y-98840
X148170Y-101380
X148170Y-103920
T7
X106620Y-69740
X112030Y-106470
X112110Y-49480
X130660Y-107980
X130670Y-47950
X140110Y-47950
X140140Y-107980
X158670Y-49470
X158790Y-106500
X164140Y-69740
T8
X101241Y-69269
X107177Y-108837
X107257Y-47113
X130189Y-113359
X130199Y-42571
X140581Y-42571
X140611Y-113359
X163523Y-47103
X163643Y-108867
X169519Y-69269
T9
X106680Y-75390
X106680Y-80390
X109275Y-59204
X109312Y-96743
X110570Y-54375
X110606Y-101573
X160340Y-101655
X160384Y-54347
X161635Y-96826
X161678Y-59177
X164300Y-75420
X164300Y-80420
T3
G00X110430Y-75590
M15
G01X110930Y-75590
M16
G05
G00X110430Y-80190
M15
G01X110930Y-80190
M16
G05
G00X112949Y-59982
M15
G01X113432Y-60111
M16
G05
G00X112986Y-95966
M15
G01X113469Y-95836
M16
G05
G00X114140Y-55539
M15
G01X114623Y-55668
M16
G05
G00X114176Y-100409
M15
G01X114659Y-100279
M16
G05
G00X156770Y-100491
M15
G01X156287Y-100362
M16
G05
G00X156814Y-55511
M15
G01X156331Y-55641
M16
G05
G00X157961Y-96048
M15
G01X157478Y-95919
M16
G05
G00X158004Y-59954
M15
G01X157521Y-60084
M16
G05
G00X160550Y-75620
M15
G01X160050Y-75620
M16
G05
G00X160550Y-80220
M15
G01X160050Y-80220
M16
G05
T5
G00X103030Y-75140
M15
G01X103330Y-75140
M16
G05
G00X103030Y-80640
M15
G01X103330Y-80640
M16
G05
G00X105685Y-58501
M15
G01X105975Y-58579
M16
G05
G00X105722Y-97446
M15
G01X106011Y-97369
M16
G05
G00X107109Y-53189
M15
G01X107398Y-53266
M16
G05
G00X107145Y-102759
M15
G01X107435Y-102681
M16
G05
G00X163801Y-102841
M15
G01X163512Y-102764
M16
G05
G00X163845Y-53161
M15
G01X163555Y-53239
M16
G05
G00X165225Y-97529
M15
G01X164935Y-97451
M16
G05
G00X165268Y-58474
M15
G01X164979Y-58551
M16
G05
G00X167950Y-75170
M15
G01X167650Y-75170
M16
G05
G00X167950Y-80670
M15
G01X167650Y-80670
M16
G05
T0
M30
