%TF.GenerationSoftware,KiCad,Pcbnew,(6.0.2-0)*%
%TF.CreationDate,2022-03-08T15:03:46+01:00*%
%TF.ProjectId,ESP_aux_breakout,4553505f-6175-4785-9f62-7265616b6f75,rev?*%
%TF.SameCoordinates,Original*%
%TF.FileFunction,Legend,Top*%
%TF.FilePolarity,Positive*%
%FSLAX46Y46*%
G04 Gerber Fmt 4.6, Leading zero omitted, Abs format (unit mm)*
G04 Created by KiCad (PCBNEW (6.0.2-0)) date 2022-03-08 15:03:46*
%MOMM*%
%LPD*%
G01*
G04 APERTURE LIST*
%ADD10C,0.300000*%
%ADD11C,0.200000*%
%ADD12C,0.150000*%
%ADD13C,0.120000*%
%ADD14C,0.127000*%
G04 APERTURE END LIST*
D10*
X135690000Y-111552857D02*
X135618571Y-111695714D01*
X135618571Y-111910000D01*
X135690000Y-112124285D01*
X135832857Y-112267142D01*
X135975714Y-112338571D01*
X136261428Y-112410000D01*
X136475714Y-112410000D01*
X136761428Y-112338571D01*
X136904285Y-112267142D01*
X137047142Y-112124285D01*
X137118571Y-111910000D01*
X137118571Y-111767142D01*
X137047142Y-111552857D01*
X136975714Y-111481428D01*
X136475714Y-111481428D01*
X136475714Y-111767142D01*
X137118571Y-110838571D02*
X135618571Y-110838571D01*
X137118571Y-109981428D01*
X135618571Y-109981428D01*
X137118571Y-109267142D02*
X135618571Y-109267142D01*
X135618571Y-108910000D01*
X135690000Y-108695714D01*
X135832857Y-108552857D01*
X135975714Y-108481428D01*
X136261428Y-108410000D01*
X136475714Y-108410000D01*
X136761428Y-108481428D01*
X136904285Y-108552857D01*
X137047142Y-108695714D01*
X137118571Y-108910000D01*
X137118571Y-109267142D01*
X126108571Y-109555714D02*
X126108571Y-110270000D01*
X126822857Y-110341428D01*
X126751428Y-110270000D01*
X126680000Y-110127142D01*
X126680000Y-109770000D01*
X126751428Y-109627142D01*
X126822857Y-109555714D01*
X126965714Y-109484285D01*
X127322857Y-109484285D01*
X127465714Y-109555714D01*
X127537142Y-109627142D01*
X127608571Y-109770000D01*
X127608571Y-110127142D01*
X127537142Y-110270000D01*
X127465714Y-110341428D01*
X126108571Y-109055714D02*
X127608571Y-108555714D01*
X126108571Y-108055714D01*
X133488571Y-47384285D02*
X133488571Y-46455714D01*
X134060000Y-46955714D01*
X134060000Y-46741428D01*
X134131428Y-46598571D01*
X134202857Y-46527142D01*
X134345714Y-46455714D01*
X134702857Y-46455714D01*
X134845714Y-46527142D01*
X134917142Y-46598571D01*
X134988571Y-46741428D01*
X134988571Y-47170000D01*
X134917142Y-47312857D01*
X134845714Y-47384285D01*
X134845714Y-45812857D02*
X134917142Y-45741428D01*
X134988571Y-45812857D01*
X134917142Y-45884285D01*
X134845714Y-45812857D01*
X134988571Y-45812857D01*
X133488571Y-45241428D02*
X133488571Y-44312857D01*
X134060000Y-44812857D01*
X134060000Y-44598571D01*
X134131428Y-44455714D01*
X134202857Y-44384285D01*
X134345714Y-44312857D01*
X134702857Y-44312857D01*
X134845714Y-44384285D01*
X134917142Y-44455714D01*
X134988571Y-44598571D01*
X134988571Y-45027142D01*
X134917142Y-45170000D01*
X134845714Y-45241428D01*
X133488571Y-43884285D02*
X134988571Y-43384285D01*
X133488571Y-42884285D01*
X143230000Y-47452857D02*
X143158571Y-47595714D01*
X143158571Y-47810000D01*
X143230000Y-48024285D01*
X143372857Y-48167142D01*
X143515714Y-48238571D01*
X143801428Y-48310000D01*
X144015714Y-48310000D01*
X144301428Y-48238571D01*
X144444285Y-48167142D01*
X144587142Y-48024285D01*
X144658571Y-47810000D01*
X144658571Y-47667142D01*
X144587142Y-47452857D01*
X144515714Y-47381428D01*
X144015714Y-47381428D01*
X144015714Y-47667142D01*
X144658571Y-46738571D02*
X143158571Y-46738571D01*
X144658571Y-45881428D01*
X143158571Y-45881428D01*
X144658571Y-45167142D02*
X143158571Y-45167142D01*
X143158571Y-44810000D01*
X143230000Y-44595714D01*
X143372857Y-44452857D01*
X143515714Y-44381428D01*
X143801428Y-44310000D01*
X144015714Y-44310000D01*
X144301428Y-44381428D01*
X144444285Y-44452857D01*
X144587142Y-44595714D01*
X144658571Y-44810000D01*
X144658571Y-45167142D01*
X132523571Y-104867857D02*
X132952142Y-103725000D01*
X133380714Y-104867857D01*
X132523571Y-103010714D02*
X132952142Y-101867857D01*
X133380714Y-103010714D01*
X132523571Y-101153571D02*
X132952142Y-100010714D01*
X133380714Y-101153571D01*
X132523571Y-98653571D02*
X133523571Y-98653571D01*
X132523571Y-99296428D02*
X133309285Y-99296428D01*
X133452142Y-99225000D01*
X133523571Y-99082142D01*
X133523571Y-98867857D01*
X133452142Y-98725000D01*
X133380714Y-98653571D01*
X133452142Y-98010714D02*
X133523571Y-97867857D01*
X133523571Y-97582142D01*
X133452142Y-97439285D01*
X133309285Y-97367857D01*
X133237857Y-97367857D01*
X133095000Y-97439285D01*
X133023571Y-97582142D01*
X133023571Y-97796428D01*
X132952142Y-97939285D01*
X132809285Y-98010714D01*
X132737857Y-98010714D01*
X132595000Y-97939285D01*
X132523571Y-97796428D01*
X132523571Y-97582142D01*
X132595000Y-97439285D01*
X133523571Y-96725000D02*
X132023571Y-96725000D01*
X132595000Y-96725000D02*
X132523571Y-96582142D01*
X132523571Y-96296428D01*
X132595000Y-96153571D01*
X132666428Y-96082142D01*
X132809285Y-96010714D01*
X133237857Y-96010714D01*
X133380714Y-96082142D01*
X133452142Y-96153571D01*
X133523571Y-96296428D01*
X133523571Y-96582142D01*
X133452142Y-96725000D01*
X134938571Y-104867857D02*
X135367142Y-103725000D01*
X135795714Y-104867857D01*
X134938571Y-103010714D02*
X135367142Y-101867857D01*
X135795714Y-103010714D01*
X134938571Y-101153571D02*
X135367142Y-100010714D01*
X135795714Y-101153571D01*
X134938571Y-98653571D02*
X135938571Y-98653571D01*
X134938571Y-99296428D02*
X135724285Y-99296428D01*
X135867142Y-99225000D01*
X135938571Y-99082142D01*
X135938571Y-98867857D01*
X135867142Y-98725000D01*
X135795714Y-98653571D01*
X135867142Y-98010714D02*
X135938571Y-97867857D01*
X135938571Y-97582142D01*
X135867142Y-97439285D01*
X135724285Y-97367857D01*
X135652857Y-97367857D01*
X135510000Y-97439285D01*
X135438571Y-97582142D01*
X135438571Y-97796428D01*
X135367142Y-97939285D01*
X135224285Y-98010714D01*
X135152857Y-98010714D01*
X135010000Y-97939285D01*
X134938571Y-97796428D01*
X134938571Y-97582142D01*
X135010000Y-97439285D01*
X135938571Y-96725000D02*
X134438571Y-96725000D01*
X135010000Y-96725000D02*
X134938571Y-96582142D01*
X134938571Y-96296428D01*
X135010000Y-96153571D01*
X135081428Y-96082142D01*
X135224285Y-96010714D01*
X135652857Y-96010714D01*
X135795714Y-96082142D01*
X135867142Y-96153571D01*
X135938571Y-96296428D01*
X135938571Y-96582142D01*
X135867142Y-96725000D01*
X137353571Y-104867857D02*
X137782142Y-103725000D01*
X138210714Y-104867857D01*
X137353571Y-103010714D02*
X137782142Y-101867857D01*
X138210714Y-103010714D01*
X137353571Y-101153571D02*
X137782142Y-100010714D01*
X138210714Y-101153571D01*
X137353571Y-98653571D02*
X138353571Y-98653571D01*
X137353571Y-99296428D02*
X138139285Y-99296428D01*
X138282142Y-99225000D01*
X138353571Y-99082142D01*
X138353571Y-98867857D01*
X138282142Y-98725000D01*
X138210714Y-98653571D01*
X138282142Y-98010714D02*
X138353571Y-97867857D01*
X138353571Y-97582142D01*
X138282142Y-97439285D01*
X138139285Y-97367857D01*
X138067857Y-97367857D01*
X137925000Y-97439285D01*
X137853571Y-97582142D01*
X137853571Y-97796428D01*
X137782142Y-97939285D01*
X137639285Y-98010714D01*
X137567857Y-98010714D01*
X137425000Y-97939285D01*
X137353571Y-97796428D01*
X137353571Y-97582142D01*
X137425000Y-97439285D01*
X138353571Y-96725000D02*
X136853571Y-96725000D01*
X137425000Y-96725000D02*
X137353571Y-96582142D01*
X137353571Y-96296428D01*
X137425000Y-96153571D01*
X137496428Y-96082142D01*
X137639285Y-96010714D01*
X138067857Y-96010714D01*
X138210714Y-96082142D01*
X138282142Y-96153571D01*
X138353571Y-96296428D01*
X138353571Y-96582142D01*
X138282142Y-96725000D01*
X138673571Y-76202142D02*
X139102142Y-77345000D01*
X139530714Y-76202142D01*
X139602142Y-73773571D02*
X139673571Y-73916428D01*
X139673571Y-74202142D01*
X139602142Y-74345000D01*
X139459285Y-74416428D01*
X138887857Y-74416428D01*
X138745000Y-74345000D01*
X138673571Y-74202142D01*
X138673571Y-73916428D01*
X138745000Y-73773571D01*
X138887857Y-73702142D01*
X139030714Y-73702142D01*
X139173571Y-74416428D01*
X139602142Y-73130714D02*
X139673571Y-72987857D01*
X139673571Y-72702142D01*
X139602142Y-72559285D01*
X139459285Y-72487857D01*
X139387857Y-72487857D01*
X139245000Y-72559285D01*
X139173571Y-72702142D01*
X139173571Y-72916428D01*
X139102142Y-73059285D01*
X138959285Y-73130714D01*
X138887857Y-73130714D01*
X138745000Y-73059285D01*
X138673571Y-72916428D01*
X138673571Y-72702142D01*
X138745000Y-72559285D01*
X138673571Y-71845000D02*
X140173571Y-71845000D01*
X138745000Y-71845000D02*
X138673571Y-71702142D01*
X138673571Y-71416428D01*
X138745000Y-71273571D01*
X138816428Y-71202142D01*
X138959285Y-71130714D01*
X139387857Y-71130714D01*
X139530714Y-71202142D01*
X139602142Y-71273571D01*
X139673571Y-71416428D01*
X139673571Y-71702142D01*
X139602142Y-71845000D01*
X139245000Y-70559285D02*
X139245000Y-69845000D01*
X139673571Y-70702142D02*
X138173571Y-70202142D01*
X139673571Y-69702142D01*
X138173571Y-69202142D02*
X139387857Y-69202142D01*
X139530714Y-69130714D01*
X139602142Y-69059285D01*
X139673571Y-68916428D01*
X139673571Y-68630714D01*
X139602142Y-68487857D01*
X139530714Y-68416428D01*
X139387857Y-68345000D01*
X138173571Y-68345000D01*
X138173571Y-67773571D02*
X139673571Y-66773571D01*
X138173571Y-66773571D02*
X139673571Y-67773571D01*
X139673571Y-66202142D02*
X138173571Y-66202142D01*
X138745000Y-66202142D02*
X138673571Y-66059285D01*
X138673571Y-65773571D01*
X138745000Y-65630714D01*
X138816428Y-65559285D01*
X138959285Y-65487857D01*
X139387857Y-65487857D01*
X139530714Y-65559285D01*
X139602142Y-65630714D01*
X139673571Y-65773571D01*
X139673571Y-66059285D01*
X139602142Y-66202142D01*
X139673571Y-64845000D02*
X138673571Y-64845000D01*
X138959285Y-64845000D02*
X138816428Y-64773571D01*
X138745000Y-64702142D01*
X138673571Y-64559285D01*
X138673571Y-64416428D01*
X139602142Y-63345000D02*
X139673571Y-63487857D01*
X139673571Y-63773571D01*
X139602142Y-63916428D01*
X139459285Y-63987857D01*
X138887857Y-63987857D01*
X138745000Y-63916428D01*
X138673571Y-63773571D01*
X138673571Y-63487857D01*
X138745000Y-63345000D01*
X138887857Y-63273571D01*
X139030714Y-63273571D01*
X139173571Y-63987857D01*
X139673571Y-61987857D02*
X138887857Y-61987857D01*
X138745000Y-62059285D01*
X138673571Y-62202142D01*
X138673571Y-62487857D01*
X138745000Y-62630714D01*
X139602142Y-61987857D02*
X139673571Y-62130714D01*
X139673571Y-62487857D01*
X139602142Y-62630714D01*
X139459285Y-62702142D01*
X139316428Y-62702142D01*
X139173571Y-62630714D01*
X139102142Y-62487857D01*
X139102142Y-62130714D01*
X139030714Y-61987857D01*
X139673571Y-61273571D02*
X138173571Y-61273571D01*
X139102142Y-61130714D02*
X139673571Y-60702142D01*
X138673571Y-60702142D02*
X139245000Y-61273571D01*
X139673571Y-59845000D02*
X139602142Y-59987857D01*
X139530714Y-60059285D01*
X139387857Y-60130714D01*
X138959285Y-60130714D01*
X138816428Y-60059285D01*
X138745000Y-59987857D01*
X138673571Y-59845000D01*
X138673571Y-59630714D01*
X138745000Y-59487857D01*
X138816428Y-59416428D01*
X138959285Y-59345000D01*
X139387857Y-59345000D01*
X139530714Y-59416428D01*
X139602142Y-59487857D01*
X139673571Y-59630714D01*
X139673571Y-59845000D01*
X138673571Y-58059285D02*
X139673571Y-58059285D01*
X138673571Y-58702142D02*
X139459285Y-58702142D01*
X139602142Y-58630714D01*
X139673571Y-58487857D01*
X139673571Y-58273571D01*
X139602142Y-58130714D01*
X139530714Y-58059285D01*
X138673571Y-57559285D02*
X138673571Y-56987857D01*
X138173571Y-57345000D02*
X139459285Y-57345000D01*
X139602142Y-57273571D01*
X139673571Y-57130714D01*
X139673571Y-56987857D01*
X138673571Y-55345000D02*
X139102142Y-54202142D01*
X139530714Y-55345000D01*
X142017142Y-88273571D02*
X142088571Y-88416428D01*
X142088571Y-88702142D01*
X142017142Y-88845000D01*
X141945714Y-88916428D01*
X141802857Y-88987857D01*
X141374285Y-88987857D01*
X141231428Y-88916428D01*
X141160000Y-88845000D01*
X141088571Y-88702142D01*
X141088571Y-88416428D01*
X141160000Y-88273571D01*
X142088571Y-87416428D02*
X142017142Y-87559285D01*
X141945714Y-87630714D01*
X141802857Y-87702142D01*
X141374285Y-87702142D01*
X141231428Y-87630714D01*
X141160000Y-87559285D01*
X141088571Y-87416428D01*
X141088571Y-87202142D01*
X141160000Y-87059285D01*
X141231428Y-86987857D01*
X141374285Y-86916428D01*
X141802857Y-86916428D01*
X141945714Y-86987857D01*
X142017142Y-87059285D01*
X142088571Y-87202142D01*
X142088571Y-87416428D01*
X142088571Y-86273571D02*
X141088571Y-86273571D01*
X141231428Y-86273571D02*
X141160000Y-86202142D01*
X141088571Y-86059285D01*
X141088571Y-85845000D01*
X141160000Y-85702142D01*
X141302857Y-85630714D01*
X142088571Y-85630714D01*
X141302857Y-85630714D02*
X141160000Y-85559285D01*
X141088571Y-85416428D01*
X141088571Y-85202142D01*
X141160000Y-85059285D01*
X141302857Y-84987857D01*
X142088571Y-84987857D01*
X142088571Y-84273571D02*
X141088571Y-84273571D01*
X141231428Y-84273571D02*
X141160000Y-84202142D01*
X141088571Y-84059285D01*
X141088571Y-83845000D01*
X141160000Y-83702142D01*
X141302857Y-83630714D01*
X142088571Y-83630714D01*
X141302857Y-83630714D02*
X141160000Y-83559285D01*
X141088571Y-83416428D01*
X141088571Y-83202142D01*
X141160000Y-83059285D01*
X141302857Y-82987857D01*
X142088571Y-82987857D01*
X141088571Y-81630714D02*
X142088571Y-81630714D01*
X141088571Y-82273571D02*
X141874285Y-82273571D01*
X142017142Y-82202142D01*
X142088571Y-82059285D01*
X142088571Y-81845000D01*
X142017142Y-81702142D01*
X141945714Y-81630714D01*
X141088571Y-80916428D02*
X142088571Y-80916428D01*
X141231428Y-80916428D02*
X141160000Y-80845000D01*
X141088571Y-80702142D01*
X141088571Y-80487857D01*
X141160000Y-80345000D01*
X141302857Y-80273571D01*
X142088571Y-80273571D01*
X142088571Y-79559285D02*
X141088571Y-79559285D01*
X140588571Y-79559285D02*
X140660000Y-79630714D01*
X140731428Y-79559285D01*
X140660000Y-79487857D01*
X140588571Y-79559285D01*
X140731428Y-79559285D01*
X142017142Y-78202142D02*
X142088571Y-78345000D01*
X142088571Y-78630714D01*
X142017142Y-78773571D01*
X141945714Y-78845000D01*
X141802857Y-78916428D01*
X141374285Y-78916428D01*
X141231428Y-78845000D01*
X141160000Y-78773571D01*
X141088571Y-78630714D01*
X141088571Y-78345000D01*
X141160000Y-78202142D01*
X142088571Y-76916428D02*
X141302857Y-76916428D01*
X141160000Y-76987857D01*
X141088571Y-77130714D01*
X141088571Y-77416428D01*
X141160000Y-77559285D01*
X142017142Y-76916428D02*
X142088571Y-77059285D01*
X142088571Y-77416428D01*
X142017142Y-77559285D01*
X141874285Y-77630714D01*
X141731428Y-77630714D01*
X141588571Y-77559285D01*
X141517142Y-77416428D01*
X141517142Y-77059285D01*
X141445714Y-76916428D01*
X141088571Y-76416428D02*
X141088571Y-75845000D01*
X140588571Y-76202142D02*
X141874285Y-76202142D01*
X142017142Y-76130714D01*
X142088571Y-75987857D01*
X142088571Y-75845000D01*
X142088571Y-75345000D02*
X141088571Y-75345000D01*
X140588571Y-75345000D02*
X140660000Y-75416428D01*
X140731428Y-75345000D01*
X140660000Y-75273571D01*
X140588571Y-75345000D01*
X140731428Y-75345000D01*
X141088571Y-74630714D02*
X142088571Y-74630714D01*
X141231428Y-74630714D02*
X141160000Y-74559285D01*
X141088571Y-74416428D01*
X141088571Y-74202142D01*
X141160000Y-74059285D01*
X141302857Y-73987857D01*
X142088571Y-73987857D01*
X141088571Y-72630714D02*
X142302857Y-72630714D01*
X142445714Y-72702142D01*
X142517142Y-72773571D01*
X142588571Y-72916428D01*
X142588571Y-73130714D01*
X142517142Y-73273571D01*
X142017142Y-72630714D02*
X142088571Y-72773571D01*
X142088571Y-73059285D01*
X142017142Y-73202142D01*
X141945714Y-73273571D01*
X141802857Y-73345000D01*
X141374285Y-73345000D01*
X141231428Y-73273571D01*
X141160000Y-73202142D01*
X141088571Y-73059285D01*
X141088571Y-72773571D01*
X141160000Y-72630714D01*
X141302857Y-71416428D02*
X141374285Y-71202142D01*
X141445714Y-71130714D01*
X141588571Y-71059285D01*
X141802857Y-71059285D01*
X141945714Y-71130714D01*
X142017142Y-71202142D01*
X142088571Y-71345000D01*
X142088571Y-71916428D01*
X140588571Y-71916428D01*
X140588571Y-71416428D01*
X140660000Y-71273571D01*
X140731428Y-71202142D01*
X140874285Y-71130714D01*
X141017142Y-71130714D01*
X141160000Y-71202142D01*
X141231428Y-71273571D01*
X141302857Y-71416428D01*
X141302857Y-71916428D01*
X140588571Y-70130714D02*
X140588571Y-69845000D01*
X140660000Y-69702142D01*
X140802857Y-69559285D01*
X141088571Y-69487857D01*
X141588571Y-69487857D01*
X141874285Y-69559285D01*
X142017142Y-69702142D01*
X142088571Y-69845000D01*
X142088571Y-70130714D01*
X142017142Y-70273571D01*
X141874285Y-70416428D01*
X141588571Y-70487857D01*
X141088571Y-70487857D01*
X140802857Y-70416428D01*
X140660000Y-70273571D01*
X140588571Y-70130714D01*
X142088571Y-68845000D02*
X140588571Y-68845000D01*
X140588571Y-68487857D01*
X140660000Y-68273571D01*
X140802857Y-68130714D01*
X140945714Y-68059285D01*
X141231428Y-67987857D01*
X141445714Y-67987857D01*
X141731428Y-68059285D01*
X141874285Y-68130714D01*
X142017142Y-68273571D01*
X142088571Y-68487857D01*
X142088571Y-68845000D01*
X142088571Y-67345000D02*
X140588571Y-67345000D01*
X141302857Y-66630714D02*
X141302857Y-66130714D01*
X142088571Y-65916428D02*
X142088571Y-66630714D01*
X140588571Y-66630714D01*
X140588571Y-65916428D01*
X142017142Y-65345000D02*
X142088571Y-65130714D01*
X142088571Y-64773571D01*
X142017142Y-64630714D01*
X141945714Y-64559285D01*
X141802857Y-64487857D01*
X141660000Y-64487857D01*
X141517142Y-64559285D01*
X141445714Y-64630714D01*
X141374285Y-64773571D01*
X141302857Y-65059285D01*
X141231428Y-65202142D01*
X141160000Y-65273571D01*
X141017142Y-65345000D01*
X140874285Y-65345000D01*
X140731428Y-65273571D01*
X140660000Y-65202142D01*
X140588571Y-65059285D01*
X140588571Y-64702142D01*
X140660000Y-64487857D01*
X141088571Y-63987857D02*
X142088571Y-63702142D01*
X141374285Y-63416428D01*
X142088571Y-63130714D01*
X141088571Y-62845000D01*
X142088571Y-62059285D02*
X142017142Y-62202142D01*
X141945714Y-62273571D01*
X141802857Y-62345000D01*
X141374285Y-62345000D01*
X141231428Y-62273571D01*
X141160000Y-62202142D01*
X141088571Y-62059285D01*
X141088571Y-61845000D01*
X141160000Y-61702142D01*
X141231428Y-61630714D01*
X141374285Y-61559285D01*
X141802857Y-61559285D01*
X141945714Y-61630714D01*
X142017142Y-61702142D01*
X142088571Y-61845000D01*
X142088571Y-62059285D01*
X142088571Y-60916428D02*
X141088571Y-60916428D01*
X141374285Y-60916428D02*
X141231428Y-60845000D01*
X141160000Y-60773571D01*
X141088571Y-60630714D01*
X141088571Y-60487857D01*
X142088571Y-59987857D02*
X140588571Y-59987857D01*
X141517142Y-59845000D02*
X142088571Y-59416428D01*
X141088571Y-59416428D02*
X141660000Y-59987857D01*
X142017142Y-58845000D02*
X142088571Y-58702142D01*
X142088571Y-58416428D01*
X142017142Y-58273571D01*
X141874285Y-58202142D01*
X141802857Y-58202142D01*
X141660000Y-58273571D01*
X141588571Y-58416428D01*
X141588571Y-58630714D01*
X141517142Y-58773571D01*
X141374285Y-58845000D01*
X141302857Y-58845000D01*
X141160000Y-58773571D01*
X141088571Y-58630714D01*
X141088571Y-58416428D01*
X141160000Y-58273571D01*
X142088571Y-57559285D02*
X140588571Y-57559285D01*
X142088571Y-56916428D02*
X141302857Y-56916428D01*
X141160000Y-56987857D01*
X141088571Y-57130714D01*
X141088571Y-57345000D01*
X141160000Y-57487857D01*
X141231428Y-57559285D01*
X142088571Y-55987857D02*
X142017142Y-56130714D01*
X141945714Y-56202142D01*
X141802857Y-56273571D01*
X141374285Y-56273571D01*
X141231428Y-56202142D01*
X141160000Y-56130714D01*
X141088571Y-55987857D01*
X141088571Y-55773571D01*
X141160000Y-55630714D01*
X141231428Y-55559285D01*
X141374285Y-55487857D01*
X141802857Y-55487857D01*
X141945714Y-55559285D01*
X142017142Y-55630714D01*
X142088571Y-55773571D01*
X142088571Y-55987857D01*
X141088571Y-54845000D02*
X142588571Y-54845000D01*
X141160000Y-54845000D02*
X141088571Y-54702142D01*
X141088571Y-54416428D01*
X141160000Y-54273571D01*
X141231428Y-54202142D01*
X141374285Y-54130714D01*
X141802857Y-54130714D01*
X141945714Y-54202142D01*
X142017142Y-54273571D01*
X142088571Y-54416428D01*
X142088571Y-54702142D01*
X142017142Y-54845000D01*
X144503571Y-89202142D02*
X144432142Y-89345000D01*
X144360714Y-89416428D01*
X144217857Y-89487857D01*
X143789285Y-89487857D01*
X143646428Y-89416428D01*
X143575000Y-89345000D01*
X143503571Y-89202142D01*
X143503571Y-88987857D01*
X143575000Y-88845000D01*
X143646428Y-88773571D01*
X143789285Y-88702142D01*
X144217857Y-88702142D01*
X144360714Y-88773571D01*
X144432142Y-88845000D01*
X144503571Y-88987857D01*
X144503571Y-89202142D01*
X144432142Y-87416428D02*
X144503571Y-87559285D01*
X144503571Y-87845000D01*
X144432142Y-87987857D01*
X144360714Y-88059285D01*
X144217857Y-88130714D01*
X143789285Y-88130714D01*
X143646428Y-88059285D01*
X143575000Y-87987857D01*
X143503571Y-87845000D01*
X143503571Y-87559285D01*
X143575000Y-87416428D01*
X143503571Y-86987857D02*
X143503571Y-86416428D01*
X143003571Y-86773571D02*
X144289285Y-86773571D01*
X144432142Y-86702142D01*
X144503571Y-86559285D01*
X144503571Y-86416428D01*
X143146428Y-85987857D02*
X143075000Y-85916428D01*
X143003571Y-85773571D01*
X143003571Y-85416428D01*
X143075000Y-85273571D01*
X143146428Y-85202142D01*
X143289285Y-85130714D01*
X143432142Y-85130714D01*
X143646428Y-85202142D01*
X144503571Y-86059285D01*
X144503571Y-85130714D01*
X143003571Y-84202142D02*
X143003571Y-84059285D01*
X143075000Y-83916428D01*
X143146428Y-83845000D01*
X143289285Y-83773571D01*
X143575000Y-83702142D01*
X143932142Y-83702142D01*
X144217857Y-83773571D01*
X144360714Y-83845000D01*
X144432142Y-83916428D01*
X144503571Y-84059285D01*
X144503571Y-84202142D01*
X144432142Y-84345000D01*
X144360714Y-84416428D01*
X144217857Y-84487857D01*
X143932142Y-84559285D01*
X143575000Y-84559285D01*
X143289285Y-84487857D01*
X143146428Y-84416428D01*
X143075000Y-84345000D01*
X143003571Y-84202142D01*
X143146428Y-83130714D02*
X143075000Y-83059285D01*
X143003571Y-82916428D01*
X143003571Y-82559285D01*
X143075000Y-82416428D01*
X143146428Y-82345000D01*
X143289285Y-82273571D01*
X143432142Y-82273571D01*
X143646428Y-82345000D01*
X144503571Y-83202142D01*
X144503571Y-82273571D01*
X144503571Y-80845000D02*
X144503571Y-81702142D01*
X144503571Y-81273571D02*
X143003571Y-81273571D01*
X143217857Y-81416428D01*
X143360714Y-81559285D01*
X143432142Y-81702142D01*
X143932142Y-79059285D02*
X143932142Y-77916428D01*
X144503571Y-76059285D02*
X143003571Y-76059285D01*
X144503571Y-75202142D02*
X143646428Y-75845000D01*
X143003571Y-75202142D02*
X143860714Y-76059285D01*
X143003571Y-74273571D02*
X143003571Y-73987857D01*
X143075000Y-73845000D01*
X143217857Y-73702142D01*
X143503571Y-73630714D01*
X144003571Y-73630714D01*
X144289285Y-73702142D01*
X144432142Y-73845000D01*
X144503571Y-73987857D01*
X144503571Y-74273571D01*
X144432142Y-74416428D01*
X144289285Y-74559285D01*
X144003571Y-74630714D01*
X143503571Y-74630714D01*
X143217857Y-74559285D01*
X143075000Y-74416428D01*
X143003571Y-74273571D01*
X143717857Y-72487857D02*
X143789285Y-72273571D01*
X143860714Y-72202142D01*
X144003571Y-72130714D01*
X144217857Y-72130714D01*
X144360714Y-72202142D01*
X144432142Y-72273571D01*
X144503571Y-72416428D01*
X144503571Y-72987857D01*
X143003571Y-72987857D01*
X143003571Y-72487857D01*
X143075000Y-72345000D01*
X143146428Y-72273571D01*
X143289285Y-72202142D01*
X143432142Y-72202142D01*
X143575000Y-72273571D01*
X143646428Y-72345000D01*
X143717857Y-72487857D01*
X143717857Y-72987857D01*
X144075000Y-71559285D02*
X144075000Y-70845000D01*
X144503571Y-71702142D02*
X143003571Y-71202142D01*
X144503571Y-70702142D01*
X144503571Y-70202142D02*
X143003571Y-70202142D01*
X144503571Y-69345000D02*
X143646428Y-69987857D01*
X143003571Y-69345000D02*
X143860714Y-70202142D01*
X144075000Y-68773571D02*
X144075000Y-68059285D01*
X144503571Y-68916428D02*
X143003571Y-68416428D01*
X144503571Y-67916428D01*
X144503571Y-67416428D02*
X143003571Y-67416428D01*
X144503571Y-66559285D01*
X143003571Y-66559285D01*
X143003571Y-66059285D02*
X143003571Y-65202142D01*
X144503571Y-65630714D02*
X143003571Y-65630714D01*
X144503571Y-62916428D02*
X143717857Y-62916428D01*
X143575000Y-62987857D01*
X143503571Y-63130714D01*
X143503571Y-63416428D01*
X143575000Y-63559285D01*
X144432142Y-62916428D02*
X144503571Y-63059285D01*
X144503571Y-63416428D01*
X144432142Y-63559285D01*
X144289285Y-63630714D01*
X144146428Y-63630714D01*
X144003571Y-63559285D01*
X143932142Y-63416428D01*
X143932142Y-63059285D01*
X143860714Y-62916428D01*
X143503571Y-62416428D02*
X143503571Y-61845000D01*
X143003571Y-62202142D02*
X144289285Y-62202142D01*
X144432142Y-62130714D01*
X144503571Y-61987857D01*
X144503571Y-61845000D01*
X144432142Y-60273571D02*
X144503571Y-60059285D01*
X144503571Y-59702142D01*
X144432142Y-59559285D01*
X144360714Y-59487857D01*
X144217857Y-59416428D01*
X144075000Y-59416428D01*
X143932142Y-59487857D01*
X143860714Y-59559285D01*
X143789285Y-59702142D01*
X143717857Y-59987857D01*
X143646428Y-60130714D01*
X143575000Y-60202142D01*
X143432142Y-60273571D01*
X143289285Y-60273571D01*
X143146428Y-60202142D01*
X143075000Y-60130714D01*
X143003571Y-59987857D01*
X143003571Y-59630714D01*
X143075000Y-59416428D01*
X144503571Y-57559285D02*
X144503571Y-57630714D01*
X144432142Y-57773571D01*
X144217857Y-57987857D01*
X143789285Y-58345000D01*
X143575000Y-58487857D01*
X143360714Y-58559285D01*
X143217857Y-58559285D01*
X143075000Y-58487857D01*
X143003571Y-58345000D01*
X143003571Y-58273571D01*
X143075000Y-58130714D01*
X143217857Y-58059285D01*
X143289285Y-58059285D01*
X143432142Y-58130714D01*
X143503571Y-58202142D01*
X143789285Y-58630714D01*
X143860714Y-58702142D01*
X144003571Y-58773571D01*
X144217857Y-58773571D01*
X144360714Y-58702142D01*
X144432142Y-58630714D01*
X144503571Y-58487857D01*
X144503571Y-58273571D01*
X144432142Y-58130714D01*
X144360714Y-58059285D01*
X144075000Y-57845000D01*
X143860714Y-57773571D01*
X143717857Y-57773571D01*
X144503571Y-55702142D02*
X144503571Y-55773571D01*
X144432142Y-55916428D01*
X144217857Y-56130714D01*
X143789285Y-56487857D01*
X143575000Y-56630714D01*
X143360714Y-56702142D01*
X143217857Y-56702142D01*
X143075000Y-56630714D01*
X143003571Y-56487857D01*
X143003571Y-56416428D01*
X143075000Y-56273571D01*
X143217857Y-56202142D01*
X143289285Y-56202142D01*
X143432142Y-56273571D01*
X143503571Y-56345000D01*
X143789285Y-56773571D01*
X143860714Y-56845000D01*
X144003571Y-56916428D01*
X144217857Y-56916428D01*
X144360714Y-56845000D01*
X144432142Y-56773571D01*
X144503571Y-56630714D01*
X144503571Y-56416428D01*
X144432142Y-56273571D01*
X144360714Y-56202142D01*
X144075000Y-55987857D01*
X143860714Y-55916428D01*
X143717857Y-55916428D01*
X143003571Y-54773571D02*
X143003571Y-54487857D01*
X143075000Y-54345000D01*
X143217857Y-54202142D01*
X143503571Y-54130714D01*
X144003571Y-54130714D01*
X144289285Y-54202142D01*
X144432142Y-54345000D01*
X144503571Y-54487857D01*
X144503571Y-54773571D01*
X144432142Y-54916428D01*
X144289285Y-55059285D01*
X144003571Y-55130714D01*
X143503571Y-55130714D01*
X143217857Y-55059285D01*
X143075000Y-54916428D01*
X143003571Y-54773571D01*
D11*
X101521930Y-60698306D02*
X102361774Y-60849130D01*
X103203142Y-60945577D01*
X104044782Y-60988654D01*
X104885444Y-60979373D01*
X105723876Y-60918741D01*
X106558829Y-60807770D01*
X107389051Y-60647469D01*
X108213291Y-60438846D01*
X109030299Y-60182912D01*
X109838824Y-59880677D01*
X110637616Y-59533149D01*
X111425422Y-59141339D01*
X112200993Y-58706256D01*
X112963078Y-58228910D01*
X113710426Y-57710309D01*
X114441786Y-57151465D01*
X115155907Y-56553385D01*
X115851539Y-55917081D01*
X116527431Y-55243561D01*
X117182333Y-54533835D01*
X117814992Y-53788913D01*
X118424159Y-53009804D01*
X119008583Y-52197518D01*
X119567012Y-51353065D01*
X120098197Y-50477453D01*
X120600887Y-49571692D01*
X121073830Y-48636793D01*
X121515775Y-47673765D01*
X121925473Y-46683617D01*
X122301672Y-45667358D01*
X122643122Y-44625999D01*
X122948572Y-43560550D01*
X104591725Y-50138464D02*
X104475690Y-50446875D01*
X104360938Y-50757078D01*
X104247469Y-51069031D01*
X104135287Y-51382695D01*
X104024391Y-51698031D01*
X103914784Y-52014997D01*
X103806466Y-52333556D01*
X103699440Y-52653666D01*
X103593707Y-52975288D01*
X103489267Y-53298383D01*
X103386123Y-53622909D01*
X103284277Y-53948828D01*
X103183728Y-54276100D01*
X103084480Y-54604684D01*
X102986533Y-54934542D01*
X102889888Y-55265633D01*
X102794548Y-55597917D01*
X102700514Y-55931355D01*
X102607786Y-56265906D01*
X102516367Y-56601531D01*
X102426258Y-56938191D01*
X102337461Y-57275844D01*
X102249976Y-57614452D01*
X102163806Y-57953975D01*
X102078951Y-58294373D01*
X101995414Y-58635605D01*
X101913195Y-58977633D01*
X101832296Y-59320416D01*
X101752718Y-59663915D01*
X101674464Y-60008089D01*
X101597534Y-60352899D01*
X101521930Y-60698306D01*
X152991592Y-106343152D02*
X152816366Y-106479044D01*
X152618577Y-106570463D01*
X152398223Y-106617407D01*
X152266055Y-106624271D01*
X170232658Y-91344089D02*
X169382797Y-91206087D01*
X168531695Y-91123408D01*
X167680647Y-91095007D01*
X166830947Y-91119843D01*
X165983892Y-91196871D01*
X165140777Y-91325048D01*
X164302896Y-91503331D01*
X163471547Y-91730676D01*
X162648024Y-92006040D01*
X161833622Y-92328380D01*
X161029637Y-92696653D01*
X160237364Y-93109814D01*
X159458100Y-93566822D01*
X158693138Y-94066632D01*
X157943775Y-94608201D01*
X157211306Y-95190487D01*
X156497026Y-95812444D01*
X155802232Y-96473031D01*
X155128217Y-97171204D01*
X154476279Y-97905920D01*
X153847711Y-98676135D01*
X153243810Y-99480806D01*
X152665871Y-100318889D01*
X152115190Y-101189342D01*
X151593061Y-102091121D01*
X151100780Y-103023183D01*
X150639643Y-103984484D01*
X150210945Y-104973981D01*
X149815982Y-105990631D01*
X149456048Y-107033390D01*
X149132440Y-108101215D01*
X148846453Y-109193064D01*
X152247451Y-103529887D02*
X152450797Y-103546940D01*
X152654237Y-103606892D01*
X152830862Y-103710011D01*
X152933714Y-103802738D01*
X151795799Y-103623938D02*
X151995414Y-103556430D01*
X152200981Y-103530713D01*
X152247451Y-103529887D01*
X153835985Y-103882320D02*
X153980765Y-103727553D01*
X154150178Y-103623938D01*
X153667520Y-104321570D02*
X153722247Y-104116449D01*
X153808709Y-103925130D01*
X153835985Y-103882320D01*
X154202887Y-104412520D02*
X153667520Y-104321570D01*
X106597654Y-48890069D02*
X106330259Y-48788984D01*
X106084544Y-48746281D01*
X105858685Y-48757372D01*
X105650861Y-48817670D01*
X105459249Y-48922587D01*
X105282027Y-49067535D01*
X105117373Y-49247927D01*
X104963466Y-49459175D01*
X104818482Y-49696691D01*
X104680600Y-49955887D01*
X104591725Y-50138464D01*
X108294622Y-45300000D02*
X106597654Y-48890069D01*
X107985984Y-42957572D02*
X107901320Y-43142134D01*
X107788560Y-43413198D01*
X107697059Y-43675989D01*
X107631519Y-43929003D01*
X107596643Y-44170736D01*
X107597133Y-44399684D01*
X107637689Y-44614342D01*
X107723015Y-44813207D01*
X107857811Y-44994774D01*
X108046779Y-45157540D01*
X108294622Y-45300000D01*
X156144199Y-74060195D02*
X155968973Y-74196088D01*
X155771183Y-74287507D01*
X155550830Y-74334451D01*
X155418662Y-74341315D01*
X161665955Y-40820041D02*
X161389079Y-40540383D01*
X161099648Y-40279903D01*
X160799169Y-40039171D01*
X160489152Y-39818757D01*
X160171106Y-39619231D01*
X159846539Y-39441163D01*
X159516960Y-39285123D01*
X159183879Y-39151680D01*
X158848804Y-39041406D01*
X158513245Y-38954869D01*
X158178710Y-38892640D01*
X157846708Y-38855289D01*
X157518748Y-38843386D01*
X157196339Y-38857500D01*
X156880990Y-38898203D01*
X156574211Y-38966063D01*
X154919123Y-106006221D02*
X155018571Y-105822656D01*
X155042113Y-105638285D01*
X154616299Y-106142647D02*
X154818886Y-106089355D01*
X154919123Y-106006221D01*
X154331045Y-106028959D02*
X154507051Y-106129213D01*
X154616299Y-106142647D01*
X154186351Y-105700297D02*
X154240571Y-105900121D01*
X154331045Y-106028959D01*
X153624111Y-105768510D02*
X154186351Y-105700297D01*
X153938304Y-106387593D02*
X153791268Y-106225438D01*
X153688642Y-106034821D01*
X153634248Y-105838930D01*
X153624111Y-105768510D01*
X154620433Y-106624271D02*
X154400170Y-106605549D01*
X154202144Y-106549384D01*
X154008196Y-106443064D01*
X153938304Y-106387593D01*
X155345970Y-106343152D02*
X155170744Y-106479044D01*
X154972955Y-106570463D01*
X154752601Y-106617407D01*
X154620433Y-106624271D01*
X153283047Y-105663090D02*
X153259992Y-105878174D01*
X153190828Y-106074619D01*
X153075555Y-106252425D01*
X152991592Y-106343152D01*
X153126984Y-105193868D02*
X153233667Y-105379313D01*
X153279236Y-105579146D01*
X153283047Y-105663090D01*
X152710472Y-104943754D02*
X152904859Y-105011956D01*
X153075665Y-105136529D01*
X153126984Y-105193868D01*
X153146621Y-104307100D02*
X153112120Y-104518751D01*
X153008620Y-104704895D01*
X152858694Y-104848943D01*
X152710472Y-104943754D01*
X152933714Y-103802738D02*
X153054929Y-103963056D01*
X153129779Y-104153548D01*
X153146621Y-104307100D01*
X117299197Y-49798455D02*
X117211431Y-49991831D01*
X117168855Y-50194853D01*
X117143501Y-50422811D01*
X117139000Y-50486785D01*
X117610289Y-49633090D02*
X117411866Y-49691387D01*
X117299197Y-49798455D01*
X117835598Y-49715773D02*
X117652306Y-49635108D01*
X117610289Y-49633090D01*
X117943085Y-49972088D02*
X117883398Y-49776331D01*
X117835598Y-49715773D01*
X118505325Y-49910076D02*
X117943085Y-49972088D01*
X117188609Y-51177182D02*
X117210101Y-51385949D01*
X117288312Y-51573847D01*
X117318834Y-51614365D01*
X117304365Y-50789609D02*
X117210765Y-50976842D01*
X117188609Y-51177182D01*
X117587551Y-50658351D02*
X117390052Y-50714878D01*
X117304365Y-50789609D01*
X118561135Y-51222657D02*
X118544081Y-51443703D01*
X118492922Y-51641753D01*
X118394600Y-51837072D01*
X118288284Y-51968865D01*
X155129274Y-73746003D02*
X155305280Y-73846257D01*
X155414528Y-73859691D01*
X154984580Y-73417341D02*
X155038799Y-73617165D01*
X155129274Y-73746003D01*
X154422340Y-73485553D02*
X154984580Y-73417341D01*
X161721916Y-63360525D02*
X161989179Y-63355700D01*
X162254817Y-63341301D01*
X162518754Y-63317441D01*
X162780914Y-63284235D01*
X163041222Y-63241795D01*
X163299601Y-63190234D01*
X163555977Y-63129666D01*
X163810273Y-63060206D01*
X164062414Y-62981964D01*
X164312324Y-62895057D01*
X164559927Y-62799596D01*
X164805149Y-62695695D01*
X165047913Y-62583469D01*
X165288143Y-62463029D01*
X165525764Y-62334489D01*
X165760701Y-62197964D01*
X165992877Y-62053566D01*
X166222217Y-61901409D01*
X166448645Y-61741606D01*
X166672086Y-61574270D01*
X166892464Y-61399516D01*
X167109703Y-61217456D01*
X167323728Y-61028204D01*
X167534463Y-60831873D01*
X167741833Y-60628577D01*
X167945761Y-60418430D01*
X168146172Y-60201543D01*
X168342991Y-59978032D01*
X168536141Y-59748010D01*
X168725548Y-59511589D01*
X168911135Y-59268883D01*
X169092827Y-59020007D01*
X115826419Y-49428452D02*
X115947634Y-49588769D01*
X116022483Y-49779261D01*
X116039325Y-49932814D01*
X115140156Y-49155600D02*
X115343502Y-49172653D01*
X115546941Y-49232606D01*
X115723566Y-49335725D01*
X115826419Y-49428452D01*
X114688504Y-49249651D02*
X114888118Y-49182143D01*
X115093686Y-49156426D01*
X115140156Y-49155600D01*
X114374311Y-49508033D02*
X114519091Y-49353266D01*
X114688504Y-49249651D01*
X114205846Y-49947283D02*
X114260573Y-49742162D01*
X114347035Y-49550843D01*
X114374311Y-49508033D01*
X114741214Y-50038234D02*
X114205846Y-49947283D01*
X114869371Y-49736443D02*
X114766615Y-49913043D01*
X114741214Y-50038234D01*
X115123619Y-49633090D02*
X114924793Y-49691226D01*
X114869371Y-49736443D01*
X155535450Y-51638136D02*
X155326492Y-51680470D01*
X155150172Y-51795593D01*
X155086899Y-51859311D01*
X155861012Y-51777662D02*
X155685908Y-51661163D01*
X155535450Y-51638136D01*
X155986069Y-52196241D02*
X155965429Y-51992538D01*
X155883360Y-51805049D01*
X155861012Y-51777662D01*
X155859978Y-52641692D02*
X155954546Y-52456432D01*
X155984960Y-52250734D01*
X155986069Y-52196241D01*
X155551987Y-52789487D02*
X155748318Y-52737383D01*
X155859978Y-52641692D01*
X155270867Y-52674765D02*
X155446958Y-52775930D01*
X155551987Y-52789487D01*
X155124106Y-52363673D02*
X155182750Y-52558755D01*
X155270867Y-52674765D01*
X154545330Y-52423618D02*
X155124106Y-52363673D01*
X154861590Y-53029265D02*
X154717017Y-52873307D01*
X154614027Y-52687070D01*
X154556890Y-52493568D01*
X154545330Y-52423618D01*
X155545786Y-53254575D02*
X155345668Y-53240493D01*
X155143700Y-53190986D01*
X154948057Y-53094173D01*
X154861590Y-53029265D01*
X156366407Y-52853566D02*
X156226107Y-53009818D01*
X156063849Y-53127693D01*
X155879633Y-53207190D01*
X155673458Y-53248309D01*
X155545786Y-53254575D01*
X154175327Y-52293393D02*
X154152272Y-52508477D01*
X154083108Y-52704923D01*
X153967835Y-52882728D01*
X153883872Y-52973455D01*
X154019264Y-51824171D02*
X154125947Y-52009616D01*
X154171516Y-52209449D01*
X154175327Y-52293393D01*
X118216970Y-49348870D02*
X118353163Y-49502382D01*
X118450519Y-49697173D01*
X118505325Y-49910076D01*
X117645429Y-49155600D02*
X117849570Y-49174473D01*
X118047314Y-49238834D01*
X118216970Y-49348870D01*
X116845478Y-49523536D02*
X116989027Y-49380170D01*
X117174642Y-49259441D01*
X117383253Y-49184704D01*
X117584652Y-49157037D01*
X117645429Y-49155600D01*
X116537486Y-50724497D02*
X116542298Y-50523507D01*
X116561848Y-50292709D01*
X116596437Y-50084621D01*
X116657795Y-49864891D01*
X116740808Y-49677862D01*
X116845478Y-49523536D01*
X157724464Y-73588906D02*
X157605608Y-73750137D01*
X158072763Y-73254043D02*
X157920620Y-73395103D01*
X157773750Y-73536971D01*
X157724464Y-73588906D01*
X163010511Y-42956452D02*
X162890818Y-42747246D01*
X162779226Y-42543777D01*
X162672474Y-42344698D01*
X162567303Y-42148661D01*
X162460455Y-41954320D01*
X162348669Y-41760327D01*
X162228687Y-41565334D01*
X162097249Y-41367995D01*
X161951096Y-41166962D01*
X161786968Y-40960889D01*
X161665955Y-40820041D01*
X151976667Y-106028959D02*
X152152673Y-106129213D01*
X152261921Y-106142647D01*
X163008638Y-42957572D02*
X163010511Y-42956452D01*
X153602752Y-51574057D02*
X153797139Y-51642259D01*
X153967945Y-51766832D01*
X154019264Y-51824171D01*
X154038901Y-50937404D02*
X154004400Y-51149055D01*
X153900900Y-51335199D01*
X153750974Y-51479247D01*
X153602752Y-51574057D01*
X153825994Y-50433042D02*
X153947209Y-50593359D01*
X154022059Y-50783851D01*
X154038901Y-50937404D01*
X153139731Y-50160190D02*
X153343077Y-50177243D01*
X153546517Y-50237195D01*
X153723141Y-50340314D01*
X153825994Y-50433042D01*
X152688079Y-50254241D02*
X152887694Y-50186733D01*
X153093261Y-50161016D01*
X153139731Y-50160190D01*
X152373886Y-50512623D02*
X152518666Y-50357856D01*
X152688079Y-50254241D01*
X152205421Y-50951873D02*
X152260148Y-50746752D01*
X152346610Y-50555433D01*
X152373886Y-50512623D01*
X152740789Y-51042823D02*
X152205421Y-50951873D01*
X152868947Y-50741033D02*
X152766191Y-50917633D01*
X152740789Y-51042823D01*
X153123195Y-50637680D02*
X152924369Y-50695816D01*
X152868947Y-50741033D01*
X153365040Y-50728631D02*
X153177672Y-50640877D01*
X153123195Y-50637680D01*
X153455991Y-50972543D02*
X153404831Y-50777981D01*
X153365040Y-50728631D01*
X153331967Y-51260898D02*
X153441335Y-51087752D01*
X153455991Y-50972543D01*
X152972299Y-51363217D02*
X153180038Y-51340737D01*
X153331967Y-51260898D01*
X152908221Y-51836573D02*
X152972299Y-51363217D01*
X153174871Y-51793165D02*
X152973968Y-51819659D01*
X152908221Y-51836573D01*
X153462192Y-51921323D02*
X153294728Y-51811187D01*
X153174871Y-51793165D01*
X153580014Y-52268588D02*
X153546761Y-52061454D01*
X153462192Y-51921323D01*
X153457024Y-52636525D02*
X153556473Y-52452960D01*
X153580014Y-52268588D01*
X153154200Y-52772950D02*
X153356788Y-52719658D01*
X153457024Y-52636525D01*
X153158335Y-53254575D02*
X152938072Y-53235853D01*
X152740046Y-53179688D01*
X152546098Y-53073368D01*
X152476206Y-53017897D01*
X153883872Y-52973455D02*
X153708646Y-53109347D01*
X153510856Y-53200766D01*
X153290503Y-53247711D01*
X153158335Y-53254575D01*
X119725405Y-103704467D02*
X119725405Y-104215030D01*
X119349201Y-103704467D02*
X119725405Y-103704467D01*
X119349201Y-101782104D02*
X119349201Y-103704467D01*
X118861375Y-101782104D02*
X119349201Y-101782104D01*
X117546727Y-103706534D02*
X118861375Y-101782104D01*
X117546727Y-104215030D02*
X117546727Y-103706534D01*
X118786961Y-104215030D02*
X117546727Y-104215030D01*
X118786961Y-104824812D02*
X118786961Y-104215030D01*
X119349201Y-104824812D02*
X118786961Y-104824812D01*
X119349201Y-104215030D02*
X119349201Y-104824812D01*
X119725405Y-104215030D02*
X119349201Y-104215030D01*
X117286278Y-103915307D02*
X117263223Y-104130391D01*
X117194059Y-104326836D01*
X117078786Y-104504642D01*
X116994823Y-104595369D01*
X117130215Y-103446085D02*
X117236898Y-103631530D01*
X117282467Y-103831363D01*
X117286278Y-103915307D01*
X116713703Y-103195971D02*
X116908090Y-103264173D01*
X117078896Y-103388746D01*
X117130215Y-103446085D01*
X117149852Y-102559317D02*
X117115351Y-102770968D01*
X117011851Y-102957112D01*
X116861925Y-103101160D01*
X116713703Y-103195971D01*
X116936945Y-102054955D02*
X117058160Y-102215273D01*
X117133010Y-102405765D01*
X117149852Y-102559317D01*
X116250682Y-101782104D02*
X116454028Y-101799157D01*
X116657468Y-101859109D01*
X116834092Y-101962228D01*
X116936945Y-102054955D01*
X115799030Y-101876155D02*
X115998645Y-101808647D01*
X116204212Y-101782930D01*
X116250682Y-101782104D01*
X115484837Y-102134537D02*
X115629617Y-101979769D01*
X115799030Y-101876155D01*
X115316372Y-102573787D02*
X115371099Y-102368666D01*
X115457561Y-102177347D01*
X115484837Y-102134537D01*
X115851740Y-102664737D02*
X115316372Y-102573787D01*
X116019688Y-50819581D02*
X116126371Y-51005026D01*
X116171940Y-51204859D01*
X116175751Y-51288803D01*
X115603176Y-50569467D02*
X115797563Y-50637669D01*
X115968370Y-50762242D01*
X116019688Y-50819581D01*
X116039325Y-49932814D02*
X116004824Y-50144465D01*
X115901324Y-50330609D01*
X115751398Y-50474657D01*
X115603176Y-50569467D01*
X118301720Y-50507456D02*
X118427120Y-50676013D01*
X118511481Y-50870078D01*
X118554801Y-51089650D01*
X118561135Y-51222657D01*
X117678502Y-50230470D02*
X117895684Y-50257519D01*
X118092478Y-50338667D01*
X118268885Y-50473914D01*
X118301720Y-50507456D01*
X117139000Y-50486785D02*
X117300672Y-50340855D01*
X117487258Y-50255500D01*
X117678502Y-50230470D01*
X156574211Y-38966063D02*
X156364106Y-39026410D01*
X156160384Y-39091933D01*
X155962780Y-39162389D01*
X155771027Y-39237534D01*
X155584857Y-39317125D01*
X155228205Y-39488670D01*
X154890693Y-39675074D01*
X154570188Y-39874390D01*
X154264561Y-40084668D01*
X153971678Y-40303962D01*
X153689408Y-40530321D01*
X153415621Y-40761798D01*
X153148184Y-40996445D01*
X152884966Y-41232312D01*
X152623836Y-41467452D01*
X152362662Y-41699916D01*
X152099312Y-41927755D01*
X151831656Y-42149021D01*
X151695547Y-42256581D01*
X158453102Y-72867503D02*
X158317027Y-73019353D01*
X158169898Y-73163617D01*
X158072763Y-73254043D01*
X158685646Y-72479930D02*
X158590819Y-72669324D01*
X158472662Y-72842250D01*
X158453102Y-72867503D01*
X158759026Y-72090290D02*
X158740681Y-72290019D01*
X158685646Y-72479930D01*
X116833075Y-51893417D02*
X116717899Y-51715609D01*
X116641692Y-51528484D01*
X116586269Y-51309311D01*
X116555960Y-51102187D01*
X116540083Y-50872807D01*
X116537486Y-50724497D01*
X155592294Y-72347638D02*
X155701662Y-72174492D01*
X155716318Y-72059284D01*
X155232627Y-72449958D02*
X155440365Y-72427478D01*
X155592294Y-72347638D01*
X155168548Y-72923314D02*
X155232627Y-72449958D01*
X155435198Y-72879906D02*
X155234296Y-72906400D01*
X155168548Y-72923314D01*
X155722519Y-73008063D02*
X155555055Y-72897928D01*
X155435198Y-72879906D01*
X155840341Y-73355329D02*
X155807088Y-73148195D01*
X155722519Y-73008063D01*
X155717351Y-73723265D02*
X155816800Y-73539700D01*
X155840341Y-73355329D01*
X155414528Y-73859691D02*
X155617115Y-73806399D01*
X155717351Y-73723265D01*
X115332392Y-50256308D02*
X115441759Y-50083162D01*
X115456415Y-49967954D01*
X157115716Y-71455703D02*
X157299570Y-71345607D01*
X157510071Y-71276288D01*
X157722304Y-71248764D01*
X157797845Y-71246930D01*
X156791188Y-72144033D02*
X156830849Y-71921178D01*
X156898158Y-71732171D01*
X157006927Y-71559998D01*
X157115716Y-71455703D01*
X157369964Y-72201911D02*
X156791188Y-72144033D01*
X157493987Y-71838109D02*
X157398409Y-72019214D01*
X157369964Y-72201911D01*
X158502711Y-71488776D02*
X158637877Y-71651435D01*
X158722981Y-71837107D01*
X158758024Y-72045791D01*
X158759026Y-72090290D01*
X157797845Y-71246930D02*
X158010105Y-71262045D01*
X158220176Y-71315185D01*
X158399834Y-71406586D01*
X158502711Y-71488776D01*
X155500999Y-104307100D02*
X155466498Y-104518751D01*
X155362998Y-104704895D01*
X155213072Y-104848943D01*
X155064850Y-104943754D01*
X117587551Y-52249985D02*
X117368314Y-52227699D01*
X117169489Y-52160843D01*
X116991076Y-52049415D01*
X116833075Y-51893417D01*
X118288284Y-51968865D02*
X118122541Y-52104757D01*
X117932273Y-52196176D01*
X117717478Y-52243121D01*
X117587551Y-52249985D01*
X116175751Y-51288803D02*
X116152696Y-51503888D01*
X116083533Y-51700333D01*
X115968260Y-51878138D01*
X115884296Y-51968865D01*
X115175296Y-50788575D02*
X114974393Y-50815069D01*
X114908645Y-50831984D01*
X115462616Y-50916733D02*
X115295152Y-50806597D01*
X115175296Y-50788575D01*
X170301625Y-65024442D02*
X170086760Y-64980811D01*
X169870559Y-64939775D01*
X169653047Y-64901365D01*
X169434252Y-64865610D01*
X169214200Y-64832541D01*
X168992918Y-64802189D01*
X168770434Y-64774583D01*
X168546774Y-64749754D01*
X168321964Y-64727733D01*
X168096032Y-64708549D01*
X167869005Y-64692234D01*
X167640910Y-64678817D01*
X167411773Y-64668329D01*
X167181621Y-64660799D01*
X166950481Y-64656260D01*
X166718381Y-64654740D01*
X166718381Y-64654740D02*
X166015311Y-64668488D01*
X165321472Y-64709291D01*
X164637720Y-64776484D01*
X163964914Y-64869404D01*
X163303914Y-64987387D01*
X162655576Y-65129769D01*
X162020761Y-65295886D01*
X161400325Y-65485074D01*
X160795129Y-65696669D01*
X160206029Y-65930007D01*
X159633885Y-66184425D01*
X159079554Y-66459259D01*
X158543896Y-66753844D01*
X158027769Y-67067517D01*
X157532032Y-67399614D01*
X157057542Y-67749472D01*
X156605158Y-68116425D01*
X156175739Y-68499811D01*
X155770142Y-68898965D01*
X155389228Y-69313223D01*
X155033853Y-69741922D01*
X154704877Y-70184398D01*
X154403158Y-70639987D01*
X154129554Y-71108025D01*
X153884923Y-71587848D01*
X153670125Y-72078792D01*
X153486018Y-72580194D01*
X153333459Y-73091389D01*
X153213308Y-73611714D01*
X153126424Y-74140504D01*
X153073663Y-74677096D01*
X153055886Y-75220827D01*
X151481607Y-103882320D02*
X151626387Y-103727553D01*
X151795799Y-103623938D01*
X151313141Y-104321570D02*
X151367868Y-104116449D01*
X151454331Y-103925130D01*
X151481607Y-103882320D01*
X166718381Y-85786913D02*
X167001821Y-85784651D01*
X167283820Y-85777901D01*
X167564327Y-85766715D01*
X167843292Y-85751143D01*
X168120665Y-85731237D01*
X168396393Y-85707049D01*
X168670428Y-85678630D01*
X168942717Y-85646032D01*
X169213211Y-85609306D01*
X169481859Y-85568504D01*
X169748610Y-85523677D01*
X170013413Y-85474876D01*
X170276219Y-85422154D01*
X170536975Y-85365562D01*
X170795632Y-85305151D01*
X171052139Y-85240973D01*
X171052139Y-85240973D02*
X171074404Y-85009112D01*
X171096004Y-84777496D01*
X171116934Y-84546137D01*
X171137192Y-84315046D01*
X171156775Y-84084235D01*
X171175682Y-83853716D01*
X171193908Y-83623501D01*
X171211452Y-83393602D01*
X171228311Y-83164031D01*
X171244483Y-82934799D01*
X171259963Y-82705919D01*
X171274751Y-82477403D01*
X171288843Y-82249261D01*
X171302237Y-82021507D01*
X171314930Y-81794153D01*
X171326920Y-81567209D01*
X171338203Y-81340688D01*
X171348778Y-81114602D01*
X171358640Y-80888962D01*
X171367789Y-80663781D01*
X171376221Y-80439071D01*
X171383934Y-80214843D01*
X171390925Y-79991109D01*
X171397191Y-79767881D01*
X171402729Y-79545172D01*
X171407538Y-79322992D01*
X171411614Y-79101354D01*
X171414955Y-78880270D01*
X171417559Y-78659751D01*
X171419421Y-78439810D01*
X171420541Y-78220458D01*
X171420915Y-78001708D01*
X171420915Y-77974900D02*
X171420998Y-77673847D01*
X171421118Y-77371578D01*
X171421075Y-77068137D01*
X171420672Y-76763568D01*
X171419711Y-76457914D01*
X171417993Y-76151219D01*
X171415321Y-75843528D01*
X171411497Y-75534884D01*
X171406323Y-75225331D01*
X171399600Y-74914914D01*
X171391131Y-74603675D01*
X171380719Y-74291659D01*
X171368164Y-73978909D01*
X171353269Y-73665470D01*
X171335836Y-73351386D01*
X171315667Y-73036701D01*
X171420915Y-78001708D02*
X171420915Y-77974900D01*
X152162013Y-52398813D02*
X152724252Y-52330600D01*
X152476206Y-53017897D02*
X152329170Y-52855741D01*
X152226544Y-52665124D01*
X152172150Y-52469233D01*
X152162013Y-52398813D01*
X116265151Y-104394864D02*
X116467739Y-104341572D01*
X116567975Y-104258438D01*
X166402896Y-50138464D02*
X166314020Y-49955887D01*
X166176138Y-49696691D01*
X166031155Y-49459175D01*
X165877247Y-49247927D01*
X165712594Y-49067535D01*
X165535372Y-48922587D01*
X165343760Y-48817670D01*
X165135936Y-48757372D01*
X164910077Y-48746281D01*
X164664362Y-48788984D01*
X164396968Y-48890069D01*
X151831973Y-105700297D02*
X151886192Y-105900121D01*
X151976667Y-106028959D01*
X151269733Y-105768510D02*
X151831973Y-105700297D01*
X151583926Y-106387593D02*
X151436890Y-106225438D01*
X151334264Y-106034821D01*
X151279870Y-105838930D01*
X151269733Y-105768510D01*
X152266055Y-106624271D02*
X152045792Y-106605549D01*
X151847766Y-106549384D01*
X151653818Y-106443064D01*
X151583926Y-106387593D01*
X118084162Y-70410806D02*
X118199337Y-70588811D01*
X118275544Y-70776421D01*
X118330967Y-70996369D01*
X118361276Y-71204362D01*
X118377153Y-71434811D01*
X118379751Y-71583861D01*
X117327619Y-70054238D02*
X117547760Y-70076523D01*
X117747231Y-70143380D01*
X117926031Y-70254807D01*
X118084162Y-70410806D01*
X116629987Y-70336392D02*
X116795901Y-70199999D01*
X116985524Y-70108243D01*
X117198856Y-70061126D01*
X117327619Y-70054238D01*
X116356102Y-71079499D02*
X116373219Y-70860196D01*
X116424573Y-70663245D01*
X116523268Y-70468389D01*
X116629987Y-70336392D01*
X116615518Y-71797801D02*
X116490116Y-71629415D01*
X116405755Y-71434705D01*
X116362435Y-71213670D01*
X116356102Y-71079499D01*
X117232534Y-72073753D02*
X117018622Y-72046804D01*
X116823886Y-71965959D01*
X116648328Y-71831217D01*
X116615518Y-71797801D01*
X117780304Y-71819505D02*
X117616721Y-71964257D01*
X117427249Y-72048924D01*
X117232534Y-72073753D01*
X117619074Y-72505768D02*
X117706512Y-72312732D01*
X117749459Y-72110346D01*
X117775556Y-71883228D01*
X117780304Y-71819505D01*
X117313150Y-72671133D02*
X117507755Y-72612835D01*
X117619074Y-72505768D01*
X117083706Y-72588451D02*
X117269941Y-72669114D01*
X117313150Y-72671133D01*
X116976219Y-72334203D02*
X117035905Y-72528094D01*
X117083706Y-72588451D01*
X116413980Y-72396214D02*
X116976219Y-72334203D01*
X116695099Y-72961554D02*
X116563025Y-72809418D01*
X116468078Y-72613073D01*
X116413980Y-72396214D01*
X117269741Y-73150690D02*
X117060855Y-73132219D01*
X116861856Y-73069236D01*
X116695099Y-72961554D01*
X118071760Y-72782754D02*
X117928111Y-72926119D01*
X117742140Y-73046848D01*
X117532915Y-73121585D01*
X117330767Y-73149252D01*
X117269741Y-73150690D01*
X116039842Y-72187441D02*
X116016787Y-72402526D01*
X115947624Y-72598971D01*
X115832351Y-72776776D01*
X115748387Y-72867503D01*
X115883779Y-71718219D02*
X115990462Y-71903664D01*
X116036031Y-72103497D01*
X116039842Y-72187441D01*
X115467267Y-71468106D02*
X115661654Y-71536308D01*
X115832461Y-71660880D01*
X115883779Y-71718219D01*
X115903416Y-70831452D02*
X115868915Y-71043103D01*
X115765415Y-71229247D01*
X115615489Y-71373295D01*
X115467267Y-71468106D01*
X115690510Y-70327090D02*
X115811724Y-70487408D01*
X115886574Y-70677900D01*
X115903416Y-70831452D01*
X115004247Y-70054238D02*
X115207593Y-70071291D01*
X115411032Y-70131244D01*
X115587657Y-70234363D01*
X115690510Y-70327090D01*
X114552595Y-70148289D02*
X114752209Y-70080781D01*
X114957777Y-70055064D01*
X115004247Y-70054238D01*
X114238402Y-70406672D02*
X114383182Y-70251904D01*
X114552595Y-70148289D01*
X114069937Y-70845921D02*
X114124664Y-70640801D01*
X114211126Y-70449482D01*
X114238402Y-70406672D01*
X114605304Y-70936872D02*
X114069937Y-70845921D01*
X114733462Y-70635081D02*
X114630706Y-70811681D01*
X114605304Y-70936872D01*
X114987710Y-70531729D02*
X114788884Y-70589864D01*
X114733462Y-70635081D01*
X115229556Y-70622679D02*
X115042188Y-70534926D01*
X114987710Y-70531729D01*
X115320506Y-70866592D02*
X115269346Y-70672030D01*
X115229556Y-70622679D01*
X115196483Y-71154946D02*
X115305850Y-70981800D01*
X115320506Y-70866592D01*
X114836815Y-71257266D02*
X115044554Y-71234786D01*
X115196483Y-71154946D01*
X114772736Y-71730622D02*
X114836815Y-71257266D01*
X115039387Y-71687214D02*
X114838484Y-71713708D01*
X114772736Y-71730622D01*
X115326707Y-71815371D02*
X115159243Y-71705236D01*
X115039387Y-71687214D01*
X115444530Y-72162637D02*
X115411277Y-71955503D01*
X115326707Y-71815371D01*
X115321540Y-72530573D02*
X115420988Y-72347008D01*
X115444530Y-72162637D01*
X115018716Y-72666999D02*
X115221303Y-72613707D01*
X115321540Y-72530573D01*
X114733462Y-72553311D02*
X114909468Y-72653565D01*
X115018716Y-72666999D01*
X114588768Y-72224649D02*
X114642988Y-72424472D01*
X114733462Y-72553311D01*
X114026528Y-72292861D02*
X114588768Y-72224649D01*
X114340721Y-72911945D02*
X114193685Y-72749790D01*
X114091059Y-72559172D01*
X114036665Y-72363281D01*
X114026528Y-72292861D01*
X115022850Y-73148623D02*
X114802587Y-73129901D01*
X114604561Y-73073736D01*
X114410613Y-72967416D01*
X114340721Y-72911945D01*
X115748387Y-72867503D02*
X115573161Y-73003396D01*
X115375372Y-73094815D01*
X115155018Y-73141759D01*
X115022850Y-73148623D01*
X119864264Y-73412883D02*
X119846486Y-72869152D01*
X119793726Y-72332560D01*
X119706841Y-71803770D01*
X119586691Y-71283445D01*
X119434133Y-70772250D01*
X119250026Y-70270849D01*
X119035228Y-69779905D01*
X118790599Y-69300082D01*
X118516995Y-68832044D01*
X118215276Y-68376455D01*
X117886301Y-67933979D01*
X117530927Y-67505280D01*
X117150013Y-67091021D01*
X116744418Y-66691867D01*
X116314999Y-66308482D01*
X115862616Y-65941529D01*
X115388126Y-65591671D01*
X114892389Y-65259574D01*
X114376262Y-64945901D01*
X113840604Y-64651316D01*
X113286274Y-64376482D01*
X112714130Y-64122064D01*
X112125030Y-63888726D01*
X111519833Y-63677131D01*
X110899397Y-63487943D01*
X110264581Y-63321826D01*
X109616243Y-63179444D01*
X108955241Y-63061461D01*
X108282434Y-62968541D01*
X107598681Y-62901348D01*
X106904840Y-62860545D01*
X106201769Y-62846797D01*
X106201769Y-83978970D02*
X106904840Y-83965221D01*
X107598681Y-83924418D01*
X108282434Y-83857225D01*
X108955241Y-83764305D01*
X109616243Y-83646322D01*
X110264581Y-83503940D01*
X110899397Y-83337823D01*
X111519833Y-83148635D01*
X112125030Y-82937040D01*
X112714130Y-82703702D01*
X113286274Y-82449284D01*
X113840604Y-82174450D01*
X114376262Y-81879865D01*
X114892389Y-81566192D01*
X115388126Y-81234095D01*
X115862616Y-80884237D01*
X116314999Y-80517284D01*
X116744418Y-80133898D01*
X117150013Y-79734744D01*
X117530927Y-79320486D01*
X117886301Y-78891787D01*
X118215276Y-78449311D01*
X118516995Y-77993722D01*
X118790599Y-77525684D01*
X119035228Y-77045861D01*
X119250026Y-76554917D01*
X119434133Y-76053515D01*
X119586691Y-75542320D01*
X119706841Y-75021995D01*
X119793726Y-74493205D01*
X119846486Y-73956613D01*
X119864264Y-73412883D01*
X99737220Y-82722651D02*
X100101306Y-82868765D01*
X100471666Y-83006616D01*
X100848095Y-83136042D01*
X101038522Y-83197546D01*
X101230391Y-83256884D01*
X101423676Y-83314036D01*
X101618351Y-83368981D01*
X101814392Y-83421700D01*
X102011773Y-83472172D01*
X102210469Y-83520378D01*
X102410454Y-83566297D01*
X102611702Y-83609910D01*
X102814190Y-83651196D01*
X103017891Y-83690135D01*
X103222780Y-83726707D01*
X103428831Y-83760892D01*
X103636020Y-83792671D01*
X103844321Y-83822022D01*
X104053708Y-83848927D01*
X104264157Y-83873364D01*
X104475641Y-83895314D01*
X104688136Y-83914757D01*
X104901616Y-83931673D01*
X105116056Y-83946041D01*
X105331431Y-83957842D01*
X105547715Y-83967055D01*
X105764883Y-83973661D01*
X105982909Y-83977639D01*
X106201769Y-83978970D01*
X99573707Y-78001708D02*
X99574381Y-78289881D01*
X99576396Y-78579123D01*
X99579737Y-78869402D01*
X99584388Y-79160686D01*
X99590337Y-79452942D01*
X99597567Y-79746137D01*
X99606065Y-80040240D01*
X99615817Y-80335218D01*
X99626808Y-80631038D01*
X99639023Y-80927669D01*
X99652448Y-81225077D01*
X99667069Y-81523231D01*
X99682871Y-81822097D01*
X99699840Y-82121644D01*
X99717961Y-82421839D01*
X99737220Y-82722651D01*
X99573707Y-77974900D02*
X99573707Y-78001708D01*
X99678955Y-73036701D02*
X99658785Y-73351386D01*
X99641352Y-73665470D01*
X99626457Y-73978909D01*
X99613902Y-74291659D01*
X99603490Y-74603675D01*
X99595021Y-74914914D01*
X99588298Y-75225331D01*
X99583124Y-75534884D01*
X99579300Y-75843528D01*
X99576628Y-76151219D01*
X99574910Y-76457914D01*
X99573949Y-76763568D01*
X99573546Y-77068137D01*
X99573503Y-77371578D01*
X99573623Y-77673847D01*
X99573707Y-77974900D01*
X101193526Y-71223332D02*
X100907930Y-71210993D01*
X100661192Y-71247320D01*
X100450145Y-71328527D01*
X100271625Y-71450826D01*
X100122463Y-71610429D01*
X99999495Y-71803551D01*
X99899555Y-72026404D01*
X99819476Y-72275202D01*
X99756092Y-72546157D01*
X99706238Y-72835482D01*
X99678955Y-73036701D01*
X101681933Y-67282551D02*
X101193526Y-71223332D01*
X100669829Y-65156604D02*
X100647008Y-65358369D01*
X100623964Y-65650986D01*
X100618017Y-65929009D01*
X100633301Y-66189559D01*
X100673949Y-66429761D01*
X100744094Y-66646738D01*
X100847868Y-66837612D01*
X100989407Y-66999507D01*
X101172841Y-67129546D01*
X101402306Y-67224853D01*
X101681933Y-67282551D01*
X100931785Y-63662467D02*
X100889544Y-63895772D01*
X100847523Y-64129116D01*
X100805902Y-64362510D01*
X100764863Y-64595968D01*
X100724587Y-64829502D01*
X100685256Y-65063126D01*
X100669829Y-65156604D01*
X106201769Y-62846797D02*
X105852545Y-62850190D01*
X105505489Y-62860316D01*
X105160703Y-62877090D01*
X104818290Y-62900430D01*
X104478353Y-62930254D01*
X104140994Y-62966477D01*
X103806316Y-63009018D01*
X103474421Y-63057793D01*
X103145412Y-63112718D01*
X102819393Y-63173713D01*
X102496464Y-63240692D01*
X102176730Y-63313574D01*
X101860292Y-63392276D01*
X101547253Y-63476713D01*
X101237717Y-63566805D01*
X100931785Y-63662467D01*
X117599437Y-70690892D02*
X117441343Y-70565536D01*
X117300747Y-70535863D01*
X117728628Y-71127041D02*
X117707306Y-70919441D01*
X117629716Y-70731619D01*
X117599437Y-70690892D01*
X117613906Y-71515648D02*
X117706669Y-71327577D01*
X117728628Y-71127041D01*
X117331753Y-71647940D02*
X117528806Y-71590966D01*
X117613906Y-71515648D01*
X117042365Y-71510480D02*
X117209667Y-71628609D01*
X117331753Y-71647940D01*
X116926610Y-71079499D02*
X116945714Y-71292229D01*
X117021678Y-71483334D01*
X117042365Y-71510480D01*
X117033063Y-70662987D02*
X116946985Y-70857342D01*
X116926713Y-71061570D01*
X116926610Y-71079499D01*
X117300747Y-70535863D02*
X117104945Y-70595948D01*
X117033063Y-70662987D01*
X117876939Y-50795810D02*
X117709636Y-50677681D01*
X117587551Y-50658351D01*
X117992695Y-51228859D02*
X117976416Y-51029403D01*
X117904069Y-50832645D01*
X117876939Y-50795810D01*
X117885208Y-51642270D02*
X117972121Y-51449404D01*
X117992590Y-51246659D01*
X117992695Y-51228859D01*
X117616490Y-51768361D02*
X117812780Y-51708763D01*
X117885208Y-51642270D01*
X114724677Y-51326010D02*
X114778897Y-51525834D01*
X114869371Y-51654672D01*
X114162437Y-51394223D02*
X114724677Y-51326010D01*
X114476630Y-52013307D02*
X114329594Y-51851151D01*
X114226968Y-51660534D01*
X114172574Y-51464643D01*
X114162437Y-51394223D01*
X155042113Y-105638285D02*
X155008860Y-105431151D01*
X154924290Y-105291019D01*
X157783375Y-71728555D02*
X157585066Y-71771349D01*
X157493987Y-71838109D01*
X158071730Y-71832941D02*
X157890583Y-71738748D01*
X157783375Y-71728555D01*
X158176116Y-72131631D02*
X158139316Y-71932594D01*
X158071730Y-71832941D01*
X158056227Y-72487165D02*
X158146143Y-72308364D01*
X158176116Y-72131631D01*
X157574602Y-72983259D02*
X157731886Y-72834467D01*
X157876031Y-72692033D01*
X158012213Y-72544283D01*
X158056227Y-72487165D01*
X156921412Y-73709829D02*
X157039936Y-73541625D01*
X157188118Y-73368364D01*
X157350843Y-73198426D01*
X157514883Y-73039146D01*
X157574602Y-72983259D01*
X156722975Y-74289639D02*
X156761344Y-74083101D01*
X156830978Y-73884136D01*
X156921412Y-73709829D01*
X158759026Y-74289639D02*
X156722975Y-74289639D01*
X158759026Y-73750137D02*
X158759026Y-74289639D01*
X156435654Y-73380134D02*
X156412599Y-73595218D01*
X156343435Y-73791663D01*
X156228162Y-73969468D01*
X156144199Y-74060195D01*
X156279591Y-72910912D02*
X156386274Y-73096357D01*
X156431843Y-73296189D01*
X156435654Y-73380134D01*
X155863079Y-72660798D02*
X156057466Y-72729000D01*
X156228272Y-72853573D01*
X156279591Y-72910912D01*
X156299228Y-72024144D02*
X156264727Y-72235795D01*
X156161227Y-72421939D01*
X156011301Y-72565987D01*
X155863079Y-72660798D01*
X156086321Y-71519782D02*
X156207536Y-71680100D01*
X156282386Y-71870592D01*
X156299228Y-72024144D01*
X155400058Y-71246930D02*
X155603404Y-71263983D01*
X155806844Y-71323936D01*
X155983468Y-71427055D01*
X156086321Y-71519782D01*
X154948406Y-71340982D02*
X155148021Y-71273474D01*
X155353588Y-71247756D01*
X155400058Y-71246930D01*
X154634213Y-71599364D02*
X154778994Y-71444596D01*
X154948406Y-71340982D01*
X154465748Y-72038613D02*
X154520475Y-71833493D01*
X154606937Y-71642174D01*
X154634213Y-71599364D01*
X155001116Y-72129564D02*
X154465748Y-72038613D01*
X155129274Y-71827774D02*
X155026518Y-72004373D01*
X155001116Y-72129564D01*
X155383522Y-71724421D02*
X155184696Y-71782557D01*
X155129274Y-71827774D01*
X155625367Y-71815371D02*
X155437999Y-71727618D01*
X155383522Y-71724421D01*
X155716318Y-72059284D02*
X155665158Y-71864722D01*
X155625367Y-71815371D01*
X154331045Y-104110730D02*
X154228289Y-104287329D01*
X154202887Y-104412520D01*
X154585293Y-104007377D02*
X154386467Y-104065513D01*
X154331045Y-104110730D01*
X154827139Y-104098327D02*
X154639771Y-104010574D01*
X154585293Y-104007377D01*
X154918089Y-104342240D02*
X154866929Y-104147678D01*
X154827139Y-104098327D01*
X154794066Y-104630595D02*
X154903433Y-104457449D01*
X154918089Y-104342240D01*
X154434398Y-104732914D02*
X154642137Y-104710434D01*
X154794066Y-104630595D01*
X154370319Y-105206270D02*
X154434398Y-104732914D01*
X154636970Y-105162862D02*
X154436067Y-105189356D01*
X154370319Y-105206270D01*
X154924290Y-105291019D02*
X154756826Y-105180884D01*
X154636970Y-105162862D01*
X107984111Y-42956452D02*
X107985984Y-42957572D01*
X109328667Y-40820041D02*
X109150745Y-41030223D01*
X108992971Y-41234467D01*
X108852085Y-41434119D01*
X108724828Y-41630526D01*
X108607940Y-41825036D01*
X108498162Y-42018995D01*
X108392236Y-42213752D01*
X108286900Y-42410653D01*
X108178897Y-42611046D01*
X108064966Y-42816277D01*
X107984111Y-42956452D01*
X114420411Y-38966063D02*
X114113631Y-38898203D01*
X113798282Y-38857500D01*
X113475873Y-38843386D01*
X113147913Y-38855289D01*
X112815911Y-38892640D01*
X112481376Y-38954869D01*
X112145817Y-39041406D01*
X111810742Y-39151680D01*
X111477661Y-39285123D01*
X111148082Y-39441163D01*
X110823515Y-39619231D01*
X110505469Y-39818757D01*
X110195452Y-40039171D01*
X109894973Y-40279903D01*
X109605542Y-40540383D01*
X109328667Y-40820041D01*
X121751272Y-43456852D02*
X121468074Y-43388247D01*
X121196920Y-43307192D01*
X120936955Y-43214468D01*
X120687323Y-43110859D01*
X120447170Y-42997146D01*
X120215639Y-42874111D01*
X119991876Y-42742538D01*
X119775025Y-42603207D01*
X119564231Y-42456902D01*
X119358638Y-42304404D01*
X119157392Y-42146496D01*
X118959636Y-41983960D01*
X118764516Y-41817578D01*
X118571177Y-41648134D01*
X118378762Y-41476408D01*
X118186416Y-41303183D01*
X117993285Y-41129241D01*
X117798513Y-40955365D01*
X117601245Y-40782338D01*
X117400624Y-40610940D01*
X117195797Y-40441954D01*
X116985908Y-40276164D01*
X116770100Y-40114350D01*
X116547520Y-39957296D01*
X116317311Y-39805783D01*
X116078619Y-39660593D01*
X115830588Y-39522510D01*
X115572362Y-39392315D01*
X115303087Y-39270791D01*
X115021907Y-39158719D01*
X114727967Y-39056882D01*
X114420411Y-38966063D01*
X155637425Y-105663090D02*
X155614370Y-105878174D01*
X155545207Y-106074619D01*
X155429934Y-106252425D01*
X155345970Y-106343152D01*
X155481362Y-105193868D02*
X155588045Y-105379313D01*
X155633614Y-105579146D01*
X155637425Y-105663090D01*
X156583448Y-52185906D02*
X156566279Y-52389981D01*
X156506932Y-52601774D01*
X156405194Y-52797821D01*
X156366407Y-52853566D01*
X156314731Y-51456235D02*
X156444628Y-51627608D01*
X156532013Y-51825471D01*
X156574000Y-52023585D01*
X156583448Y-52185906D01*
X155659474Y-51175115D02*
X155867582Y-51197352D01*
X156057051Y-51264063D01*
X156227880Y-51375248D01*
X156314731Y-51456235D01*
X155262599Y-51272267D02*
X155458969Y-51199403D01*
X155659474Y-51175115D01*
X155353549Y-50757570D02*
X155262599Y-51272267D01*
X156449090Y-50757570D02*
X155353549Y-50757570D01*
X156449090Y-50213933D02*
X156449090Y-50757570D01*
X154913266Y-50213933D02*
X156449090Y-50213933D01*
X154615610Y-51791098D02*
X154913266Y-50213933D01*
X155086899Y-51859311D02*
X154615610Y-51791098D01*
X149243350Y-112519777D02*
X149526547Y-112588379D01*
X149797701Y-112669433D01*
X150057666Y-112762155D01*
X150307298Y-112865763D01*
X150547451Y-112979475D01*
X150778982Y-113102509D01*
X151002745Y-113234082D01*
X151219596Y-113373412D01*
X151430390Y-113519717D01*
X151635983Y-113672214D01*
X151837229Y-113830122D01*
X152034985Y-113992658D01*
X152230105Y-114159039D01*
X152423444Y-114328484D01*
X152615859Y-114500210D01*
X152808205Y-114673435D01*
X153001336Y-114847377D01*
X153196108Y-115021252D01*
X153393376Y-115194280D01*
X153593997Y-115365678D01*
X153798824Y-115534663D01*
X154008713Y-115700454D01*
X154224521Y-115862267D01*
X154447101Y-116019321D01*
X154677310Y-116170833D01*
X154916002Y-116316022D01*
X155164033Y-116454104D01*
X155422259Y-116584298D01*
X155691534Y-116705822D01*
X155972714Y-116817892D01*
X156266654Y-116919727D01*
X156574211Y-117010545D01*
X148258504Y-112406347D02*
X148482694Y-112413243D01*
X148690188Y-112430225D01*
X148909118Y-112458378D01*
X149106500Y-112492089D01*
X149243350Y-112519777D01*
X115979898Y-102362947D02*
X115877142Y-102539546D01*
X115851740Y-102664737D01*
X116234146Y-102259594D02*
X116035320Y-102317730D01*
X115979898Y-102362947D01*
X116475991Y-102350544D02*
X116288623Y-102262791D01*
X116234146Y-102259594D01*
X116566942Y-102594457D02*
X116515782Y-102399895D01*
X116475991Y-102350544D01*
X116442918Y-102882812D02*
X116552286Y-102709666D01*
X116566942Y-102594457D01*
X116083250Y-102985131D02*
X116290989Y-102962651D01*
X116442918Y-102882812D01*
X116019172Y-103458487D02*
X116083250Y-102985131D01*
X116285822Y-103415079D02*
X116084920Y-103441573D01*
X116019172Y-103458487D01*
X116573143Y-103543236D02*
X116405679Y-103433101D01*
X116285822Y-103415079D01*
X116690965Y-103890502D02*
X116657712Y-103683368D01*
X116573143Y-103543236D01*
X116567975Y-104258438D02*
X116667424Y-104074873D01*
X116690965Y-103890502D01*
X108202099Y-110594098D02*
X107954261Y-110736562D01*
X107765296Y-110899331D01*
X107630502Y-111080900D01*
X107545177Y-111279765D01*
X107504621Y-111494424D01*
X107504132Y-111723372D01*
X107539008Y-111965105D01*
X107604548Y-112218120D01*
X107696052Y-112480914D01*
X107808816Y-112751981D01*
X107893483Y-112936548D01*
X106505153Y-107004007D02*
X108202099Y-110594098D01*
X104568083Y-105729666D02*
X104656185Y-105912534D01*
X104790321Y-106173143D01*
X104929062Y-106413012D01*
X105074910Y-106627297D01*
X105230370Y-106811154D01*
X105397945Y-106959738D01*
X105580138Y-107068205D01*
X105779451Y-107131710D01*
X105998390Y-107145408D01*
X106239455Y-107104455D01*
X106505153Y-107004007D01*
X153055886Y-75220827D02*
X153073663Y-75764557D01*
X153126424Y-76301149D01*
X153213308Y-76829939D01*
X153333459Y-77350264D01*
X153486018Y-77861459D01*
X153670125Y-78362860D01*
X153884923Y-78853804D01*
X154129554Y-79333627D01*
X154403158Y-79801665D01*
X154704877Y-80257254D01*
X155033853Y-80699730D01*
X155389228Y-81128429D01*
X155770142Y-81542688D01*
X156175739Y-81941842D01*
X156605158Y-82325227D01*
X157057542Y-82692181D01*
X157532032Y-83042038D01*
X158027769Y-83374135D01*
X158543896Y-83687808D01*
X159079554Y-83982393D01*
X159633885Y-84257227D01*
X160206029Y-84511645D01*
X160795129Y-84744983D01*
X161400325Y-84956578D01*
X162020761Y-85145766D01*
X162655576Y-85311883D01*
X163303914Y-85454265D01*
X163964914Y-85572248D01*
X164637720Y-85665168D01*
X165321472Y-85732361D01*
X166015311Y-85773164D01*
X166718381Y-85786913D01*
X115979898Y-104281176D02*
X116155904Y-104381430D01*
X116265151Y-104394864D01*
X115835204Y-103952514D02*
X115889423Y-104152338D01*
X115979898Y-104281176D01*
X115272964Y-104020727D02*
X115835204Y-103952514D01*
X169092827Y-59020007D02*
X169023273Y-58730000D01*
X168952776Y-58440553D01*
X168881335Y-58151689D01*
X168808951Y-57863434D01*
X168735626Y-57575811D01*
X168661359Y-57288846D01*
X168586153Y-57002562D01*
X168510007Y-56716984D01*
X168432923Y-56432137D01*
X168354902Y-56148044D01*
X168275943Y-55864731D01*
X168196049Y-55582221D01*
X168115219Y-55300540D01*
X168033456Y-55019712D01*
X167950758Y-54739760D01*
X167867129Y-54460710D01*
X167782567Y-54182586D01*
X167697075Y-53905413D01*
X167610652Y-53629214D01*
X167523300Y-53354015D01*
X167435020Y-53079839D01*
X167345812Y-52806712D01*
X167255677Y-52534657D01*
X167164616Y-52263699D01*
X167072630Y-51993863D01*
X166979720Y-51725172D01*
X166885886Y-51457652D01*
X166791130Y-51191327D01*
X166695452Y-50926221D01*
X166598853Y-50662359D01*
X166501334Y-50399765D01*
X166402896Y-50138464D01*
X115158759Y-52249985D02*
X114938496Y-52231263D01*
X114740470Y-52175098D01*
X114546522Y-52068778D01*
X114476630Y-52013307D01*
X115884296Y-51968865D02*
X115709070Y-52104757D01*
X115511281Y-52196176D01*
X115290927Y-52243121D01*
X115158759Y-52249985D01*
X122948572Y-43560550D02*
X122717079Y-43567291D01*
X122506395Y-43561346D01*
X122283196Y-43543294D01*
X122046351Y-43511919D01*
X121837737Y-43474717D01*
X121751272Y-43456852D01*
X169801096Y-71223332D02*
X169312689Y-67282551D01*
X171315667Y-73036701D02*
X171288383Y-72835482D01*
X171238529Y-72546157D01*
X171175145Y-72275202D01*
X171095066Y-72026404D01*
X170995126Y-71803551D01*
X170872158Y-71610429D01*
X170722996Y-71450826D01*
X170544476Y-71328527D01*
X170333429Y-71247320D01*
X170086691Y-71210993D01*
X169801096Y-71223332D01*
X151848509Y-104412520D02*
X151313141Y-104321570D01*
X151976667Y-104110730D02*
X151873911Y-104287329D01*
X151848509Y-104412520D01*
X152230915Y-104007377D02*
X152032089Y-104065513D01*
X151976667Y-104110730D01*
X152472761Y-104098327D02*
X152285393Y-104010574D01*
X152230915Y-104007377D01*
X152563711Y-104342240D02*
X152512551Y-104147678D01*
X152472761Y-104098327D01*
X152439688Y-104630595D02*
X152549055Y-104457449D01*
X152563711Y-104342240D01*
X152080020Y-104732914D02*
X152287758Y-104710434D01*
X152439688Y-104630595D01*
X152015941Y-105206270D02*
X152080020Y-104732914D01*
X152282591Y-105162862D02*
X152081689Y-105189356D01*
X152015941Y-105206270D01*
X152569912Y-105291019D02*
X152402448Y-105180884D01*
X152282591Y-105162862D01*
X152687734Y-105638285D02*
X152654481Y-105431151D01*
X152569912Y-105291019D01*
X155418662Y-74341315D02*
X155198399Y-74322593D01*
X155000373Y-74266428D01*
X154806425Y-74160108D01*
X154736533Y-74104637D01*
X161665955Y-115156567D02*
X161830580Y-114989182D01*
X161983762Y-114817576D01*
X162127308Y-114640293D01*
X162263024Y-114455876D01*
X162392718Y-114262867D01*
X162518197Y-114059810D01*
X162641269Y-113845249D01*
X162763740Y-113617725D01*
X162887418Y-113375783D01*
X163014110Y-113117965D01*
X163101138Y-112936548D01*
X156574211Y-117010545D02*
X156880990Y-117078401D01*
X157196339Y-117119100D01*
X157518748Y-117133213D01*
X157846708Y-117121308D01*
X158178710Y-117083957D01*
X158513245Y-117021728D01*
X158848804Y-116935192D01*
X159183879Y-116824919D01*
X159516960Y-116691477D01*
X159846539Y-116535438D01*
X160171106Y-116357372D01*
X160489152Y-116157847D01*
X160799169Y-115937434D01*
X161099648Y-115696703D01*
X161389079Y-115436224D01*
X161665955Y-115156567D01*
X152564745Y-106006221D02*
X152664193Y-105822656D01*
X152687734Y-105638285D01*
X152261921Y-106142647D02*
X152464508Y-106089355D01*
X152564745Y-106006221D01*
X170324793Y-65156604D02*
X170301625Y-65024442D01*
X169312689Y-67282551D02*
X169592315Y-67224853D01*
X169821779Y-67129546D01*
X170005214Y-66999507D01*
X170146752Y-66837612D01*
X170250527Y-66646738D01*
X170320672Y-66429761D01*
X170361320Y-66189559D01*
X170376604Y-65929009D01*
X170370657Y-65650986D01*
X170347613Y-65358369D01*
X170324793Y-65156604D01*
X151041216Y-47673477D02*
X151055113Y-48480729D01*
X151096359Y-49277384D01*
X151164281Y-50062456D01*
X151258210Y-50834960D01*
X151377473Y-51593910D01*
X151521399Y-52338320D01*
X151689319Y-53067205D01*
X151880559Y-53779578D01*
X152094450Y-54474455D01*
X152330320Y-55150850D01*
X152587498Y-55807776D01*
X152865314Y-56444249D01*
X153163095Y-57059282D01*
X153480171Y-57651891D01*
X153815871Y-58221088D01*
X154169523Y-58765890D01*
X154540457Y-59285309D01*
X154928002Y-59778361D01*
X155331486Y-60244060D01*
X155750238Y-60681420D01*
X156183588Y-61089455D01*
X156630864Y-61467180D01*
X157091394Y-61813609D01*
X157564509Y-62127757D01*
X158049536Y-62408637D01*
X158545805Y-62655265D01*
X159052645Y-62866654D01*
X159569384Y-63041819D01*
X160095352Y-63179774D01*
X160629877Y-63279534D01*
X161172289Y-63340113D01*
X161721916Y-63360525D01*
X151695547Y-42256581D02*
X151618487Y-42574736D01*
X151545979Y-42895999D01*
X151478080Y-43220286D01*
X151414848Y-43547514D01*
X151356341Y-43877600D01*
X151302617Y-44210462D01*
X151253734Y-44546015D01*
X151209750Y-44884179D01*
X151170724Y-45224869D01*
X151136713Y-45568002D01*
X151107775Y-45913497D01*
X151083968Y-46261269D01*
X151065351Y-46611236D01*
X151051981Y-46963315D01*
X151043917Y-47317422D01*
X151041216Y-47673477D01*
X155064850Y-104943754D02*
X155259237Y-105011956D01*
X155430044Y-105136529D01*
X155481362Y-105193868D01*
X114972724Y-50358627D02*
X115180463Y-50336148D01*
X115332392Y-50256308D01*
X114908645Y-50831984D02*
X114972724Y-50358627D01*
X115580439Y-51263999D02*
X115547186Y-51056864D01*
X115462616Y-50916733D01*
X115457449Y-51631935D02*
X115556897Y-51448370D01*
X115580439Y-51263999D01*
X115154625Y-51768361D02*
X115357212Y-51715069D01*
X115457449Y-51631935D01*
X114869371Y-51654672D02*
X115045377Y-51754926D01*
X115154625Y-51768361D01*
X155288093Y-103802738D02*
X155409307Y-103963056D01*
X155484157Y-104153548D01*
X155500999Y-104307100D01*
X115587157Y-104639810D02*
X115440121Y-104477655D01*
X115337495Y-104287038D01*
X115283101Y-104091147D01*
X115272964Y-104020727D01*
X116269286Y-104876488D02*
X116049023Y-104857766D01*
X115850997Y-104801601D01*
X115657049Y-104695281D01*
X115587157Y-104639810D01*
X116994823Y-104595369D02*
X116819597Y-104731261D01*
X116621807Y-104822680D01*
X116401454Y-104869624D01*
X116269286Y-104876488D01*
X121549067Y-112574339D02*
X121623498Y-111599692D01*
X121663718Y-110632995D01*
X121670221Y-109675371D01*
X121643504Y-108727941D01*
X121584063Y-107791830D01*
X121492392Y-106868159D01*
X121368990Y-105958052D01*
X121214350Y-105062631D01*
X121028970Y-104183019D01*
X120813345Y-103320339D01*
X120567971Y-102475713D01*
X120293344Y-101650264D01*
X119989960Y-100845116D01*
X119658315Y-100061391D01*
X119298905Y-99300211D01*
X118912225Y-98562699D01*
X118498772Y-97849979D01*
X118059042Y-97163173D01*
X117593531Y-96503403D01*
X117102734Y-95871793D01*
X116587148Y-95269465D01*
X116047268Y-94697543D01*
X115483590Y-94157148D01*
X114896611Y-93649403D01*
X114286825Y-93175433D01*
X113654730Y-92736358D01*
X113000821Y-92333302D01*
X112325594Y-91967388D01*
X111629545Y-91639738D01*
X110913170Y-91351476D01*
X110176965Y-91103723D01*
X109421426Y-90897604D01*
X114420411Y-117010545D02*
X114721125Y-116921939D01*
X115008850Y-116822826D01*
X115284382Y-116713936D01*
X115548517Y-116595995D01*
X115802051Y-116469732D01*
X116045779Y-116335873D01*
X116280498Y-116195148D01*
X116507005Y-116048284D01*
X116726094Y-115896009D01*
X116938563Y-115739051D01*
X117145207Y-115578138D01*
X117346823Y-115413996D01*
X117544205Y-115247356D01*
X117738152Y-115078944D01*
X117929458Y-114909487D01*
X118118919Y-114739715D01*
X118307332Y-114570355D01*
X118495493Y-114402135D01*
X118684198Y-114235782D01*
X118874243Y-114072025D01*
X119066424Y-113911591D01*
X119261537Y-113755209D01*
X119460378Y-113603606D01*
X119663743Y-113457509D01*
X119872429Y-113317648D01*
X120087231Y-113184750D01*
X120308945Y-113059542D01*
X120538368Y-112942753D01*
X120776296Y-112835110D01*
X121023524Y-112737341D01*
X121280849Y-112650175D01*
X121549067Y-112574339D01*
X109328667Y-115156567D02*
X109605542Y-115436224D01*
X109894973Y-115696703D01*
X110195452Y-115937434D01*
X110505469Y-116157847D01*
X110823515Y-116357372D01*
X111148082Y-116535438D01*
X111477661Y-116691477D01*
X111810742Y-116824919D01*
X112145817Y-116935192D01*
X112481376Y-117021728D01*
X112815911Y-117083957D01*
X113147913Y-117121308D01*
X113475873Y-117133213D01*
X113798282Y-117119100D01*
X114113631Y-117078401D01*
X114420411Y-117010545D01*
X107893483Y-112936548D02*
X107980511Y-113117965D01*
X108107203Y-113375783D01*
X108230881Y-113617725D01*
X108353352Y-113845249D01*
X108476423Y-114059810D01*
X108601903Y-114262867D01*
X108731597Y-114455876D01*
X108867313Y-114640293D01*
X109010859Y-114817576D01*
X109164041Y-114989182D01*
X109328667Y-115156567D01*
X117318834Y-51614365D02*
X117477108Y-51738885D01*
X117616490Y-51768361D01*
X154601830Y-103529887D02*
X154805176Y-103546940D01*
X155008615Y-103606892D01*
X155185240Y-103710011D01*
X155288093Y-103802738D01*
X154150178Y-103623938D02*
X154349792Y-103556430D01*
X154555360Y-103530713D01*
X154601830Y-103529887D01*
X152868947Y-52659262D02*
X153044953Y-52759516D01*
X153154200Y-52772950D01*
X152724252Y-52330600D02*
X152778472Y-52530424D01*
X152868947Y-52659262D01*
X148846453Y-109193064D02*
X148798418Y-109394971D01*
X148751944Y-109596773D01*
X148707017Y-109798460D01*
X148663627Y-110000026D01*
X148621761Y-110201461D01*
X148581408Y-110402758D01*
X148542557Y-110603909D01*
X148505194Y-110804905D01*
X148469309Y-111005739D01*
X148434891Y-111206402D01*
X148401926Y-111406887D01*
X148370403Y-111607184D01*
X148340312Y-111807287D01*
X148311639Y-112007187D01*
X148284374Y-112206876D01*
X148258504Y-112406347D01*
X157605608Y-73750137D02*
X158759026Y-73750137D01*
X100806341Y-91608220D02*
X100887512Y-92069107D01*
X100971135Y-92529612D01*
X101057198Y-92989647D01*
X101145691Y-93449123D01*
X101236605Y-93907954D01*
X101329927Y-94366049D01*
X101425648Y-94823322D01*
X101523759Y-95279683D01*
X101624247Y-95735045D01*
X101727104Y-96189319D01*
X101832318Y-96642418D01*
X101939879Y-97094252D01*
X102049778Y-97544735D01*
X102162002Y-97993777D01*
X102276543Y-98441290D01*
X102393390Y-98887187D01*
X102512533Y-99331378D01*
X102633960Y-99773776D01*
X102757662Y-100214293D01*
X102883629Y-100652840D01*
X103011850Y-101089330D01*
X103142314Y-101523673D01*
X103275012Y-101955782D01*
X103409933Y-102385568D01*
X103547066Y-102812944D01*
X103686402Y-103237821D01*
X103827929Y-103660111D01*
X103971638Y-104079725D01*
X104117518Y-104496576D01*
X104265559Y-104910575D01*
X104415751Y-105321634D01*
X104568083Y-105729666D01*
X109421426Y-90897604D02*
X109150397Y-90835048D01*
X108879061Y-90778305D01*
X108607461Y-90727340D01*
X108335639Y-90682119D01*
X108063637Y-90642608D01*
X107791497Y-90608772D01*
X107519262Y-90580576D01*
X107246975Y-90557987D01*
X106974677Y-90540969D01*
X106702411Y-90529489D01*
X106430219Y-90523512D01*
X106158144Y-90523003D01*
X105886227Y-90527928D01*
X105614512Y-90538253D01*
X105343041Y-90553944D01*
X105071856Y-90574965D01*
X104800999Y-90601283D01*
X104530512Y-90632863D01*
X104260439Y-90669670D01*
X103990821Y-90711671D01*
X103721701Y-90758830D01*
X103453121Y-90811114D01*
X103185123Y-90868488D01*
X102917750Y-90930917D01*
X102651045Y-90998367D01*
X102385048Y-91070804D01*
X102119804Y-91148194D01*
X101855353Y-91230501D01*
X101591740Y-91317691D01*
X101329005Y-91409731D01*
X101067191Y-91506585D01*
X100806341Y-91608220D01*
X118090363Y-103704467D02*
X118786961Y-103704467D01*
X118786961Y-102668871D02*
X118090363Y-103704467D01*
X118786961Y-103704467D02*
X118786961Y-102668871D01*
X118379751Y-71583861D02*
X118374938Y-71784365D01*
X118355388Y-72014648D01*
X118320799Y-72222323D01*
X118259441Y-72441689D01*
X118176428Y-72628499D01*
X118071760Y-72782754D01*
X164396968Y-48890069D02*
X162700000Y-45300000D01*
X115365465Y-49724041D02*
X115178097Y-49636287D01*
X115123619Y-49633090D01*
X115456415Y-49967954D02*
X115405255Y-49773392D01*
X115365465Y-49724041D01*
X166426538Y-105729666D02*
X166581573Y-105314304D01*
X166734387Y-104895806D01*
X166884968Y-104474265D01*
X167033304Y-104049774D01*
X167179387Y-103622426D01*
X167323205Y-103192315D01*
X167464747Y-102759532D01*
X167604003Y-102324171D01*
X167740962Y-101886326D01*
X167875614Y-101446089D01*
X168007947Y-101003553D01*
X168137952Y-100558812D01*
X168265618Y-100111958D01*
X168390934Y-99663085D01*
X168513889Y-99212285D01*
X168634473Y-98759651D01*
X168752675Y-98305277D01*
X168868484Y-97849256D01*
X168981891Y-97391680D01*
X169092883Y-96932643D01*
X169201452Y-96472238D01*
X169307585Y-96010558D01*
X169411273Y-95547695D01*
X169512505Y-95083744D01*
X169611269Y-94618796D01*
X169707557Y-94152945D01*
X169801356Y-93686285D01*
X169892656Y-93218907D01*
X169981447Y-92750906D01*
X170067718Y-92282373D01*
X170151458Y-91813403D01*
X170232658Y-91344089D01*
X164489469Y-107004007D02*
X164755165Y-107104455D01*
X164996231Y-107145408D01*
X165215169Y-107131710D01*
X165414483Y-107068205D01*
X165596675Y-106959738D01*
X165764250Y-106811154D01*
X165919710Y-106627297D01*
X166065559Y-106413012D01*
X166204300Y-106173143D01*
X166338436Y-105912534D01*
X166426538Y-105729666D01*
X162792523Y-110594098D02*
X164489469Y-107004007D01*
X163101138Y-112936548D02*
X163185804Y-112751981D01*
X163298569Y-112480914D01*
X163390072Y-112218120D01*
X163455612Y-111965105D01*
X163490489Y-111723372D01*
X163489999Y-111494424D01*
X163449443Y-111279765D01*
X163364119Y-111080900D01*
X163229325Y-110899331D01*
X163040360Y-110736562D01*
X162792523Y-110594098D01*
X154736533Y-74104637D02*
X154589497Y-73942482D01*
X154486871Y-73751864D01*
X154432477Y-73555973D01*
X154422340Y-73485553D01*
X162700000Y-45300000D02*
X162947842Y-45157540D01*
X163136810Y-44994774D01*
X163271606Y-44813207D01*
X163356931Y-44614342D01*
X163397488Y-44399684D01*
X163397977Y-44170736D01*
X163363101Y-43929003D01*
X163297562Y-43675989D01*
X163206061Y-43413198D01*
X163093300Y-43142134D01*
X163008638Y-42957572D01*
D12*
%TO.C,U5*%
X157964330Y-49761197D02*
X158319202Y-50488792D01*
X158403751Y-50553517D01*
X158467425Y-50575442D01*
X158573900Y-50576492D01*
X158745099Y-50492992D01*
X158809823Y-50408443D01*
X158831748Y-50344768D01*
X158832798Y-50238294D01*
X158477926Y-49510699D01*
X159333921Y-49093203D02*
X158905923Y-49301951D01*
X159071872Y-49750823D01*
X159093797Y-49687148D01*
X159158521Y-49602599D01*
X159372520Y-49498225D01*
X159478994Y-49499275D01*
X159542669Y-49521200D01*
X159627218Y-49585924D01*
X159731592Y-49799923D01*
X159730542Y-49906397D01*
X159708617Y-49970072D01*
X159643893Y-50054621D01*
X159429894Y-50158995D01*
X159323420Y-50157945D01*
X159259745Y-50136020D01*
%TO.C,J1*%
X98005928Y-53941629D02*
X98695875Y-54126499D01*
X98821540Y-54209470D01*
X98888883Y-54326112D01*
X98897906Y-54476426D01*
X98873256Y-54568419D01*
X99230673Y-53234522D02*
X99082776Y-53786479D01*
X99156725Y-53510501D02*
X98190799Y-53251682D01*
X98304139Y-53380649D01*
X98371482Y-53497291D01*
X98392829Y-53601609D01*
%TO.C,J2*%
X94432380Y-78223333D02*
X95146666Y-78223333D01*
X95289523Y-78270952D01*
X95384761Y-78366190D01*
X95432380Y-78509047D01*
X95432380Y-78604285D01*
X94527619Y-77794761D02*
X94480000Y-77747142D01*
X94432380Y-77651904D01*
X94432380Y-77413809D01*
X94480000Y-77318571D01*
X94527619Y-77270952D01*
X94622857Y-77223333D01*
X94718095Y-77223333D01*
X94860952Y-77270952D01*
X95432380Y-77842380D01*
X95432380Y-77223333D01*
%TO.C,J3*%
X98214969Y-102649729D02*
X98904916Y-102464858D01*
X99055230Y-102473881D01*
X99171873Y-102541224D01*
X99254843Y-102666889D01*
X99279493Y-102758882D01*
X98116371Y-102281757D02*
X97956150Y-101683803D01*
X98410395Y-101907181D01*
X98373421Y-101769191D01*
X98394768Y-101664874D01*
X98428439Y-101606552D01*
X98508108Y-101535907D01*
X98738090Y-101474283D01*
X98842408Y-101495630D01*
X98900729Y-101529302D01*
X98971375Y-101608970D01*
X99045323Y-101884949D01*
X99023976Y-101989266D01*
X98990304Y-102047588D01*
%TO.C,J4*%
X172775030Y-53270270D02*
X172085083Y-53455141D01*
X171934769Y-53446118D01*
X171818126Y-53378775D01*
X171735156Y-53253110D01*
X171710506Y-53161117D01*
X172687224Y-54230476D02*
X172043274Y-54403022D01*
X172993572Y-53901896D02*
X172242002Y-53856784D01*
X172402223Y-54454738D01*
%TO.C,J5*%
X176547619Y-77586666D02*
X175833333Y-77586666D01*
X175690476Y-77539047D01*
X175595238Y-77443809D01*
X175547619Y-77300952D01*
X175547619Y-77205714D01*
X176547619Y-78539047D02*
X176547619Y-78062857D01*
X176071428Y-78015238D01*
X176119047Y-78062857D01*
X176166666Y-78158095D01*
X176166666Y-78396190D01*
X176119047Y-78491428D01*
X176071428Y-78539047D01*
X175976190Y-78586666D01*
X175738095Y-78586666D01*
X175642857Y-78539047D01*
X175595238Y-78491428D01*
X175547619Y-78396190D01*
X175547619Y-78158095D01*
X175595238Y-78062857D01*
X175642857Y-78015238D01*
%TO.C,J6*%
X172904071Y-102088370D02*
X172214124Y-101903500D01*
X172088459Y-101820529D01*
X172021116Y-101703887D01*
X172012093Y-101553573D01*
X172036743Y-101461580D01*
X172669901Y-102962303D02*
X172719200Y-102778317D01*
X172697853Y-102674000D01*
X172664181Y-102615679D01*
X172550841Y-102486712D01*
X172379180Y-102391416D01*
X172011208Y-102292818D01*
X171906891Y-102314166D01*
X171848570Y-102347837D01*
X171777924Y-102427506D01*
X171728625Y-102611491D01*
X171749972Y-102715809D01*
X171783644Y-102774130D01*
X171863312Y-102844776D01*
X172093294Y-102906400D01*
X172197612Y-102885053D01*
X172255933Y-102851381D01*
X172326579Y-102771713D01*
X172375878Y-102587727D01*
X172354531Y-102483409D01*
X172320859Y-102425088D01*
X172241191Y-102354442D01*
%TO.C,U2*%
X112773921Y-49856796D02*
X113128792Y-49129201D01*
X113127742Y-49022727D01*
X113105817Y-48959052D01*
X113041093Y-48874503D01*
X112869894Y-48791004D01*
X112763420Y-48792054D01*
X112699745Y-48813979D01*
X112615196Y-48878703D01*
X112260324Y-49606299D01*
X111916876Y-49332826D02*
X111853202Y-49354751D01*
X111746727Y-49355801D01*
X111532729Y-49251427D01*
X111468004Y-49166877D01*
X111446079Y-49103203D01*
X111445029Y-48996728D01*
X111486779Y-48911129D01*
X111592203Y-48803605D01*
X112356297Y-48540506D01*
X111799901Y-48269133D01*
%TO.C,U3*%
X107374855Y-69853842D02*
X107445409Y-69047399D01*
X107406272Y-68948373D01*
X107362985Y-68896785D01*
X107272259Y-68841046D01*
X107082508Y-68824445D01*
X106983482Y-68863582D01*
X106931894Y-68906870D01*
X106876155Y-68997595D01*
X106805601Y-69804039D01*
X106426098Y-69770837D02*
X105809406Y-69716883D01*
X106174673Y-69366432D01*
X106032360Y-69353981D01*
X105941634Y-69298243D01*
X105898347Y-69246655D01*
X105859209Y-69147629D01*
X105879961Y-68910440D01*
X105935699Y-68819714D01*
X105987287Y-68776427D01*
X106086313Y-68737289D01*
X106370940Y-68762191D01*
X106461666Y-68817929D01*
X106504953Y-68869518D01*
%TO.C,U4*%
X110885958Y-105862403D02*
X111240830Y-106589998D01*
X111325379Y-106654723D01*
X111389053Y-106676648D01*
X111495528Y-106677698D01*
X111666727Y-106594198D01*
X111731451Y-106509649D01*
X111753376Y-106445974D01*
X111754426Y-106339500D01*
X111399554Y-105611905D01*
X112358873Y-105514882D02*
X112651120Y-106114078D01*
X111977875Y-105276858D02*
X112076999Y-106023228D01*
X112633395Y-105751855D01*
%TO.C,U6*%
X163376844Y-69758966D02*
X163447399Y-70565409D01*
X163503137Y-70656134D01*
X163554725Y-70699422D01*
X163653751Y-70738559D01*
X163843502Y-70721958D01*
X163934228Y-70666220D01*
X163977515Y-70614632D01*
X164016653Y-70515606D01*
X163946098Y-69709162D01*
X164847417Y-69630307D02*
X164657666Y-69646908D01*
X164566940Y-69702647D01*
X164523653Y-69754235D01*
X164441228Y-69904849D01*
X164410391Y-70098751D01*
X164443593Y-70478253D01*
X164499332Y-70568979D01*
X164550920Y-70612266D01*
X164649946Y-70651404D01*
X164839697Y-70634802D01*
X164930422Y-70579064D01*
X164973710Y-70527476D01*
X165012847Y-70428450D01*
X164992096Y-70191261D01*
X164936358Y-70100535D01*
X164884769Y-70057248D01*
X164785743Y-70018110D01*
X164595992Y-70034712D01*
X164505267Y-70090450D01*
X164461979Y-70142038D01*
X164422842Y-70241064D01*
%TO.C,U7*%
X159015549Y-107775590D02*
X159370420Y-107047995D01*
X159369370Y-106941521D01*
X159347445Y-106877846D01*
X159282721Y-106793297D01*
X159111522Y-106709798D01*
X159005048Y-106710848D01*
X158941373Y-106732773D01*
X158856824Y-106797497D01*
X158501952Y-107525093D01*
X158159554Y-107358094D02*
X157560358Y-107065847D01*
X158383927Y-106354926D01*
%TO.C,U8*%
X130688966Y-48713155D02*
X131495409Y-48642600D01*
X131586134Y-48586862D01*
X131629422Y-48535274D01*
X131668559Y-48436248D01*
X131651958Y-48246497D01*
X131596220Y-48155771D01*
X131544632Y-48112484D01*
X131445606Y-48073346D01*
X130639162Y-48143901D01*
X131012149Y-47489857D02*
X130973012Y-47588883D01*
X130929725Y-47640471D01*
X130838999Y-47696209D01*
X130791561Y-47700359D01*
X130692535Y-47661222D01*
X130640947Y-47617934D01*
X130585209Y-47527209D01*
X130568608Y-47337458D01*
X130607745Y-47238432D01*
X130651033Y-47186844D01*
X130741758Y-47131105D01*
X130789196Y-47126955D01*
X130888222Y-47166092D01*
X130939810Y-47209380D01*
X130995548Y-47300105D01*
X131012149Y-47489857D01*
X131067888Y-47580582D01*
X131119476Y-47623870D01*
X131218502Y-47663007D01*
X131408253Y-47646406D01*
X131498979Y-47590667D01*
X131542266Y-47539079D01*
X131581404Y-47440053D01*
X131564802Y-47250302D01*
X131509064Y-47159577D01*
X131457476Y-47116289D01*
X131358450Y-47077152D01*
X131168699Y-47093753D01*
X131077973Y-47149491D01*
X131034686Y-47201079D01*
X130995548Y-47300105D01*
%TO.C,U9*%
X129549963Y-108647699D02*
X130356406Y-108718253D01*
X130455432Y-108679116D01*
X130507020Y-108635829D01*
X130562759Y-108545103D01*
X130579360Y-108355352D01*
X130540223Y-108256326D01*
X130496935Y-108204738D01*
X130406210Y-108148999D01*
X129599766Y-108078445D01*
X130641614Y-107643784D02*
X130658215Y-107454033D01*
X130619078Y-107355007D01*
X130575790Y-107303419D01*
X130441777Y-107196092D01*
X130256176Y-107132053D01*
X129876673Y-107098851D01*
X129777647Y-107137988D01*
X129726059Y-107181276D01*
X129670321Y-107272001D01*
X129653720Y-107461753D01*
X129692857Y-107560779D01*
X129736145Y-107612367D01*
X129826870Y-107668105D01*
X130064059Y-107688857D01*
X130163085Y-107649719D01*
X130214673Y-107606432D01*
X130270412Y-107515706D01*
X130287013Y-107325955D01*
X130247876Y-107226929D01*
X130204588Y-107175341D01*
X130113863Y-107119602D01*
%TO.C,U10*%
X139954654Y-49179233D02*
X140761098Y-49249788D01*
X140860123Y-49210651D01*
X140911712Y-49167363D01*
X140967450Y-49076638D01*
X140984051Y-48886886D01*
X140944914Y-48787860D01*
X140901626Y-48736272D01*
X140810901Y-48680534D01*
X140004457Y-48609979D01*
X141087808Y-47700940D02*
X141038005Y-48270194D01*
X141062906Y-47985567D02*
X140066712Y-47898412D01*
X140200725Y-48005738D01*
X140287300Y-48108914D01*
X140326437Y-48207940D01*
X140145567Y-46997092D02*
X140153867Y-46902217D01*
X140209606Y-46811491D01*
X140261194Y-46768204D01*
X140360220Y-46729067D01*
X140554121Y-46698230D01*
X140791311Y-46718981D01*
X140976912Y-46783020D01*
X141067637Y-46838758D01*
X141110925Y-46890347D01*
X141150062Y-46989373D01*
X141141761Y-47084248D01*
X141086023Y-47174974D01*
X141034435Y-47218261D01*
X140935409Y-47257399D01*
X140741507Y-47288235D01*
X140504318Y-47267484D01*
X140318717Y-47203445D01*
X140227992Y-47147707D01*
X140184704Y-47096118D01*
X140145567Y-46997092D01*
%TO.C,U11*%
X139204274Y-109304690D02*
X140010718Y-109234135D01*
X140101443Y-109178397D01*
X140144731Y-109126808D01*
X140183868Y-109027782D01*
X140167267Y-108838031D01*
X140111529Y-108747306D01*
X140059940Y-108704018D01*
X139960914Y-108664881D01*
X139154471Y-108735435D01*
X140063510Y-107652085D02*
X140113313Y-108221339D01*
X140088412Y-107936712D02*
X139092217Y-108023868D01*
X139242831Y-108106293D01*
X139346007Y-108192868D01*
X139401746Y-108283593D01*
X139980505Y-106703328D02*
X140030308Y-107272582D01*
X140005406Y-106987955D02*
X139009212Y-107075111D01*
X139159826Y-107157536D01*
X139263002Y-107244111D01*
X139318740Y-107334836D01*
D13*
%TO.C,C1*%
X121530000Y-46460000D02*
X121530000Y-45560000D01*
X121980000Y-46010000D02*
X121080000Y-46010000D01*
X117199000Y-46175000D02*
X117199000Y-45845000D01*
X117239000Y-46425000D02*
X117239000Y-45595000D01*
X117279000Y-46577000D02*
X117279000Y-45443000D01*
X117319000Y-46696000D02*
X117319000Y-45324000D01*
X117359000Y-46796000D02*
X117359000Y-45224000D01*
X117399000Y-46884000D02*
X117399000Y-45136000D01*
X117439000Y-46962000D02*
X117439000Y-45058000D01*
X117479000Y-47033000D02*
X117479000Y-44987000D01*
X117519000Y-45230000D02*
X117519000Y-44922000D01*
X117519000Y-47098000D02*
X117519000Y-46790000D01*
X117559000Y-45230000D02*
X117559000Y-44862000D01*
X117559000Y-47158000D02*
X117559000Y-46790000D01*
X117599000Y-45230000D02*
X117599000Y-44806000D01*
X117599000Y-47214000D02*
X117599000Y-46790000D01*
X117639000Y-45230000D02*
X117639000Y-44754000D01*
X117639000Y-47266000D02*
X117639000Y-46790000D01*
X117679000Y-45230000D02*
X117679000Y-44705000D01*
X117679000Y-47315000D02*
X117679000Y-46790000D01*
X117719000Y-45230000D02*
X117719000Y-44659000D01*
X117719000Y-47361000D02*
X117719000Y-46790000D01*
X117759000Y-45230000D02*
X117759000Y-44615000D01*
X117759000Y-47405000D02*
X117759000Y-46790000D01*
X117799000Y-45230000D02*
X117799000Y-44574000D01*
X117799000Y-47446000D02*
X117799000Y-46790000D01*
X117839000Y-45230000D02*
X117839000Y-44535000D01*
X117839000Y-47485000D02*
X117839000Y-46790000D01*
X117879000Y-45230000D02*
X117879000Y-44498000D01*
X117879000Y-47522000D02*
X117879000Y-46790000D01*
X117919000Y-45230000D02*
X117919000Y-44463000D01*
X117919000Y-47557000D02*
X117919000Y-46790000D01*
X117959000Y-45230000D02*
X117959000Y-44429000D01*
X117959000Y-47591000D02*
X117959000Y-46790000D01*
X117999000Y-45230000D02*
X117999000Y-44397000D01*
X117999000Y-47623000D02*
X117999000Y-46790000D01*
X118039000Y-45230000D02*
X118039000Y-44367000D01*
X118039000Y-47653000D02*
X118039000Y-46790000D01*
X118079000Y-45230000D02*
X118079000Y-44338000D01*
X118079000Y-47682000D02*
X118079000Y-46790000D01*
X118119000Y-45230000D02*
X118119000Y-44311000D01*
X118119000Y-47709000D02*
X118119000Y-46790000D01*
X118159000Y-45230000D02*
X118159000Y-44285000D01*
X118159000Y-47735000D02*
X118159000Y-46790000D01*
X118199000Y-45230000D02*
X118199000Y-44260000D01*
X118199000Y-47760000D02*
X118199000Y-46790000D01*
X118239000Y-45230000D02*
X118239000Y-44237000D01*
X118239000Y-47783000D02*
X118239000Y-46790000D01*
X118279000Y-45230000D02*
X118279000Y-44214000D01*
X118279000Y-47806000D02*
X118279000Y-46790000D01*
X118319000Y-45230000D02*
X118319000Y-44193000D01*
X118319000Y-47827000D02*
X118319000Y-46790000D01*
X118359000Y-45230000D02*
X118359000Y-44173000D01*
X118359000Y-47847000D02*
X118359000Y-46790000D01*
X118399000Y-45230000D02*
X118399000Y-44154000D01*
X118399000Y-47866000D02*
X118399000Y-46790000D01*
X118439000Y-45230000D02*
X118439000Y-44136000D01*
X118439000Y-47884000D02*
X118439000Y-46790000D01*
X118479000Y-45230000D02*
X118479000Y-44119000D01*
X118479000Y-47901000D02*
X118479000Y-46790000D01*
X118519000Y-45230000D02*
X118519000Y-44103000D01*
X118519000Y-47917000D02*
X118519000Y-46790000D01*
X118559000Y-45230000D02*
X118559000Y-44087000D01*
X118559000Y-47933000D02*
X118559000Y-46790000D01*
X118600000Y-45230000D02*
X118600000Y-44073000D01*
X118600000Y-47947000D02*
X118600000Y-46790000D01*
X118640000Y-45230000D02*
X118640000Y-44060000D01*
X118640000Y-47960000D02*
X118640000Y-46790000D01*
X118680000Y-45230000D02*
X118680000Y-44047000D01*
X118680000Y-47973000D02*
X118680000Y-46790000D01*
X118720000Y-45230000D02*
X118720000Y-44036000D01*
X118720000Y-47984000D02*
X118720000Y-46790000D01*
X118760000Y-45230000D02*
X118760000Y-44025000D01*
X118760000Y-47995000D02*
X118760000Y-46790000D01*
X118800000Y-45230000D02*
X118800000Y-44015000D01*
X118800000Y-48005000D02*
X118800000Y-46790000D01*
X118840000Y-45230000D02*
X118840000Y-44006000D01*
X118840000Y-48014000D02*
X118840000Y-46790000D01*
X118880000Y-45230000D02*
X118880000Y-43998000D01*
X118880000Y-48022000D02*
X118880000Y-46790000D01*
X118920000Y-45230000D02*
X118920000Y-43991000D01*
X118920000Y-48029000D02*
X118920000Y-46790000D01*
X118960000Y-45230000D02*
X118960000Y-43984000D01*
X118960000Y-48036000D02*
X118960000Y-46790000D01*
X119000000Y-45230000D02*
X119000000Y-43978000D01*
X119000000Y-48042000D02*
X119000000Y-46790000D01*
X119040000Y-45230000D02*
X119040000Y-43973000D01*
X119040000Y-48047000D02*
X119040000Y-46790000D01*
X119080000Y-48051000D02*
X119080000Y-43969000D01*
X119120000Y-48054000D02*
X119120000Y-43966000D01*
X119160000Y-48057000D02*
X119160000Y-43963000D01*
X119200000Y-48059000D02*
X119200000Y-43961000D01*
X119240000Y-48060000D02*
X119240000Y-43960000D01*
X119280000Y-48060000D02*
X119280000Y-43960000D01*
X117433564Y-46989170D02*
G75*
G03*
X121125996Y-46990000I1846436J979170D01*
G01*
X121125996Y-45030000D02*
G75*
G03*
X117433564Y-45030830I-1845996J-980000D01*
G01*
X117433564Y-45030830D02*
G75*
G03*
X117434004Y-46990000I1846436J-979170D01*
G01*
D14*
%TO.C,U1*%
X121520000Y-105210000D02*
X121520000Y-50810000D01*
X121520000Y-50810000D02*
X149420000Y-50810000D01*
X149420000Y-50810000D02*
X149420000Y-105210000D01*
X149420000Y-105210000D02*
X121520000Y-105210000D01*
D13*
%TO.C,J1*%
X114093992Y-58994360D02*
X114637512Y-56965916D01*
X102391490Y-57463363D02*
X102197376Y-58187807D01*
X99976675Y-56816315D02*
X102391490Y-57463363D01*
X102197376Y-58187807D02*
X104563894Y-58821914D01*
X108519611Y-52945494D02*
X115232795Y-54744287D01*
X101322534Y-51793501D02*
X103737349Y-52440548D01*
X103931463Y-51716104D02*
X106297981Y-52350211D01*
X106785523Y-59417197D02*
X113498708Y-61215990D01*
X99976675Y-56816315D02*
X101322534Y-51793501D01*
X103737349Y-52440548D02*
X103931463Y-51716104D01*
%TO.C,C2*%
X114130000Y-70720000D02*
X114130000Y-69820000D01*
X114580000Y-70270000D02*
X113680000Y-70270000D01*
X109799000Y-70435000D02*
X109799000Y-70105000D01*
X109839000Y-70685000D02*
X109839000Y-69855000D01*
X109879000Y-70837000D02*
X109879000Y-69703000D01*
X109919000Y-70956000D02*
X109919000Y-69584000D01*
X109959000Y-71056000D02*
X109959000Y-69484000D01*
X109999000Y-71144000D02*
X109999000Y-69396000D01*
X110039000Y-71222000D02*
X110039000Y-69318000D01*
X110079000Y-71293000D02*
X110079000Y-69247000D01*
X110119000Y-69490000D02*
X110119000Y-69182000D01*
X110119000Y-71358000D02*
X110119000Y-71050000D01*
X110159000Y-69490000D02*
X110159000Y-69122000D01*
X110159000Y-71418000D02*
X110159000Y-71050000D01*
X110199000Y-69490000D02*
X110199000Y-69066000D01*
X110199000Y-71474000D02*
X110199000Y-71050000D01*
X110239000Y-69490000D02*
X110239000Y-69014000D01*
X110239000Y-71526000D02*
X110239000Y-71050000D01*
X110279000Y-69490000D02*
X110279000Y-68965000D01*
X110279000Y-71575000D02*
X110279000Y-71050000D01*
X110319000Y-69490000D02*
X110319000Y-68919000D01*
X110319000Y-71621000D02*
X110319000Y-71050000D01*
X110359000Y-69490000D02*
X110359000Y-68875000D01*
X110359000Y-71665000D02*
X110359000Y-71050000D01*
X110399000Y-69490000D02*
X110399000Y-68834000D01*
X110399000Y-71706000D02*
X110399000Y-71050000D01*
X110439000Y-69490000D02*
X110439000Y-68795000D01*
X110439000Y-71745000D02*
X110439000Y-71050000D01*
X110479000Y-69490000D02*
X110479000Y-68758000D01*
X110479000Y-71782000D02*
X110479000Y-71050000D01*
X110519000Y-69490000D02*
X110519000Y-68723000D01*
X110519000Y-71817000D02*
X110519000Y-71050000D01*
X110559000Y-69490000D02*
X110559000Y-68689000D01*
X110559000Y-71851000D02*
X110559000Y-71050000D01*
X110599000Y-69490000D02*
X110599000Y-68657000D01*
X110599000Y-71883000D02*
X110599000Y-71050000D01*
X110639000Y-69490000D02*
X110639000Y-68627000D01*
X110639000Y-71913000D02*
X110639000Y-71050000D01*
X110679000Y-69490000D02*
X110679000Y-68598000D01*
X110679000Y-71942000D02*
X110679000Y-71050000D01*
X110719000Y-69490000D02*
X110719000Y-68571000D01*
X110719000Y-71969000D02*
X110719000Y-71050000D01*
X110759000Y-69490000D02*
X110759000Y-68545000D01*
X110759000Y-71995000D02*
X110759000Y-71050000D01*
X110799000Y-69490000D02*
X110799000Y-68520000D01*
X110799000Y-72020000D02*
X110799000Y-71050000D01*
X110839000Y-69490000D02*
X110839000Y-68497000D01*
X110839000Y-72043000D02*
X110839000Y-71050000D01*
X110879000Y-69490000D02*
X110879000Y-68474000D01*
X110879000Y-72066000D02*
X110879000Y-71050000D01*
X110919000Y-69490000D02*
X110919000Y-68453000D01*
X110919000Y-72087000D02*
X110919000Y-71050000D01*
X110959000Y-69490000D02*
X110959000Y-68433000D01*
X110959000Y-72107000D02*
X110959000Y-71050000D01*
X110999000Y-69490000D02*
X110999000Y-68414000D01*
X110999000Y-72126000D02*
X110999000Y-71050000D01*
X111039000Y-69490000D02*
X111039000Y-68396000D01*
X111039000Y-72144000D02*
X111039000Y-71050000D01*
X111079000Y-69490000D02*
X111079000Y-68379000D01*
X111079000Y-72161000D02*
X111079000Y-71050000D01*
X111119000Y-69490000D02*
X111119000Y-68363000D01*
X111119000Y-72177000D02*
X111119000Y-71050000D01*
X111159000Y-69490000D02*
X111159000Y-68347000D01*
X111159000Y-72193000D02*
X111159000Y-71050000D01*
X111200000Y-69490000D02*
X111200000Y-68333000D01*
X111200000Y-72207000D02*
X111200000Y-71050000D01*
X111240000Y-69490000D02*
X111240000Y-68320000D01*
X111240000Y-72220000D02*
X111240000Y-71050000D01*
X111280000Y-69490000D02*
X111280000Y-68307000D01*
X111280000Y-72233000D02*
X111280000Y-71050000D01*
X111320000Y-69490000D02*
X111320000Y-68296000D01*
X111320000Y-72244000D02*
X111320000Y-71050000D01*
X111360000Y-69490000D02*
X111360000Y-68285000D01*
X111360000Y-72255000D02*
X111360000Y-71050000D01*
X111400000Y-69490000D02*
X111400000Y-68275000D01*
X111400000Y-72265000D02*
X111400000Y-71050000D01*
X111440000Y-69490000D02*
X111440000Y-68266000D01*
X111440000Y-72274000D02*
X111440000Y-71050000D01*
X111480000Y-69490000D02*
X111480000Y-68258000D01*
X111480000Y-72282000D02*
X111480000Y-71050000D01*
X111520000Y-69490000D02*
X111520000Y-68251000D01*
X111520000Y-72289000D02*
X111520000Y-71050000D01*
X111560000Y-69490000D02*
X111560000Y-68244000D01*
X111560000Y-72296000D02*
X111560000Y-71050000D01*
X111600000Y-69490000D02*
X111600000Y-68238000D01*
X111600000Y-72302000D02*
X111600000Y-71050000D01*
X111640000Y-69490000D02*
X111640000Y-68233000D01*
X111640000Y-72307000D02*
X111640000Y-71050000D01*
X111680000Y-72311000D02*
X111680000Y-68229000D01*
X111720000Y-72314000D02*
X111720000Y-68226000D01*
X111760000Y-72317000D02*
X111760000Y-68223000D01*
X111800000Y-72319000D02*
X111800000Y-68221000D01*
X111840000Y-72320000D02*
X111840000Y-68220000D01*
X111880000Y-72320000D02*
X111880000Y-68220000D01*
X110033564Y-71249170D02*
G75*
G03*
X113725996Y-71250000I1846436J979170D01*
G01*
X113725996Y-69290000D02*
G75*
G03*
X110033564Y-69290830I-1845996J-980000D01*
G01*
X110033564Y-69290830D02*
G75*
G03*
X110034004Y-71250000I1846436J-979170D01*
G01*
%TO.C,C3*%
X118000000Y-108500000D02*
X118000000Y-109400000D01*
X117550000Y-108950000D02*
X118450000Y-108950000D01*
X122331000Y-108785000D02*
X122331000Y-109115000D01*
X122291000Y-108535000D02*
X122291000Y-109365000D01*
X122251000Y-108383000D02*
X122251000Y-109517000D01*
X122211000Y-108264000D02*
X122211000Y-109636000D01*
X122171000Y-108164000D02*
X122171000Y-109736000D01*
X122131000Y-108076000D02*
X122131000Y-109824000D01*
X122091000Y-107998000D02*
X122091000Y-109902000D01*
X122051000Y-107927000D02*
X122051000Y-109973000D01*
X122011000Y-109730000D02*
X122011000Y-110038000D01*
X122011000Y-107862000D02*
X122011000Y-108170000D01*
X121971000Y-109730000D02*
X121971000Y-110098000D01*
X121971000Y-107802000D02*
X121971000Y-108170000D01*
X121931000Y-109730000D02*
X121931000Y-110154000D01*
X121931000Y-107746000D02*
X121931000Y-108170000D01*
X121891000Y-109730000D02*
X121891000Y-110206000D01*
X121891000Y-107694000D02*
X121891000Y-108170000D01*
X121851000Y-109730000D02*
X121851000Y-110255000D01*
X121851000Y-107645000D02*
X121851000Y-108170000D01*
X121811000Y-109730000D02*
X121811000Y-110301000D01*
X121811000Y-107599000D02*
X121811000Y-108170000D01*
X121771000Y-109730000D02*
X121771000Y-110345000D01*
X121771000Y-107555000D02*
X121771000Y-108170000D01*
X121731000Y-109730000D02*
X121731000Y-110386000D01*
X121731000Y-107514000D02*
X121731000Y-108170000D01*
X121691000Y-109730000D02*
X121691000Y-110425000D01*
X121691000Y-107475000D02*
X121691000Y-108170000D01*
X121651000Y-109730000D02*
X121651000Y-110462000D01*
X121651000Y-107438000D02*
X121651000Y-108170000D01*
X121611000Y-109730000D02*
X121611000Y-110497000D01*
X121611000Y-107403000D02*
X121611000Y-108170000D01*
X121571000Y-109730000D02*
X121571000Y-110531000D01*
X121571000Y-107369000D02*
X121571000Y-108170000D01*
X121531000Y-109730000D02*
X121531000Y-110563000D01*
X121531000Y-107337000D02*
X121531000Y-108170000D01*
X121491000Y-109730000D02*
X121491000Y-110593000D01*
X121491000Y-107307000D02*
X121491000Y-108170000D01*
X121451000Y-109730000D02*
X121451000Y-110622000D01*
X121451000Y-107278000D02*
X121451000Y-108170000D01*
X121411000Y-109730000D02*
X121411000Y-110649000D01*
X121411000Y-107251000D02*
X121411000Y-108170000D01*
X121371000Y-109730000D02*
X121371000Y-110675000D01*
X121371000Y-107225000D02*
X121371000Y-108170000D01*
X121331000Y-109730000D02*
X121331000Y-110700000D01*
X121331000Y-107200000D02*
X121331000Y-108170000D01*
X121291000Y-109730000D02*
X121291000Y-110723000D01*
X121291000Y-107177000D02*
X121291000Y-108170000D01*
X121251000Y-109730000D02*
X121251000Y-110746000D01*
X121251000Y-107154000D02*
X121251000Y-108170000D01*
X121211000Y-109730000D02*
X121211000Y-110767000D01*
X121211000Y-107133000D02*
X121211000Y-108170000D01*
X121171000Y-109730000D02*
X121171000Y-110787000D01*
X121171000Y-107113000D02*
X121171000Y-108170000D01*
X121131000Y-109730000D02*
X121131000Y-110806000D01*
X121131000Y-107094000D02*
X121131000Y-108170000D01*
X121091000Y-109730000D02*
X121091000Y-110824000D01*
X121091000Y-107076000D02*
X121091000Y-108170000D01*
X121051000Y-109730000D02*
X121051000Y-110841000D01*
X121051000Y-107059000D02*
X121051000Y-108170000D01*
X121011000Y-109730000D02*
X121011000Y-110857000D01*
X121011000Y-107043000D02*
X121011000Y-108170000D01*
X120971000Y-109730000D02*
X120971000Y-110873000D01*
X120971000Y-107027000D02*
X120971000Y-108170000D01*
X120930000Y-109730000D02*
X120930000Y-110887000D01*
X120930000Y-107013000D02*
X120930000Y-108170000D01*
X120890000Y-109730000D02*
X120890000Y-110900000D01*
X120890000Y-107000000D02*
X120890000Y-108170000D01*
X120850000Y-109730000D02*
X120850000Y-110913000D01*
X120850000Y-106987000D02*
X120850000Y-108170000D01*
X120810000Y-109730000D02*
X120810000Y-110924000D01*
X120810000Y-106976000D02*
X120810000Y-108170000D01*
X120770000Y-109730000D02*
X120770000Y-110935000D01*
X120770000Y-106965000D02*
X120770000Y-108170000D01*
X120730000Y-109730000D02*
X120730000Y-110945000D01*
X120730000Y-106955000D02*
X120730000Y-108170000D01*
X120690000Y-109730000D02*
X120690000Y-110954000D01*
X120690000Y-106946000D02*
X120690000Y-108170000D01*
X120650000Y-109730000D02*
X120650000Y-110962000D01*
X120650000Y-106938000D02*
X120650000Y-108170000D01*
X120610000Y-109730000D02*
X120610000Y-110969000D01*
X120610000Y-106931000D02*
X120610000Y-108170000D01*
X120570000Y-109730000D02*
X120570000Y-110976000D01*
X120570000Y-106924000D02*
X120570000Y-108170000D01*
X120530000Y-109730000D02*
X120530000Y-110982000D01*
X120530000Y-106918000D02*
X120530000Y-108170000D01*
X120490000Y-109730000D02*
X120490000Y-110987000D01*
X120490000Y-106913000D02*
X120490000Y-108170000D01*
X120450000Y-106909000D02*
X120450000Y-110991000D01*
X120410000Y-106906000D02*
X120410000Y-110994000D01*
X120370000Y-106903000D02*
X120370000Y-110997000D01*
X120330000Y-106901000D02*
X120330000Y-110999000D01*
X120290000Y-106900000D02*
X120290000Y-111000000D01*
X120250000Y-106900000D02*
X120250000Y-111000000D01*
X122096436Y-107970830D02*
G75*
G03*
X118404004Y-107970000I-1846436J-979170D01*
G01*
X118404004Y-109930000D02*
G75*
G03*
X122096436Y-109929170I1845996J980000D01*
G01*
X122096436Y-109929170D02*
G75*
G03*
X122095996Y-107970000I-1846436J979170D01*
G01*
%TO.C,C4*%
X153890000Y-46840000D02*
X153890000Y-45940000D01*
X154340000Y-46390000D02*
X153440000Y-46390000D01*
X149559000Y-46555000D02*
X149559000Y-46225000D01*
X149599000Y-46805000D02*
X149599000Y-45975000D01*
X149639000Y-46957000D02*
X149639000Y-45823000D01*
X149679000Y-47076000D02*
X149679000Y-45704000D01*
X149719000Y-47176000D02*
X149719000Y-45604000D01*
X149759000Y-47264000D02*
X149759000Y-45516000D01*
X149799000Y-47342000D02*
X149799000Y-45438000D01*
X149839000Y-47413000D02*
X149839000Y-45367000D01*
X149879000Y-45610000D02*
X149879000Y-45302000D01*
X149879000Y-47478000D02*
X149879000Y-47170000D01*
X149919000Y-45610000D02*
X149919000Y-45242000D01*
X149919000Y-47538000D02*
X149919000Y-47170000D01*
X149959000Y-45610000D02*
X149959000Y-45186000D01*
X149959000Y-47594000D02*
X149959000Y-47170000D01*
X149999000Y-45610000D02*
X149999000Y-45134000D01*
X149999000Y-47646000D02*
X149999000Y-47170000D01*
X150039000Y-45610000D02*
X150039000Y-45085000D01*
X150039000Y-47695000D02*
X150039000Y-47170000D01*
X150079000Y-45610000D02*
X150079000Y-45039000D01*
X150079000Y-47741000D02*
X150079000Y-47170000D01*
X150119000Y-45610000D02*
X150119000Y-44995000D01*
X150119000Y-47785000D02*
X150119000Y-47170000D01*
X150159000Y-45610000D02*
X150159000Y-44954000D01*
X150159000Y-47826000D02*
X150159000Y-47170000D01*
X150199000Y-45610000D02*
X150199000Y-44915000D01*
X150199000Y-47865000D02*
X150199000Y-47170000D01*
X150239000Y-45610000D02*
X150239000Y-44878000D01*
X150239000Y-47902000D02*
X150239000Y-47170000D01*
X150279000Y-45610000D02*
X150279000Y-44843000D01*
X150279000Y-47937000D02*
X150279000Y-47170000D01*
X150319000Y-45610000D02*
X150319000Y-44809000D01*
X150319000Y-47971000D02*
X150319000Y-47170000D01*
X150359000Y-45610000D02*
X150359000Y-44777000D01*
X150359000Y-48003000D02*
X150359000Y-47170000D01*
X150399000Y-45610000D02*
X150399000Y-44747000D01*
X150399000Y-48033000D02*
X150399000Y-47170000D01*
X150439000Y-45610000D02*
X150439000Y-44718000D01*
X150439000Y-48062000D02*
X150439000Y-47170000D01*
X150479000Y-45610000D02*
X150479000Y-44691000D01*
X150479000Y-48089000D02*
X150479000Y-47170000D01*
X150519000Y-45610000D02*
X150519000Y-44665000D01*
X150519000Y-48115000D02*
X150519000Y-47170000D01*
X150559000Y-45610000D02*
X150559000Y-44640000D01*
X150559000Y-48140000D02*
X150559000Y-47170000D01*
X150599000Y-45610000D02*
X150599000Y-44617000D01*
X150599000Y-48163000D02*
X150599000Y-47170000D01*
X150639000Y-45610000D02*
X150639000Y-44594000D01*
X150639000Y-48186000D02*
X150639000Y-47170000D01*
X150679000Y-45610000D02*
X150679000Y-44573000D01*
X150679000Y-48207000D02*
X150679000Y-47170000D01*
X150719000Y-45610000D02*
X150719000Y-44553000D01*
X150719000Y-48227000D02*
X150719000Y-47170000D01*
X150759000Y-45610000D02*
X150759000Y-44534000D01*
X150759000Y-48246000D02*
X150759000Y-47170000D01*
X150799000Y-45610000D02*
X150799000Y-44516000D01*
X150799000Y-48264000D02*
X150799000Y-47170000D01*
X150839000Y-45610000D02*
X150839000Y-44499000D01*
X150839000Y-48281000D02*
X150839000Y-47170000D01*
X150879000Y-45610000D02*
X150879000Y-44483000D01*
X150879000Y-48297000D02*
X150879000Y-47170000D01*
X150919000Y-45610000D02*
X150919000Y-44467000D01*
X150919000Y-48313000D02*
X150919000Y-47170000D01*
X150960000Y-45610000D02*
X150960000Y-44453000D01*
X150960000Y-48327000D02*
X150960000Y-47170000D01*
X151000000Y-45610000D02*
X151000000Y-44440000D01*
X151000000Y-48340000D02*
X151000000Y-47170000D01*
X151040000Y-45610000D02*
X151040000Y-44427000D01*
X151040000Y-48353000D02*
X151040000Y-47170000D01*
X151080000Y-45610000D02*
X151080000Y-44416000D01*
X151080000Y-48364000D02*
X151080000Y-47170000D01*
X151120000Y-45610000D02*
X151120000Y-44405000D01*
X151120000Y-48375000D02*
X151120000Y-47170000D01*
X151160000Y-45610000D02*
X151160000Y-44395000D01*
X151160000Y-48385000D02*
X151160000Y-47170000D01*
X151200000Y-45610000D02*
X151200000Y-44386000D01*
X151200000Y-48394000D02*
X151200000Y-47170000D01*
X151240000Y-45610000D02*
X151240000Y-44378000D01*
X151240000Y-48402000D02*
X151240000Y-47170000D01*
X151280000Y-45610000D02*
X151280000Y-44371000D01*
X151280000Y-48409000D02*
X151280000Y-47170000D01*
X151320000Y-45610000D02*
X151320000Y-44364000D01*
X151320000Y-48416000D02*
X151320000Y-47170000D01*
X151360000Y-45610000D02*
X151360000Y-44358000D01*
X151360000Y-48422000D02*
X151360000Y-47170000D01*
X151400000Y-45610000D02*
X151400000Y-44353000D01*
X151400000Y-48427000D02*
X151400000Y-47170000D01*
X151440000Y-48431000D02*
X151440000Y-44349000D01*
X151480000Y-48434000D02*
X151480000Y-44346000D01*
X151520000Y-48437000D02*
X151520000Y-44343000D01*
X151560000Y-48439000D02*
X151560000Y-44341000D01*
X151600000Y-48440000D02*
X151600000Y-44340000D01*
X151640000Y-48440000D02*
X151640000Y-44340000D01*
X149793564Y-47369170D02*
G75*
G03*
X153485996Y-47370000I1846436J979170D01*
G01*
X153485996Y-45410000D02*
G75*
G03*
X149793564Y-45410830I-1845996J-980000D01*
G01*
X149793564Y-45410830D02*
G75*
G03*
X149794004Y-47370000I1846436J-979170D01*
G01*
%TO.C,C5*%
X157070000Y-68760000D02*
X157070000Y-69660000D01*
X156620000Y-69210000D02*
X157520000Y-69210000D01*
X161401000Y-69045000D02*
X161401000Y-69375000D01*
X161361000Y-68795000D02*
X161361000Y-69625000D01*
X161321000Y-68643000D02*
X161321000Y-69777000D01*
X161281000Y-68524000D02*
X161281000Y-69896000D01*
X161241000Y-68424000D02*
X161241000Y-69996000D01*
X161201000Y-68336000D02*
X161201000Y-70084000D01*
X161161000Y-68258000D02*
X161161000Y-70162000D01*
X161121000Y-68187000D02*
X161121000Y-70233000D01*
X161081000Y-69990000D02*
X161081000Y-70298000D01*
X161081000Y-68122000D02*
X161081000Y-68430000D01*
X161041000Y-69990000D02*
X161041000Y-70358000D01*
X161041000Y-68062000D02*
X161041000Y-68430000D01*
X161001000Y-69990000D02*
X161001000Y-70414000D01*
X161001000Y-68006000D02*
X161001000Y-68430000D01*
X160961000Y-69990000D02*
X160961000Y-70466000D01*
X160961000Y-67954000D02*
X160961000Y-68430000D01*
X160921000Y-69990000D02*
X160921000Y-70515000D01*
X160921000Y-67905000D02*
X160921000Y-68430000D01*
X160881000Y-69990000D02*
X160881000Y-70561000D01*
X160881000Y-67859000D02*
X160881000Y-68430000D01*
X160841000Y-69990000D02*
X160841000Y-70605000D01*
X160841000Y-67815000D02*
X160841000Y-68430000D01*
X160801000Y-69990000D02*
X160801000Y-70646000D01*
X160801000Y-67774000D02*
X160801000Y-68430000D01*
X160761000Y-69990000D02*
X160761000Y-70685000D01*
X160761000Y-67735000D02*
X160761000Y-68430000D01*
X160721000Y-69990000D02*
X160721000Y-70722000D01*
X160721000Y-67698000D02*
X160721000Y-68430000D01*
X160681000Y-69990000D02*
X160681000Y-70757000D01*
X160681000Y-67663000D02*
X160681000Y-68430000D01*
X160641000Y-69990000D02*
X160641000Y-70791000D01*
X160641000Y-67629000D02*
X160641000Y-68430000D01*
X160601000Y-69990000D02*
X160601000Y-70823000D01*
X160601000Y-67597000D02*
X160601000Y-68430000D01*
X160561000Y-69990000D02*
X160561000Y-70853000D01*
X160561000Y-67567000D02*
X160561000Y-68430000D01*
X160521000Y-69990000D02*
X160521000Y-70882000D01*
X160521000Y-67538000D02*
X160521000Y-68430000D01*
X160481000Y-69990000D02*
X160481000Y-70909000D01*
X160481000Y-67511000D02*
X160481000Y-68430000D01*
X160441000Y-69990000D02*
X160441000Y-70935000D01*
X160441000Y-67485000D02*
X160441000Y-68430000D01*
X160401000Y-69990000D02*
X160401000Y-70960000D01*
X160401000Y-67460000D02*
X160401000Y-68430000D01*
X160361000Y-69990000D02*
X160361000Y-70983000D01*
X160361000Y-67437000D02*
X160361000Y-68430000D01*
X160321000Y-69990000D02*
X160321000Y-71006000D01*
X160321000Y-67414000D02*
X160321000Y-68430000D01*
X160281000Y-69990000D02*
X160281000Y-71027000D01*
X160281000Y-67393000D02*
X160281000Y-68430000D01*
X160241000Y-69990000D02*
X160241000Y-71047000D01*
X160241000Y-67373000D02*
X160241000Y-68430000D01*
X160201000Y-69990000D02*
X160201000Y-71066000D01*
X160201000Y-67354000D02*
X160201000Y-68430000D01*
X160161000Y-69990000D02*
X160161000Y-71084000D01*
X160161000Y-67336000D02*
X160161000Y-68430000D01*
X160121000Y-69990000D02*
X160121000Y-71101000D01*
X160121000Y-67319000D02*
X160121000Y-68430000D01*
X160081000Y-69990000D02*
X160081000Y-71117000D01*
X160081000Y-67303000D02*
X160081000Y-68430000D01*
X160041000Y-69990000D02*
X160041000Y-71133000D01*
X160041000Y-67287000D02*
X160041000Y-68430000D01*
X160000000Y-69990000D02*
X160000000Y-71147000D01*
X160000000Y-67273000D02*
X160000000Y-68430000D01*
X159960000Y-69990000D02*
X159960000Y-71160000D01*
X159960000Y-67260000D02*
X159960000Y-68430000D01*
X159920000Y-69990000D02*
X159920000Y-71173000D01*
X159920000Y-67247000D02*
X159920000Y-68430000D01*
X159880000Y-69990000D02*
X159880000Y-71184000D01*
X159880000Y-67236000D02*
X159880000Y-68430000D01*
X159840000Y-69990000D02*
X159840000Y-71195000D01*
X159840000Y-67225000D02*
X159840000Y-68430000D01*
X159800000Y-69990000D02*
X159800000Y-71205000D01*
X159800000Y-67215000D02*
X159800000Y-68430000D01*
X159760000Y-69990000D02*
X159760000Y-71214000D01*
X159760000Y-67206000D02*
X159760000Y-68430000D01*
X159720000Y-69990000D02*
X159720000Y-71222000D01*
X159720000Y-67198000D02*
X159720000Y-68430000D01*
X159680000Y-69990000D02*
X159680000Y-71229000D01*
X159680000Y-67191000D02*
X159680000Y-68430000D01*
X159640000Y-69990000D02*
X159640000Y-71236000D01*
X159640000Y-67184000D02*
X159640000Y-68430000D01*
X159600000Y-69990000D02*
X159600000Y-71242000D01*
X159600000Y-67178000D02*
X159600000Y-68430000D01*
X159560000Y-69990000D02*
X159560000Y-71247000D01*
X159560000Y-67173000D02*
X159560000Y-68430000D01*
X159520000Y-67169000D02*
X159520000Y-71251000D01*
X159480000Y-67166000D02*
X159480000Y-71254000D01*
X159440000Y-67163000D02*
X159440000Y-71257000D01*
X159400000Y-67161000D02*
X159400000Y-71259000D01*
X159360000Y-67160000D02*
X159360000Y-71260000D01*
X159320000Y-67160000D02*
X159320000Y-71260000D01*
X161166436Y-68230830D02*
G75*
G03*
X157474004Y-68230000I-1846436J-979170D01*
G01*
X157474004Y-70190000D02*
G75*
G03*
X161166436Y-70189170I1845996J980000D01*
G01*
X161166436Y-70189170D02*
G75*
G03*
X161165996Y-68230000I-1846436J979170D01*
G01*
%TO.C,C6*%
X148970000Y-109000000D02*
X148970000Y-109900000D01*
X148520000Y-109450000D02*
X149420000Y-109450000D01*
X153301000Y-109285000D02*
X153301000Y-109615000D01*
X153261000Y-109035000D02*
X153261000Y-109865000D01*
X153221000Y-108883000D02*
X153221000Y-110017000D01*
X153181000Y-108764000D02*
X153181000Y-110136000D01*
X153141000Y-108664000D02*
X153141000Y-110236000D01*
X153101000Y-108576000D02*
X153101000Y-110324000D01*
X153061000Y-108498000D02*
X153061000Y-110402000D01*
X153021000Y-108427000D02*
X153021000Y-110473000D01*
X152981000Y-110230000D02*
X152981000Y-110538000D01*
X152981000Y-108362000D02*
X152981000Y-108670000D01*
X152941000Y-110230000D02*
X152941000Y-110598000D01*
X152941000Y-108302000D02*
X152941000Y-108670000D01*
X152901000Y-110230000D02*
X152901000Y-110654000D01*
X152901000Y-108246000D02*
X152901000Y-108670000D01*
X152861000Y-110230000D02*
X152861000Y-110706000D01*
X152861000Y-108194000D02*
X152861000Y-108670000D01*
X152821000Y-110230000D02*
X152821000Y-110755000D01*
X152821000Y-108145000D02*
X152821000Y-108670000D01*
X152781000Y-110230000D02*
X152781000Y-110801000D01*
X152781000Y-108099000D02*
X152781000Y-108670000D01*
X152741000Y-110230000D02*
X152741000Y-110845000D01*
X152741000Y-108055000D02*
X152741000Y-108670000D01*
X152701000Y-110230000D02*
X152701000Y-110886000D01*
X152701000Y-108014000D02*
X152701000Y-108670000D01*
X152661000Y-110230000D02*
X152661000Y-110925000D01*
X152661000Y-107975000D02*
X152661000Y-108670000D01*
X152621000Y-110230000D02*
X152621000Y-110962000D01*
X152621000Y-107938000D02*
X152621000Y-108670000D01*
X152581000Y-110230000D02*
X152581000Y-110997000D01*
X152581000Y-107903000D02*
X152581000Y-108670000D01*
X152541000Y-110230000D02*
X152541000Y-111031000D01*
X152541000Y-107869000D02*
X152541000Y-108670000D01*
X152501000Y-110230000D02*
X152501000Y-111063000D01*
X152501000Y-107837000D02*
X152501000Y-108670000D01*
X152461000Y-110230000D02*
X152461000Y-111093000D01*
X152461000Y-107807000D02*
X152461000Y-108670000D01*
X152421000Y-110230000D02*
X152421000Y-111122000D01*
X152421000Y-107778000D02*
X152421000Y-108670000D01*
X152381000Y-110230000D02*
X152381000Y-111149000D01*
X152381000Y-107751000D02*
X152381000Y-108670000D01*
X152341000Y-110230000D02*
X152341000Y-111175000D01*
X152341000Y-107725000D02*
X152341000Y-108670000D01*
X152301000Y-110230000D02*
X152301000Y-111200000D01*
X152301000Y-107700000D02*
X152301000Y-108670000D01*
X152261000Y-110230000D02*
X152261000Y-111223000D01*
X152261000Y-107677000D02*
X152261000Y-108670000D01*
X152221000Y-110230000D02*
X152221000Y-111246000D01*
X152221000Y-107654000D02*
X152221000Y-108670000D01*
X152181000Y-110230000D02*
X152181000Y-111267000D01*
X152181000Y-107633000D02*
X152181000Y-108670000D01*
X152141000Y-110230000D02*
X152141000Y-111287000D01*
X152141000Y-107613000D02*
X152141000Y-108670000D01*
X152101000Y-110230000D02*
X152101000Y-111306000D01*
X152101000Y-107594000D02*
X152101000Y-108670000D01*
X152061000Y-110230000D02*
X152061000Y-111324000D01*
X152061000Y-107576000D02*
X152061000Y-108670000D01*
X152021000Y-110230000D02*
X152021000Y-111341000D01*
X152021000Y-107559000D02*
X152021000Y-108670000D01*
X151981000Y-110230000D02*
X151981000Y-111357000D01*
X151981000Y-107543000D02*
X151981000Y-108670000D01*
X151941000Y-110230000D02*
X151941000Y-111373000D01*
X151941000Y-107527000D02*
X151941000Y-108670000D01*
X151900000Y-110230000D02*
X151900000Y-111387000D01*
X151900000Y-107513000D02*
X151900000Y-108670000D01*
X151860000Y-110230000D02*
X151860000Y-111400000D01*
X151860000Y-107500000D02*
X151860000Y-108670000D01*
X151820000Y-110230000D02*
X151820000Y-111413000D01*
X151820000Y-107487000D02*
X151820000Y-108670000D01*
X151780000Y-110230000D02*
X151780000Y-111424000D01*
X151780000Y-107476000D02*
X151780000Y-108670000D01*
X151740000Y-110230000D02*
X151740000Y-111435000D01*
X151740000Y-107465000D02*
X151740000Y-108670000D01*
X151700000Y-110230000D02*
X151700000Y-111445000D01*
X151700000Y-107455000D02*
X151700000Y-108670000D01*
X151660000Y-110230000D02*
X151660000Y-111454000D01*
X151660000Y-107446000D02*
X151660000Y-108670000D01*
X151620000Y-110230000D02*
X151620000Y-111462000D01*
X151620000Y-107438000D02*
X151620000Y-108670000D01*
X151580000Y-110230000D02*
X151580000Y-111469000D01*
X151580000Y-107431000D02*
X151580000Y-108670000D01*
X151540000Y-110230000D02*
X151540000Y-111476000D01*
X151540000Y-107424000D02*
X151540000Y-108670000D01*
X151500000Y-110230000D02*
X151500000Y-111482000D01*
X151500000Y-107418000D02*
X151500000Y-108670000D01*
X151460000Y-110230000D02*
X151460000Y-111487000D01*
X151460000Y-107413000D02*
X151460000Y-108670000D01*
X151420000Y-107409000D02*
X151420000Y-111491000D01*
X151380000Y-107406000D02*
X151380000Y-111494000D01*
X151340000Y-107403000D02*
X151340000Y-111497000D01*
X151300000Y-107401000D02*
X151300000Y-111499000D01*
X151260000Y-107400000D02*
X151260000Y-111500000D01*
X151220000Y-107400000D02*
X151220000Y-111500000D01*
X153066436Y-108470830D02*
G75*
G03*
X149374004Y-108470000I-1846436J-979170D01*
G01*
X149374004Y-110430000D02*
G75*
G03*
X153066436Y-110429170I1845996J980000D01*
G01*
X153066436Y-110429170D02*
G75*
G03*
X153065996Y-108470000I-1846436J979170D01*
G01*
%TO.C,J2*%
X111280000Y-78940000D02*
X111280000Y-76840000D01*
X99580000Y-80490000D02*
X99580000Y-81240000D01*
X97080000Y-80490000D02*
X99580000Y-80490000D01*
X99580000Y-81240000D02*
X102030000Y-81240000D01*
X104330000Y-74540000D02*
X111280000Y-74540000D01*
X97080000Y-75290000D02*
X99580000Y-75290000D01*
X99580000Y-74540000D02*
X102030000Y-74540000D01*
X104330000Y-81240000D02*
X111280000Y-81240000D01*
X97080000Y-80490000D02*
X97080000Y-75290000D01*
X99580000Y-75290000D02*
X99580000Y-74540000D01*
%TO.C,J3*%
X114674007Y-98981492D02*
X114130487Y-96953048D01*
X103773844Y-103506860D02*
X103967958Y-104231304D01*
X101359030Y-104153907D02*
X103773844Y-103506860D01*
X103967958Y-104231304D02*
X106334477Y-103597197D01*
X106822019Y-96530211D02*
X113535203Y-94731418D01*
X100013171Y-99131093D02*
X102427985Y-98484045D01*
X102233871Y-97759601D02*
X104600389Y-97125494D01*
X108556106Y-103001914D02*
X115269291Y-101203121D01*
X101359030Y-104153907D02*
X100013171Y-99131093D01*
X102427985Y-98484045D02*
X102233871Y-97759601D01*
%TO.C,J4*%
X156315993Y-56938508D02*
X156859513Y-58966952D01*
X167216156Y-52413140D02*
X167022042Y-51688696D01*
X169630970Y-51766093D02*
X167216156Y-52413140D01*
X167022042Y-51688696D02*
X164655523Y-52322803D01*
X164167981Y-59389789D02*
X157454797Y-61188582D01*
X170976829Y-56788907D02*
X168562015Y-57435955D01*
X168756129Y-58160399D02*
X166389611Y-58794506D01*
X162433894Y-52918086D02*
X155720709Y-54716879D01*
X169630970Y-51766093D02*
X170976829Y-56788907D01*
X168562015Y-57435955D02*
X168756129Y-58160399D01*
%TO.C,J5*%
X159700000Y-76870000D02*
X159700000Y-78970000D01*
X171400000Y-75320000D02*
X171400000Y-74570000D01*
X173900000Y-75320000D02*
X171400000Y-75320000D01*
X171400000Y-74570000D02*
X168950000Y-74570000D01*
X166650000Y-81270000D02*
X159700000Y-81270000D01*
X173900000Y-80520000D02*
X171400000Y-80520000D01*
X171400000Y-81270000D02*
X168950000Y-81270000D01*
X166650000Y-74570000D02*
X159700000Y-74570000D01*
X173900000Y-75320000D02*
X173900000Y-80520000D01*
X171400000Y-80520000D02*
X171400000Y-81270000D01*
%TO.C,J6*%
X156816008Y-97035640D02*
X156272488Y-99064084D01*
X168518510Y-98566637D02*
X168712624Y-97842193D01*
X170933325Y-99213685D02*
X168518510Y-98566637D01*
X168712624Y-97842193D02*
X166346106Y-97208086D01*
X162390389Y-103084506D02*
X155677205Y-101285713D01*
X169587466Y-104236499D02*
X167172651Y-103589452D01*
X166978537Y-104313896D02*
X164612019Y-103679789D01*
X164124477Y-96612803D02*
X157411292Y-94814010D01*
X170933325Y-99213685D02*
X169587466Y-104236499D01*
X167172651Y-103589452D02*
X166978537Y-104313896D01*
%TO.C,RV1*%
X113935718Y-43134181D02*
G75*
G03*
X113935718Y-43134181I-900000J0D01*
G01*
X114133603Y-40117769D02*
G75*
G03*
X110506204Y-41157908I-1097885J-3016412D01*
G01*
X109827895Y-43021229D02*
G75*
G03*
X113536922Y-46304620I3207823J-112952D01*
G01*
X115184322Y-45519925D02*
G75*
G03*
X116215074Y-42686999I-2148604J2385744D01*
G01*
X115458272Y-41027708D02*
G75*
G03*
X114080475Y-40098645I-2422554J-2106473D01*
G01*
%TO.C,RV2*%
X118180000Y-77800000D02*
G75*
G03*
X118180000Y-77800000I-900000J0D01*
G01*
X117280000Y-81010000D02*
G75*
G03*
X120332891Y-78791945I0J3210000D01*
G01*
X120333000Y-76809000D02*
G75*
G03*
X115724668Y-74992184I-3053000J-991000D01*
G01*
X114444999Y-76293000D02*
G75*
G03*
X114445328Y-79307618I2835001J-1507000D01*
G01*
X115724000Y-80608000D02*
G75*
G03*
X117336464Y-81009799I1556000J2808000D01*
G01*
%TO.C,RV3*%
X114152233Y-112711862D02*
G75*
G03*
X114152233Y-112711862I-900000J0D01*
G01*
X112421424Y-109611241D02*
G75*
G03*
X110046633Y-112543863I830809J-3100621D01*
G01*
X110559751Y-114459269D02*
G75*
G03*
X115481285Y-115021455I2692482J1747407D01*
G01*
X116380674Y-113433760D02*
G75*
G03*
X115600116Y-110521948I-3128441J721898D01*
G01*
X114028450Y-109596820D02*
G75*
G03*
X112366936Y-109626048I-776217J-3115042D01*
G01*
%TO.C,RV4*%
X158917767Y-43048138D02*
G75*
G03*
X158917767Y-43048138I-900000J0D01*
G01*
X158848576Y-46148759D02*
G75*
G03*
X161223367Y-43216137I-830809J3100621D01*
G01*
X160710249Y-41300731D02*
G75*
G03*
X155788715Y-40738545I-2692482J-1747407D01*
G01*
X154889326Y-42326240D02*
G75*
G03*
X155669884Y-45238052I3128441J-721898D01*
G01*
X157241550Y-46163180D02*
G75*
G03*
X158903064Y-46133952I776217J3115042D01*
G01*
%TO.C,RV5*%
X154510000Y-77960000D02*
G75*
G03*
X154510000Y-77960000I-900000J0D01*
G01*
X153610000Y-74750000D02*
G75*
G03*
X150557109Y-76968055I0J-3210000D01*
G01*
X150557000Y-78951000D02*
G75*
G03*
X155165332Y-80767816I3053000J991000D01*
G01*
X156445001Y-79467000D02*
G75*
G03*
X156444672Y-76452382I-2835001J1507000D01*
G01*
X155166000Y-75152000D02*
G75*
G03*
X153553536Y-74750201I-1556000J-2808000D01*
G01*
%TO.C,RV6*%
X158665185Y-112772952D02*
G75*
G03*
X158665185Y-112772952I-900000J0D01*
G01*
X156934376Y-115873574D02*
G75*
G03*
X160457317Y-114521244I830809J3100622D01*
G01*
X160970646Y-112605894D02*
G75*
G03*
X156989566Y-109658261I-3205461J-167058D01*
G01*
X155416826Y-110583550D02*
G75*
G03*
X154636902Y-113495532I2348359J-2189402D01*
G01*
X155535441Y-115082549D02*
G75*
G03*
X156988968Y-115887994I2229744J2309597D01*
G01*
%TD*%
M02*
