%TF.GenerationSoftware,KiCad,Pcbnew,(6.0.2-0)*%
%TF.CreationDate,2022-03-08T15:03:46+01:00*%
%TF.ProjectId,ESP_aux_breakout,4553505f-6175-4785-9f62-7265616b6f75,rev?*%
%TF.SameCoordinates,Original*%
%TF.FileFunction,Copper,L2,Bot*%
%TF.FilePolarity,Positive*%
%FSLAX46Y46*%
G04 Gerber Fmt 4.6, Leading zero omitted, Abs format (unit mm)*
G04 Created by KiCad (PCBNEW (6.0.2-0)) date 2022-03-08 15:03:46*
%MOMM*%
%LPD*%
G01*
G04 APERTURE LIST*
G04 Aperture macros list*
%AMHorizOval*
0 Thick line with rounded ends*
0 $1 width*
0 $2 $3 position (X,Y) of the first rounded end (center of the circle)*
0 $4 $5 position (X,Y) of the second rounded end (center of the circle)*
0 Add line between two ends*
20,1,$1,$2,$3,$4,$5,0*
0 Add two circle primitives to create the rounded ends*
1,1,$1,$2,$3*
1,1,$1,$4,$5*%
G04 Aperture macros list end*
%TA.AperFunction,ComponentPad*%
%ADD10C,5.000000*%
%TD*%
%TA.AperFunction,ComponentPad*%
%ADD11C,4.000000*%
%TD*%
%TA.AperFunction,ComponentPad*%
%ADD12R,1.200000X1.200000*%
%TD*%
%TA.AperFunction,ComponentPad*%
%ADD13C,1.200000*%
%TD*%
%TA.AperFunction,ComponentPad*%
%ADD14C,1.560000*%
%TD*%
%TA.AperFunction,ComponentPad*%
%ADD15R,1.560000X1.560000*%
%TD*%
%TA.AperFunction,ComponentPad*%
%ADD16HorizOval,2.000000X-0.144889X0.038823X0.144889X-0.038823X0*%
%TD*%
%TA.AperFunction,ComponentPad*%
%ADD17HorizOval,1.800000X-0.241481X0.064705X0.241481X-0.064705X0*%
%TD*%
%TA.AperFunction,ComponentPad*%
%ADD18O,2.300000X2.000000*%
%TD*%
%TA.AperFunction,ComponentPad*%
%ADD19O,2.300000X1.800000*%
%TD*%
%TA.AperFunction,ComponentPad*%
%ADD20HorizOval,2.000000X0.144889X0.038823X-0.144889X-0.038823X0*%
%TD*%
%TA.AperFunction,ComponentPad*%
%ADD21HorizOval,1.800000X0.241481X0.064705X-0.241481X-0.064705X0*%
%TD*%
%TA.AperFunction,ComponentPad*%
%ADD22HorizOval,2.000000X-0.144889X-0.038823X0.144889X0.038823X0*%
%TD*%
%TA.AperFunction,ComponentPad*%
%ADD23HorizOval,1.800000X-0.241481X-0.064705X0.241481X0.064705X0*%
%TD*%
%TA.AperFunction,ComponentPad*%
%ADD24C,1.620000*%
%TD*%
%TA.AperFunction,ViaPad*%
%ADD25C,0.800000*%
%TD*%
%TA.AperFunction,Conductor*%
%ADD26C,1.000000*%
%TD*%
G04 APERTURE END LIST*
D10*
%TO.P,U5,2*%
%TO.N,N/C*%
X163523488Y-47102796D03*
D11*
%TO.P,U5,1*%
%TO.N,Net-(C4-Pad2)*%
X158670000Y-49470000D03*
%TD*%
D12*
%TO.P,C1,1*%
%TO.N,Net-(C1-Pad1)*%
X120280000Y-46010000D03*
D13*
%TO.P,C1,2*%
%TO.N,Net-(C1-Pad2)*%
X118280000Y-46010000D03*
%TD*%
D14*
%TO.P,U1,38*%
%TO.N,Net-(U1-Pad38)*%
X148170000Y-103920000D03*
%TO.P,U1,37*%
%TO.N,Net-(U1-Pad37)*%
X148170000Y-101380000D03*
%TO.P,U1,36*%
%TO.N,Net-(U1-Pad36)*%
X148170000Y-98840000D03*
%TO.P,U1,35*%
%TO.N,Net-(U1-Pad35)*%
X148170000Y-96300000D03*
%TO.P,U1,34*%
%TO.N,Net-(U1-Pad34)*%
X148170000Y-93760000D03*
%TO.P,U1,33*%
%TO.N,Net-(U1-Pad33)*%
X148170000Y-91220000D03*
%TO.P,U1,32*%
%TO.N,Net-(U1-Pad32)*%
X148170000Y-88680000D03*
%TO.P,U1,31*%
%TO.N,Net-(U1-Pad31)*%
X148170000Y-86140000D03*
%TO.P,U1,30*%
%TO.N,Net-(U1-Pad30)*%
X148170000Y-83600000D03*
%TO.P,U1,29*%
%TO.N,Net-(U1-Pad29)*%
X148170000Y-81060000D03*
%TO.P,U1,28*%
%TO.N,Net-(U1-Pad28)*%
X148170000Y-78520000D03*
%TO.P,U1,27*%
%TO.N,Net-(U1-Pad27)*%
X148170000Y-75980000D03*
%TO.P,U1,26*%
%TO.N,Net-(J1-PadS)*%
X148170000Y-73440000D03*
%TO.P,U1,25*%
%TO.N,Net-(U1-Pad25)*%
X148170000Y-70900000D03*
%TO.P,U1,24*%
%TO.N,Net-(U1-Pad24)*%
X148170000Y-68360000D03*
%TO.P,U1,23*%
%TO.N,Net-(U1-Pad23)*%
X148170000Y-65820000D03*
%TO.P,U1,22*%
%TO.N,Net-(U1-Pad22)*%
X148170000Y-63280000D03*
%TO.P,U1,21*%
%TO.N,Net-(U1-Pad21)*%
X148170000Y-60740000D03*
%TO.P,U1,20*%
%TO.N,Net-(J1-PadS)*%
X148170000Y-58200000D03*
%TO.P,U1,18*%
%TO.N,Net-(U1-Pad18)*%
X122770000Y-101380000D03*
%TO.P,U1,17*%
%TO.N,Net-(U1-Pad17)*%
X122770000Y-98840000D03*
%TO.P,U1,16*%
%TO.N,Net-(U1-Pad16)*%
X122770000Y-96300000D03*
%TO.P,U1,15*%
%TO.N,Net-(U1-Pad15)*%
X122770000Y-93760000D03*
%TO.P,U1,14*%
%TO.N,Net-(J1-PadS)*%
X122770000Y-91220000D03*
%TO.P,U1,13*%
%TO.N,Net-(U1-Pad13)*%
X122770000Y-88680000D03*
%TO.P,U1,12*%
%TO.N,Net-(U1-Pad12)*%
X122770000Y-86140000D03*
%TO.P,U1,11*%
%TO.N,Net-(U1-Pad11)*%
X122770000Y-83600000D03*
%TO.P,U1,10*%
%TO.N,Net-(U1-Pad10)*%
X122770000Y-81060000D03*
%TO.P,U1,9*%
%TO.N,Net-(U1-Pad9)*%
X122770000Y-78520000D03*
%TO.P,U1,8*%
%TO.N,Net-(C6-Pad2)*%
X122770000Y-75980000D03*
%TO.P,U1,7*%
%TO.N,Net-(C5-Pad2)*%
X122770000Y-73440000D03*
%TO.P,U1,6*%
%TO.N,Net-(C4-Pad2)*%
X122770000Y-70900000D03*
%TO.P,U1,5*%
%TO.N,Net-(C3-Pad2)*%
X122770000Y-68360000D03*
%TO.P,U1,4*%
%TO.N,Net-(C2-Pad2)*%
X122770000Y-65820000D03*
%TO.P,U1,3*%
%TO.N,Net-(C1-Pad2)*%
X122770000Y-63280000D03*
%TO.P,U1,19*%
%TO.N,Net-(U1-Pad19)*%
X122770000Y-103920000D03*
%TO.P,U1,2*%
%TO.N,Net-(U1-Pad2)*%
X122770000Y-60740000D03*
D15*
%TO.P,U1,1*%
%TO.N,Net-(C1-Pad1)*%
X122770000Y-58200000D03*
%TD*%
D16*
%TO.P,J1,T*%
%TO.N,Net-(C1-Pad2)*%
X107253505Y-53227408D03*
X105830000Y-58540000D03*
D17*
%TO.P,J1,S*%
%TO.N,Net-(J1-PadS)*%
X113190912Y-60046476D03*
%TO.P,J1,R*%
%TO.N,Net-(J1-PadR)*%
X114381480Y-55603217D03*
%TD*%
D12*
%TO.P,C2,1*%
%TO.N,Net-(C1-Pad1)*%
X112880000Y-70270000D03*
D13*
%TO.P,C2,2*%
%TO.N,Net-(C2-Pad2)*%
X110880000Y-70270000D03*
%TD*%
D12*
%TO.P,C3,1*%
%TO.N,Net-(C1-Pad1)*%
X119250000Y-108950000D03*
D13*
%TO.P,C3,2*%
%TO.N,Net-(C3-Pad2)*%
X121250000Y-108950000D03*
%TD*%
D12*
%TO.P,C4,1*%
%TO.N,Net-(C1-Pad1)*%
X152640000Y-46390000D03*
D13*
%TO.P,C4,2*%
%TO.N,Net-(C4-Pad2)*%
X150640000Y-46390000D03*
%TD*%
D12*
%TO.P,C5,1*%
%TO.N,Net-(C1-Pad1)*%
X158320000Y-69210000D03*
D13*
%TO.P,C5,2*%
%TO.N,Net-(C5-Pad2)*%
X160320000Y-69210000D03*
%TD*%
D12*
%TO.P,C6,1*%
%TO.N,Net-(C1-Pad1)*%
X150220000Y-109450000D03*
D13*
%TO.P,C6,2*%
%TO.N,Net-(C6-Pad2)*%
X152220000Y-109450000D03*
%TD*%
D18*
%TO.P,J2,T*%
%TO.N,Net-(C2-Pad2)*%
X103180000Y-75140000D03*
X103180000Y-80640000D03*
D19*
%TO.P,J2,S*%
%TO.N,Net-(J1-PadS)*%
X110680000Y-80190000D03*
%TO.P,J2,R*%
%TO.N,Net-(J2-PadR)*%
X110680000Y-75590000D03*
%TD*%
D20*
%TO.P,J3,T*%
%TO.N,Net-(C3-Pad2)*%
X105866495Y-97407408D03*
X107290000Y-102720000D03*
D21*
%TO.P,J3,S*%
%TO.N,Net-(J1-PadS)*%
X114417975Y-100344191D03*
%TO.P,J3,R*%
%TO.N,Net-(J3-PadR)*%
X113227408Y-95900932D03*
%TD*%
D22*
%TO.P,J4,T*%
%TO.N,Net-(C4-Pad2)*%
X165123505Y-58512592D03*
X163700000Y-53200000D03*
D23*
%TO.P,J4,S*%
%TO.N,Net-(J1-PadS)*%
X156572025Y-55575809D03*
%TO.P,J4,R*%
%TO.N,Net-(J4-PadR)*%
X157762592Y-60019068D03*
%TD*%
D18*
%TO.P,J5,T*%
%TO.N,Net-(C5-Pad2)*%
X167800000Y-80670000D03*
X167800000Y-75170000D03*
D19*
%TO.P,J5,S*%
%TO.N,Net-(J1-PadS)*%
X160300000Y-75620000D03*
%TO.P,J5,R*%
%TO.N,Net-(J5-PadR)*%
X160300000Y-80220000D03*
%TD*%
D16*
%TO.P,J6,T*%
%TO.N,Net-(C6-Pad2)*%
X163656495Y-102802592D03*
X165080000Y-97490000D03*
D17*
%TO.P,J6,S*%
%TO.N,Net-(J1-PadS)*%
X157719088Y-95983524D03*
%TO.P,J6,R*%
%TO.N,Net-(J6-PadR)*%
X156528520Y-100426783D03*
%TD*%
D24*
%TO.P,RV1,3*%
%TO.N,Net-(C1-Pad2)*%
X114529899Y-46338463D03*
%TO.P,RV1,2*%
%TO.N,Net-(C1-Pad1)*%
X110686487Y-42279131D03*
%TO.P,RV1,1*%
%TO.N,Net-(RV1-Pad1)*%
X116240000Y-41640000D03*
%TD*%
%TO.P,RV2,3*%
%TO.N,Net-(C2-Pad2)*%
X114780000Y-75300000D03*
%TO.P,RV2,2*%
%TO.N,Net-(C1-Pad1)*%
X119780000Y-77800000D03*
%TO.P,RV2,1*%
%TO.N,Net-(RV2-Pad1)*%
X114780000Y-80300000D03*
%TD*%
%TO.P,RV3,3*%
%TO.N,Net-(C3-Pad2)*%
X116314095Y-114479629D03*
%TO.P,RV3,2*%
%TO.N,Net-(C1-Pad1)*%
X110837418Y-113358910D03*
%TO.P,RV3,1*%
%TO.N,Net-(RV3-Pad1)*%
X115020000Y-109650000D03*
%TD*%
%TO.P,RV4,3*%
%TO.N,Net-(C4-Pad2)*%
X154955905Y-41280371D03*
%TO.P,RV4,2*%
%TO.N,Net-(C1-Pad1)*%
X160432582Y-42401090D03*
%TO.P,RV4,1*%
%TO.N,Net-(RV4-Pad1)*%
X156250000Y-46110000D03*
%TD*%
%TO.P,RV5,3*%
%TO.N,Net-(C5-Pad2)*%
X156110000Y-80460000D03*
%TO.P,RV5,2*%
%TO.N,Net-(C1-Pad1)*%
X151110000Y-77960000D03*
%TO.P,RV5,1*%
%TO.N,Net-(RV5-Pad1)*%
X156110000Y-75460000D03*
%TD*%
%TO.P,RV6,3*%
%TO.N,Net-(C6-Pad2)*%
X155997418Y-109711090D03*
%TO.P,RV6,2*%
%TO.N,Net-(C1-Pad1)*%
X160180000Y-113420000D03*
%TO.P,RV6,1*%
%TO.N,Net-(RV6-Pad1)*%
X154703323Y-114540719D03*
%TD*%
D10*
%TO.P,U2,2*%
%TO.N,N/C*%
X107256512Y-47112796D03*
D11*
%TO.P,U2,1*%
%TO.N,Net-(C1-Pad2)*%
X112110000Y-49480000D03*
%TD*%
D10*
%TO.P,U3,2*%
%TO.N,N/C*%
X101240549Y-69269359D03*
D11*
%TO.P,U3,1*%
%TO.N,Net-(C2-Pad2)*%
X106620000Y-69740000D03*
%TD*%
D10*
%TO.P,U4,2*%
%TO.N,N/C*%
X107176512Y-108837204D03*
D11*
%TO.P,U4,1*%
%TO.N,Net-(C3-Pad2)*%
X112030000Y-106470000D03*
%TD*%
D10*
%TO.P,U6,2*%
%TO.N,N/C*%
X169519451Y-69269359D03*
D11*
%TO.P,U6,1*%
%TO.N,Net-(C5-Pad2)*%
X164140000Y-69740000D03*
%TD*%
D10*
%TO.P,U7,2*%
%TO.N,N/C*%
X163643488Y-108867204D03*
D11*
%TO.P,U7,1*%
%TO.N,Net-(C6-Pad2)*%
X158790000Y-106500000D03*
%TD*%
D10*
%TO.P,U8,2*%
%TO.N,N/C*%
X130199359Y-42570549D03*
D11*
%TO.P,U8,1*%
%TO.N,Net-(C1-Pad1)*%
X130670000Y-47950000D03*
%TD*%
D10*
%TO.P,U9,2*%
%TO.N,N/C*%
X130189359Y-113359451D03*
D11*
%TO.P,U9,1*%
%TO.N,Net-(U1-Pad19)*%
X130660000Y-107980000D03*
%TD*%
D10*
%TO.P,U10,2*%
%TO.N,N/C*%
X140580641Y-42570549D03*
D11*
%TO.P,U10,1*%
%TO.N,Net-(J1-PadS)*%
X140110000Y-47950000D03*
%TD*%
D10*
%TO.P,U11,2*%
%TO.N,N/C*%
X140610641Y-113359451D03*
D11*
%TO.P,U11,1*%
%TO.N,Net-(J1-PadS)*%
X140140000Y-107980000D03*
%TD*%
D25*
%TO.N,Net-(J1-PadS)*%
X154740000Y-52750000D03*
X149830000Y-50690000D03*
X134120000Y-54170000D03*
X129570000Y-62130000D03*
%TD*%
D26*
%TO.N,Net-(C1-Pad1)*%
X123140000Y-58290000D02*
X121500000Y-58290000D01*
X121500000Y-58290000D02*
X112890000Y-66900000D01*
X112890000Y-66900000D02*
X112890000Y-70150000D01*
X112890000Y-70150000D02*
X115450000Y-72710000D01*
X115450000Y-72710000D02*
X119680000Y-72710000D01*
X119680000Y-72710000D02*
X119680000Y-77820000D01*
X119680000Y-77820000D02*
X119770000Y-77820000D01*
X119770000Y-108500000D02*
X119280000Y-108990000D01*
X119280000Y-108990000D02*
X116590000Y-111680000D01*
X116590000Y-111680000D02*
X112520000Y-111680000D01*
X112520000Y-111680000D02*
X110830000Y-113370000D01*
X119250000Y-108950000D02*
X119250000Y-108700000D01*
X150220000Y-109450000D02*
X148460000Y-109450000D01*
X148460000Y-109450000D02*
X141000000Y-101990000D01*
X141000000Y-101990000D02*
X130650000Y-101990000D01*
X125710000Y-106930000D02*
X119770000Y-106930000D01*
X130650000Y-101990000D02*
X125710000Y-106930000D01*
X119770000Y-106930000D02*
X119770000Y-108500000D01*
X119770000Y-77820000D02*
X119770000Y-106930000D01*
X150220000Y-109450000D02*
X150220000Y-110400000D01*
X150220000Y-110400000D02*
X151950000Y-112130000D01*
X151950000Y-112130000D02*
X158760000Y-112130000D01*
X158760000Y-112130000D02*
X160050000Y-113420000D01*
X160050000Y-113420000D02*
X160130000Y-113420000D01*
X152800000Y-50990000D02*
X152800000Y-46800000D01*
X158320000Y-69210000D02*
X152780000Y-69210000D01*
X152780000Y-55920000D02*
X150325000Y-53465000D01*
X152780000Y-69210000D02*
X152780000Y-55920000D01*
X152800000Y-50990000D02*
X150325000Y-53465000D01*
X150325000Y-53465000D02*
X138905000Y-53465000D01*
X138905000Y-53465000D02*
X134120000Y-58250000D01*
X134120000Y-58250000D02*
X123210000Y-58250000D01*
X151230000Y-70760000D02*
X152780000Y-69210000D01*
X151230000Y-77450000D02*
X151230000Y-70760000D01*
%TO.N,Net-(J1-PadS)*%
X114417975Y-100344191D02*
X114417975Y-100192025D01*
X114417975Y-100192025D02*
X117120000Y-97490000D01*
X117120000Y-97490000D02*
X117120000Y-92710000D01*
X117120000Y-92710000D02*
X110610000Y-86200000D01*
X110610000Y-86200000D02*
X110610000Y-80220000D01*
X113190912Y-60046476D02*
X115583524Y-60046476D01*
X115583524Y-60046476D02*
X121380000Y-54250000D01*
X121380000Y-54250000D02*
X134040000Y-54250000D01*
X134040000Y-54250000D02*
X134120000Y-54170000D01*
X143550000Y-73590000D02*
X148300000Y-73590000D01*
X163049999Y-78369999D02*
X163049999Y-84990001D01*
X160300000Y-75620000D02*
X163049999Y-78369999D01*
X163049999Y-84990001D02*
X157740000Y-90300000D01*
X157740000Y-90300000D02*
X157740000Y-95920000D01*
X141950000Y-71990000D02*
X141950000Y-77210000D01*
X140390000Y-70430000D02*
X141950000Y-71990000D01*
X141950000Y-71990000D02*
X143550000Y-73590000D01*
X141950000Y-77210000D02*
X127910000Y-91250000D01*
X127910000Y-91250000D02*
X123160000Y-91250000D01*
X123160000Y-91250000D02*
X123110000Y-91300000D01*
X156572025Y-55575809D02*
X156572025Y-54582025D01*
X156572025Y-54582025D02*
X154740000Y-52750000D01*
X140110000Y-47950000D02*
X147090000Y-47950000D01*
X147090000Y-47950000D02*
X149830000Y-50690000D01*
X154740000Y-52750000D02*
X154740000Y-52750000D01*
X149830000Y-50690000D02*
X149830000Y-50690000D01*
X134120000Y-54170000D02*
X140130000Y-48160000D01*
X129570000Y-62130000D02*
X129570000Y-64310000D01*
X134010000Y-68750000D02*
X140390000Y-68750000D01*
X140390000Y-68750000D02*
X140390000Y-70430000D01*
X129570000Y-64310000D02*
X134010000Y-68750000D01*
X140390000Y-66440000D02*
X140390000Y-68750000D01*
X148170000Y-58200000D02*
X146510000Y-58200000D01*
X140390000Y-64320000D02*
X140390000Y-66440000D01*
X146510000Y-58200000D02*
X140390000Y-64320000D01*
%TD*%
M02*
