%TF.GenerationSoftware,KiCad,Pcbnew,(6.0.2-0)*%
%TF.CreationDate,2022-03-08T15:03:46+01:00*%
%TF.ProjectId,ESP_aux_breakout,4553505f-6175-4785-9f62-7265616b6f75,rev?*%
%TF.SameCoordinates,Original*%
%TF.FileFunction,Copper,L1,Top*%
%TF.FilePolarity,Positive*%
%FSLAX46Y46*%
G04 Gerber Fmt 4.6, Leading zero omitted, Abs format (unit mm)*
G04 Created by KiCad (PCBNEW (6.0.2-0)) date 2022-03-08 15:03:46*
%MOMM*%
%LPD*%
G01*
G04 APERTURE LIST*
G04 Aperture macros list*
%AMHorizOval*
0 Thick line with rounded ends*
0 $1 width*
0 $2 $3 position (X,Y) of the first rounded end (center of the circle)*
0 $4 $5 position (X,Y) of the second rounded end (center of the circle)*
0 Add line between two ends*
20,1,$1,$2,$3,$4,$5,0*
0 Add two circle primitives to create the rounded ends*
1,1,$1,$2,$3*
1,1,$1,$4,$5*%
G04 Aperture macros list end*
%TA.AperFunction,EtchedComponent*%
%ADD10C,0.100000*%
%TD*%
%TA.AperFunction,ComponentPad*%
%ADD11C,5.000000*%
%TD*%
%TA.AperFunction,ComponentPad*%
%ADD12C,4.000000*%
%TD*%
%TA.AperFunction,ComponentPad*%
%ADD13R,1.200000X1.200000*%
%TD*%
%TA.AperFunction,ComponentPad*%
%ADD14C,1.200000*%
%TD*%
%TA.AperFunction,ComponentPad*%
%ADD15C,1.560000*%
%TD*%
%TA.AperFunction,ComponentPad*%
%ADD16R,1.560000X1.560000*%
%TD*%
%TA.AperFunction,ComponentPad*%
%ADD17HorizOval,2.000000X-0.144889X0.038823X0.144889X-0.038823X0*%
%TD*%
%TA.AperFunction,ComponentPad*%
%ADD18HorizOval,1.800000X-0.241481X0.064705X0.241481X-0.064705X0*%
%TD*%
%TA.AperFunction,ComponentPad*%
%ADD19O,2.300000X2.000000*%
%TD*%
%TA.AperFunction,ComponentPad*%
%ADD20O,2.300000X1.800000*%
%TD*%
%TA.AperFunction,ComponentPad*%
%ADD21HorizOval,2.000000X0.144889X0.038823X-0.144889X-0.038823X0*%
%TD*%
%TA.AperFunction,ComponentPad*%
%ADD22HorizOval,1.800000X0.241481X0.064705X-0.241481X-0.064705X0*%
%TD*%
%TA.AperFunction,ComponentPad*%
%ADD23HorizOval,2.000000X-0.144889X-0.038823X0.144889X0.038823X0*%
%TD*%
%TA.AperFunction,ComponentPad*%
%ADD24HorizOval,1.800000X-0.241481X-0.064705X0.241481X0.064705X0*%
%TD*%
%TA.AperFunction,ComponentPad*%
%ADD25C,1.620000*%
%TD*%
%TA.AperFunction,ViaPad*%
%ADD26C,0.800000*%
%TD*%
%TA.AperFunction,Conductor*%
%ADD27C,1.000000*%
%TD*%
G04 APERTURE END LIST*
D10*
%TO.C,U5*%
X162019795Y-45388472D02*
X161291939Y-46633552D01*
X161291939Y-46633552D02*
X161283118Y-47527936D01*
X161283118Y-47527936D02*
X161809164Y-48606489D01*
X161809164Y-48606489D02*
X163054244Y-49334345D01*
X163054244Y-49334345D02*
X163948628Y-49343165D01*
X163948628Y-49343165D02*
X164036302Y-49522924D01*
X164036302Y-49522924D02*
X159546742Y-51267588D01*
X159546742Y-51267588D02*
X159459068Y-51087829D01*
X159459068Y-51087829D02*
X160090429Y-50557374D01*
X160090429Y-50557374D02*
X160366683Y-49755074D01*
X160366683Y-49755074D02*
X160375504Y-48860691D01*
X160375504Y-48860691D02*
X160024807Y-48141656D01*
X160024807Y-48141656D02*
X158955074Y-47773317D01*
X158955074Y-47773317D02*
X158240450Y-47676822D01*
X158240450Y-47676822D02*
X157880932Y-47852171D01*
X157880932Y-47852171D02*
X157793258Y-47672412D01*
X157793258Y-47672412D02*
X161932121Y-45208713D01*
X161932121Y-45208713D02*
X162019795Y-45388472D01*
G36*
X162019795Y-45388472D02*
G01*
X161291939Y-46633552D01*
X161283118Y-47527936D01*
X161809164Y-48606489D01*
X163054244Y-49334345D01*
X163948628Y-49343165D01*
X164036302Y-49522924D01*
X159546742Y-51267588D01*
X159459068Y-51087829D01*
X160090429Y-50557374D01*
X160366683Y-49755074D01*
X160375504Y-48860691D01*
X160024807Y-48141656D01*
X158955074Y-47773317D01*
X158240450Y-47676822D01*
X157880932Y-47852171D01*
X157793258Y-47672412D01*
X161932121Y-45208713D01*
X162019795Y-45388472D01*
G37*
X162019795Y-45388472D02*
X161291939Y-46633552D01*
X161283118Y-47527936D01*
X161809164Y-48606489D01*
X163054244Y-49334345D01*
X163948628Y-49343165D01*
X164036302Y-49522924D01*
X159546742Y-51267588D01*
X159459068Y-51087829D01*
X160090429Y-50557374D01*
X160366683Y-49755074D01*
X160375504Y-48860691D01*
X160024807Y-48141656D01*
X158955074Y-47773317D01*
X158240450Y-47676822D01*
X157880932Y-47852171D01*
X157793258Y-47672412D01*
X161932121Y-45208713D01*
X162019795Y-45388472D01*
%TO.C,U2*%
X106831372Y-49353165D02*
X108260622Y-49160176D01*
X108260622Y-49160176D02*
X108970836Y-48616489D01*
X108970836Y-48616489D02*
X109496882Y-47537936D01*
X109496882Y-47537936D02*
X109303892Y-46108686D01*
X109303892Y-46108686D02*
X108760205Y-45398472D01*
X108760205Y-45398472D02*
X108847879Y-45218713D01*
X108847879Y-45218713D02*
X112986742Y-47682412D01*
X112986742Y-47682412D02*
X112899068Y-47862171D01*
X112899068Y-47862171D02*
X112092359Y-47691233D01*
X112092359Y-47691233D02*
X111290059Y-47967486D01*
X111290059Y-47967486D02*
X110579845Y-48511173D01*
X110579845Y-48511173D02*
X110229148Y-49230208D01*
X110229148Y-49230208D02*
X110597486Y-50299941D01*
X110597486Y-50299941D02*
X110961414Y-50922481D01*
X110961414Y-50922481D02*
X111320932Y-51097829D01*
X111320932Y-51097829D02*
X111233258Y-51277588D01*
X111233258Y-51277588D02*
X106743698Y-49532924D01*
X106743698Y-49532924D02*
X106831372Y-49353165D01*
G36*
X112986742Y-47682412D02*
G01*
X112899068Y-47862171D01*
X112092359Y-47691233D01*
X111290059Y-47967486D01*
X110579845Y-48511173D01*
X110229148Y-49230208D01*
X110597486Y-50299941D01*
X110961414Y-50922481D01*
X111320932Y-51097829D01*
X111233258Y-51277588D01*
X106743698Y-49532924D01*
X106831372Y-49353165D01*
X108260622Y-49160176D01*
X108970836Y-48616489D01*
X109496882Y-47537936D01*
X109303892Y-46108686D01*
X108760205Y-45398472D01*
X108847879Y-45218713D01*
X112986742Y-47682412D01*
G37*
X112986742Y-47682412D02*
X112899068Y-47862171D01*
X112092359Y-47691233D01*
X111290059Y-47967486D01*
X110579845Y-48511173D01*
X110229148Y-49230208D01*
X110597486Y-50299941D01*
X110961414Y-50922481D01*
X111320932Y-51097829D01*
X111233258Y-51277588D01*
X106743698Y-49532924D01*
X106831372Y-49353165D01*
X108260622Y-49160176D01*
X108970836Y-48616489D01*
X109496882Y-47537936D01*
X109303892Y-46108686D01*
X108760205Y-45398472D01*
X108847879Y-45218713D01*
X112986742Y-47682412D01*
%TO.C,U3*%
X101646523Y-71513281D02*
X102911681Y-70820912D01*
X102911681Y-70820912D02*
X103379884Y-70058818D01*
X103379884Y-70058818D02*
X103484470Y-68863385D01*
X103484470Y-68863385D02*
X102792102Y-67598227D01*
X102792102Y-67598227D02*
X102030008Y-67130024D01*
X102030008Y-67130024D02*
X102047439Y-66930785D01*
X102047439Y-66930785D02*
X106794311Y-67747611D01*
X106794311Y-67747611D02*
X106776880Y-67946850D01*
X106776880Y-67946850D02*
X105962493Y-68076364D01*
X105962493Y-68076364D02*
X105312483Y-68621787D01*
X105312483Y-68621787D02*
X104844281Y-69383881D01*
X104844281Y-69383881D02*
X104774556Y-70180836D01*
X104774556Y-70180836D02*
X105501787Y-71047517D01*
X105501787Y-71047517D02*
X106064642Y-71498288D01*
X106064642Y-71498288D02*
X106463120Y-71533150D01*
X106463120Y-71533150D02*
X106445689Y-71732389D01*
X106445689Y-71732389D02*
X101629092Y-71712520D01*
X101629092Y-71712520D02*
X101646523Y-71513281D01*
G36*
X106794311Y-67747611D02*
G01*
X106776880Y-67946850D01*
X105962493Y-68076364D01*
X105312483Y-68621787D01*
X104844281Y-69383881D01*
X104774556Y-70180836D01*
X105501787Y-71047517D01*
X106064642Y-71498288D01*
X106463120Y-71533150D01*
X106445689Y-71732389D01*
X101629092Y-71712520D01*
X101646523Y-71513281D01*
X102911681Y-70820912D01*
X103379884Y-70058818D01*
X103484470Y-68863385D01*
X102792102Y-67598227D01*
X102030008Y-67130024D01*
X102047439Y-66930785D01*
X106794311Y-67747611D01*
G37*
X106794311Y-67747611D02*
X106776880Y-67946850D01*
X105962493Y-68076364D01*
X105312483Y-68621787D01*
X104844281Y-69383881D01*
X104774556Y-70180836D01*
X105501787Y-71047517D01*
X106064642Y-71498288D01*
X106463120Y-71533150D01*
X106445689Y-71732389D01*
X101629092Y-71712520D01*
X101646523Y-71513281D01*
X102911681Y-70820912D01*
X103379884Y-70058818D01*
X103484470Y-68863385D01*
X102792102Y-67598227D01*
X102030008Y-67130024D01*
X102047439Y-66930785D01*
X106794311Y-67747611D01*
%TO.C,U4*%
X108680205Y-110551528D02*
X109408061Y-109306448D01*
X109408061Y-109306448D02*
X109416882Y-108412064D01*
X109416882Y-108412064D02*
X108890836Y-107333511D01*
X108890836Y-107333511D02*
X107645756Y-106605655D01*
X107645756Y-106605655D02*
X106751372Y-106596835D01*
X106751372Y-106596835D02*
X106663698Y-106417076D01*
X106663698Y-106417076D02*
X111153258Y-104672412D01*
X111153258Y-104672412D02*
X111240932Y-104852171D01*
X111240932Y-104852171D02*
X110609571Y-105382626D01*
X110609571Y-105382626D02*
X110333317Y-106184926D01*
X110333317Y-106184926D02*
X110324496Y-107079309D01*
X110324496Y-107079309D02*
X110675193Y-107798344D01*
X110675193Y-107798344D02*
X111744926Y-108166683D01*
X111744926Y-108166683D02*
X112459550Y-108263178D01*
X112459550Y-108263178D02*
X112819068Y-108087829D01*
X112819068Y-108087829D02*
X112906742Y-108267588D01*
X112906742Y-108267588D02*
X108767879Y-110731287D01*
X108767879Y-110731287D02*
X108680205Y-110551528D01*
G36*
X111240932Y-104852171D02*
G01*
X110609571Y-105382626D01*
X110333317Y-106184926D01*
X110324496Y-107079309D01*
X110675193Y-107798344D01*
X111744926Y-108166683D01*
X112459550Y-108263178D01*
X112819068Y-108087829D01*
X112906742Y-108267588D01*
X108767879Y-110731287D01*
X108680205Y-110551528D01*
X109408061Y-109306448D01*
X109416882Y-108412064D01*
X108890836Y-107333511D01*
X107645756Y-106605655D01*
X106751372Y-106596835D01*
X106663698Y-106417076D01*
X111153258Y-104672412D01*
X111240932Y-104852171D01*
G37*
X111240932Y-104852171D02*
X110609571Y-105382626D01*
X110333317Y-106184926D01*
X110324496Y-107079309D01*
X110675193Y-107798344D01*
X111744926Y-108166683D01*
X112459550Y-108263178D01*
X112819068Y-108087829D01*
X112906742Y-108267588D01*
X108767879Y-110731287D01*
X108680205Y-110551528D01*
X109408061Y-109306448D01*
X109416882Y-108412064D01*
X108890836Y-107333511D01*
X107645756Y-106605655D01*
X106751372Y-106596835D01*
X106663698Y-106417076D01*
X111153258Y-104672412D01*
X111240932Y-104852171D01*
%TO.C,U6*%
X168729992Y-67130024D02*
X167604283Y-68031567D01*
X167604283Y-68031567D02*
X167275530Y-68863385D01*
X167275530Y-68863385D02*
X167380116Y-70058818D01*
X167380116Y-70058818D02*
X168281659Y-71184527D01*
X168281659Y-71184527D02*
X169113477Y-71513281D01*
X169113477Y-71513281D02*
X169130908Y-71712520D01*
X169130908Y-71712520D02*
X164314311Y-71732389D01*
X164314311Y-71732389D02*
X164296880Y-71533150D01*
X164296880Y-71533150D02*
X165076405Y-71264187D01*
X165076405Y-71264187D02*
X165621828Y-70614177D01*
X165621828Y-70614177D02*
X165950582Y-69782359D01*
X165950582Y-69782359D02*
X165880857Y-68985403D01*
X165880857Y-68985403D02*
X165014177Y-68258172D01*
X165014177Y-68258172D02*
X164381598Y-67911987D01*
X164381598Y-67911987D02*
X163983120Y-67946850D01*
X163983120Y-67946850D02*
X163965689Y-67747611D01*
X163965689Y-67747611D02*
X168712561Y-66930785D01*
X168712561Y-66930785D02*
X168729992Y-67130024D01*
G36*
X168729992Y-67130024D02*
G01*
X167604283Y-68031567D01*
X167275530Y-68863385D01*
X167380116Y-70058818D01*
X168281659Y-71184527D01*
X169113477Y-71513281D01*
X169130908Y-71712520D01*
X164314311Y-71732389D01*
X164296880Y-71533150D01*
X165076405Y-71264187D01*
X165621828Y-70614177D01*
X165950582Y-69782359D01*
X165880857Y-68985403D01*
X165014177Y-68258172D01*
X164381598Y-67911987D01*
X163983120Y-67946850D01*
X163965689Y-67747611D01*
X168712561Y-66930785D01*
X168729992Y-67130024D01*
G37*
X168729992Y-67130024D02*
X167604283Y-68031567D01*
X167275530Y-68863385D01*
X167380116Y-70058818D01*
X168281659Y-71184527D01*
X169113477Y-71513281D01*
X169130908Y-71712520D01*
X164314311Y-71732389D01*
X164296880Y-71533150D01*
X165076405Y-71264187D01*
X165621828Y-70614177D01*
X165950582Y-69782359D01*
X165880857Y-68985403D01*
X165014177Y-68258172D01*
X164381598Y-67911987D01*
X163983120Y-67946850D01*
X163965689Y-67747611D01*
X168712561Y-66930785D01*
X168729992Y-67130024D01*
%TO.C,U7*%
X164068628Y-106626835D02*
X162639378Y-106819824D01*
X162639378Y-106819824D02*
X161929164Y-107363511D01*
X161929164Y-107363511D02*
X161403118Y-108442064D01*
X161403118Y-108442064D02*
X161596108Y-109871314D01*
X161596108Y-109871314D02*
X162139795Y-110581528D01*
X162139795Y-110581528D02*
X162052121Y-110761287D01*
X162052121Y-110761287D02*
X157913258Y-108297588D01*
X157913258Y-108297588D02*
X158000932Y-108117829D01*
X158000932Y-108117829D02*
X158807641Y-108288767D01*
X158807641Y-108288767D02*
X159609941Y-108012514D01*
X159609941Y-108012514D02*
X160320155Y-107468827D01*
X160320155Y-107468827D02*
X160670852Y-106749792D01*
X160670852Y-106749792D02*
X160302514Y-105680059D01*
X160302514Y-105680059D02*
X159938586Y-105057519D01*
X159938586Y-105057519D02*
X159579068Y-104882171D01*
X159579068Y-104882171D02*
X159666742Y-104702412D01*
X159666742Y-104702412D02*
X164156302Y-106447076D01*
X164156302Y-106447076D02*
X164068628Y-106626835D01*
G36*
X164156302Y-106447076D02*
G01*
X164068628Y-106626835D01*
X162639378Y-106819824D01*
X161929164Y-107363511D01*
X161403118Y-108442064D01*
X161596108Y-109871314D01*
X162139795Y-110581528D01*
X162052121Y-110761287D01*
X157913258Y-108297588D01*
X158000932Y-108117829D01*
X158807641Y-108288767D01*
X159609941Y-108012514D01*
X160320155Y-107468827D01*
X160670852Y-106749792D01*
X160302514Y-105680059D01*
X159938586Y-105057519D01*
X159579068Y-104882171D01*
X159666742Y-104702412D01*
X164156302Y-106447076D01*
G37*
X164156302Y-106447076D02*
X164068628Y-106626835D01*
X162639378Y-106819824D01*
X161929164Y-107363511D01*
X161403118Y-108442064D01*
X161596108Y-109871314D01*
X162139795Y-110581528D01*
X162052121Y-110761287D01*
X157913258Y-108297588D01*
X158000932Y-108117829D01*
X158807641Y-108288767D01*
X159609941Y-108012514D01*
X160320155Y-107468827D01*
X160670852Y-106749792D01*
X160302514Y-105680059D01*
X159938586Y-105057519D01*
X159579068Y-104882171D01*
X159666742Y-104702412D01*
X164156302Y-106447076D01*
%TO.C,U8*%
X128060024Y-43360008D02*
X128961567Y-44485717D01*
X128961567Y-44485717D02*
X129793385Y-44814470D01*
X129793385Y-44814470D02*
X130988818Y-44709884D01*
X130988818Y-44709884D02*
X132114527Y-43808341D01*
X132114527Y-43808341D02*
X132443281Y-42976523D01*
X132443281Y-42976523D02*
X132642520Y-42959092D01*
X132642520Y-42959092D02*
X132662389Y-47775689D01*
X132662389Y-47775689D02*
X132463150Y-47793120D01*
X132463150Y-47793120D02*
X132194187Y-47013595D01*
X132194187Y-47013595D02*
X131544177Y-46468172D01*
X131544177Y-46468172D02*
X130712359Y-46139418D01*
X130712359Y-46139418D02*
X129915403Y-46209143D01*
X129915403Y-46209143D02*
X129188172Y-47075823D01*
X129188172Y-47075823D02*
X128841987Y-47708402D01*
X128841987Y-47708402D02*
X128876850Y-48106880D01*
X128876850Y-48106880D02*
X128677611Y-48124311D01*
X128677611Y-48124311D02*
X127860785Y-43377439D01*
X127860785Y-43377439D02*
X128060024Y-43360008D01*
G36*
X132662389Y-47775689D02*
G01*
X132463150Y-47793120D01*
X132194187Y-47013595D01*
X131544177Y-46468172D01*
X130712359Y-46139418D01*
X129915403Y-46209143D01*
X129188172Y-47075823D01*
X128841987Y-47708402D01*
X128876850Y-48106880D01*
X128677611Y-48124311D01*
X127860785Y-43377439D01*
X128060024Y-43360008D01*
X128961567Y-44485717D01*
X129793385Y-44814470D01*
X130988818Y-44709884D01*
X132114527Y-43808341D01*
X132443281Y-42976523D01*
X132642520Y-42959092D01*
X132662389Y-47775689D01*
G37*
X132662389Y-47775689D02*
X132463150Y-47793120D01*
X132194187Y-47013595D01*
X131544177Y-46468172D01*
X130712359Y-46139418D01*
X129915403Y-46209143D01*
X129188172Y-47075823D01*
X128841987Y-47708402D01*
X128876850Y-48106880D01*
X128677611Y-48124311D01*
X127860785Y-43377439D01*
X128060024Y-43360008D01*
X128961567Y-44485717D01*
X129793385Y-44814470D01*
X130988818Y-44709884D01*
X132114527Y-43808341D01*
X132443281Y-42976523D01*
X132642520Y-42959092D01*
X132662389Y-47775689D01*
%TO.C,U9*%
X132433281Y-112953477D02*
X131740912Y-111688319D01*
X131740912Y-111688319D02*
X130978818Y-111220116D01*
X130978818Y-111220116D02*
X129783385Y-111115530D01*
X129783385Y-111115530D02*
X128518227Y-111807898D01*
X128518227Y-111807898D02*
X128050024Y-112569992D01*
X128050024Y-112569992D02*
X127850785Y-112552561D01*
X127850785Y-112552561D02*
X128667611Y-107805689D01*
X128667611Y-107805689D02*
X128866850Y-107823120D01*
X128866850Y-107823120D02*
X128996364Y-108637507D01*
X128996364Y-108637507D02*
X129541787Y-109287517D01*
X129541787Y-109287517D02*
X130303881Y-109755719D01*
X130303881Y-109755719D02*
X131100836Y-109825444D01*
X131100836Y-109825444D02*
X131967517Y-109098213D01*
X131967517Y-109098213D02*
X132418288Y-108535358D01*
X132418288Y-108535358D02*
X132453150Y-108136880D01*
X132453150Y-108136880D02*
X132652389Y-108154311D01*
X132652389Y-108154311D02*
X132632520Y-112970908D01*
X132632520Y-112970908D02*
X132433281Y-112953477D01*
G36*
X128866850Y-107823120D02*
G01*
X128996364Y-108637507D01*
X129541787Y-109287517D01*
X130303881Y-109755719D01*
X131100836Y-109825444D01*
X131967517Y-109098213D01*
X132418288Y-108535358D01*
X132453150Y-108136880D01*
X132652389Y-108154311D01*
X132632520Y-112970908D01*
X132433281Y-112953477D01*
X131740912Y-111688319D01*
X130978818Y-111220116D01*
X129783385Y-111115530D01*
X128518227Y-111807898D01*
X128050024Y-112569992D01*
X127850785Y-112552561D01*
X128667611Y-107805689D01*
X128866850Y-107823120D01*
G37*
X128866850Y-107823120D02*
X128996364Y-108637507D01*
X129541787Y-109287517D01*
X130303881Y-109755719D01*
X131100836Y-109825444D01*
X131967517Y-109098213D01*
X132418288Y-108535358D01*
X132453150Y-108136880D01*
X132652389Y-108154311D01*
X132632520Y-112970908D01*
X132433281Y-112953477D01*
X131740912Y-111688319D01*
X130978818Y-111220116D01*
X129783385Y-111115530D01*
X128518227Y-111807898D01*
X128050024Y-112569992D01*
X127850785Y-112552561D01*
X128667611Y-107805689D01*
X128866850Y-107823120D01*
%TO.C,U10*%
X138336719Y-42976523D02*
X139029088Y-44241681D01*
X139029088Y-44241681D02*
X139791182Y-44709884D01*
X139791182Y-44709884D02*
X140986615Y-44814470D01*
X140986615Y-44814470D02*
X142251773Y-44122102D01*
X142251773Y-44122102D02*
X142719976Y-43360008D01*
X142719976Y-43360008D02*
X142919215Y-43377439D01*
X142919215Y-43377439D02*
X142102389Y-48124311D01*
X142102389Y-48124311D02*
X141903150Y-48106880D01*
X141903150Y-48106880D02*
X141773636Y-47292493D01*
X141773636Y-47292493D02*
X141228213Y-46642483D01*
X141228213Y-46642483D02*
X140466119Y-46174281D01*
X140466119Y-46174281D02*
X139669164Y-46104556D01*
X139669164Y-46104556D02*
X138802483Y-46831787D01*
X138802483Y-46831787D02*
X138351712Y-47394642D01*
X138351712Y-47394642D02*
X138316850Y-47793120D01*
X138316850Y-47793120D02*
X138117611Y-47775689D01*
X138117611Y-47775689D02*
X138137480Y-42959092D01*
X138137480Y-42959092D02*
X138336719Y-42976523D01*
G36*
X138336719Y-42976523D02*
G01*
X139029088Y-44241681D01*
X139791182Y-44709884D01*
X140986615Y-44814470D01*
X142251773Y-44122102D01*
X142719976Y-43360008D01*
X142919215Y-43377439D01*
X142102389Y-48124311D01*
X141903150Y-48106880D01*
X141773636Y-47292493D01*
X141228213Y-46642483D01*
X140466119Y-46174281D01*
X139669164Y-46104556D01*
X138802483Y-46831787D01*
X138351712Y-47394642D01*
X138316850Y-47793120D01*
X138117611Y-47775689D01*
X138137480Y-42959092D01*
X138336719Y-42976523D01*
G37*
X138336719Y-42976523D02*
X139029088Y-44241681D01*
X139791182Y-44709884D01*
X140986615Y-44814470D01*
X142251773Y-44122102D01*
X142719976Y-43360008D01*
X142919215Y-43377439D01*
X142102389Y-48124311D01*
X141903150Y-48106880D01*
X141773636Y-47292493D01*
X141228213Y-46642483D01*
X140466119Y-46174281D01*
X139669164Y-46104556D01*
X138802483Y-46831787D01*
X138351712Y-47394642D01*
X138316850Y-47793120D01*
X138117611Y-47775689D01*
X138137480Y-42959092D01*
X138336719Y-42976523D01*
%TO.C,U11*%
X142749976Y-112569992D02*
X141848433Y-111444283D01*
X141848433Y-111444283D02*
X141016615Y-111115530D01*
X141016615Y-111115530D02*
X139821182Y-111220116D01*
X139821182Y-111220116D02*
X138695473Y-112121659D01*
X138695473Y-112121659D02*
X138366719Y-112953477D01*
X138366719Y-112953477D02*
X138167480Y-112970908D01*
X138167480Y-112970908D02*
X138147611Y-108154311D01*
X138147611Y-108154311D02*
X138346850Y-108136880D01*
X138346850Y-108136880D02*
X138615813Y-108916405D01*
X138615813Y-108916405D02*
X139265823Y-109461828D01*
X139265823Y-109461828D02*
X140097641Y-109790582D01*
X140097641Y-109790582D02*
X140894597Y-109720857D01*
X140894597Y-109720857D02*
X141621828Y-108854177D01*
X141621828Y-108854177D02*
X141968013Y-108221598D01*
X141968013Y-108221598D02*
X141933150Y-107823120D01*
X141933150Y-107823120D02*
X142132389Y-107805689D01*
X142132389Y-107805689D02*
X142949215Y-112552561D01*
X142949215Y-112552561D02*
X142749976Y-112569992D01*
G36*
X142949215Y-112552561D02*
G01*
X142749976Y-112569992D01*
X141848433Y-111444283D01*
X141016615Y-111115530D01*
X139821182Y-111220116D01*
X138695473Y-112121659D01*
X138366719Y-112953477D01*
X138167480Y-112970908D01*
X138147611Y-108154311D01*
X138346850Y-108136880D01*
X138615813Y-108916405D01*
X139265823Y-109461828D01*
X140097641Y-109790582D01*
X140894597Y-109720857D01*
X141621828Y-108854177D01*
X141968013Y-108221598D01*
X141933150Y-107823120D01*
X142132389Y-107805689D01*
X142949215Y-112552561D01*
G37*
X142949215Y-112552561D02*
X142749976Y-112569992D01*
X141848433Y-111444283D01*
X141016615Y-111115530D01*
X139821182Y-111220116D01*
X138695473Y-112121659D01*
X138366719Y-112953477D01*
X138167480Y-112970908D01*
X138147611Y-108154311D01*
X138346850Y-108136880D01*
X138615813Y-108916405D01*
X139265823Y-109461828D01*
X140097641Y-109790582D01*
X140894597Y-109720857D01*
X141621828Y-108854177D01*
X141968013Y-108221598D01*
X141933150Y-107823120D01*
X142132389Y-107805689D01*
X142949215Y-112552561D01*
%TD*%
D11*
%TO.P,U5,2*%
%TO.N,N/C*%
X163523488Y-47102796D03*
D12*
%TO.P,U5,1*%
%TO.N,Net-(C4-Pad2)*%
X158670000Y-49470000D03*
%TD*%
D13*
%TO.P,C1,1*%
%TO.N,Net-(C1-Pad1)*%
X120280000Y-46010000D03*
D14*
%TO.P,C1,2*%
%TO.N,Net-(C1-Pad2)*%
X118280000Y-46010000D03*
%TD*%
D15*
%TO.P,U1,38*%
%TO.N,Net-(U1-Pad38)*%
X148170000Y-103920000D03*
%TO.P,U1,37*%
%TO.N,Net-(U1-Pad37)*%
X148170000Y-101380000D03*
%TO.P,U1,36*%
%TO.N,Net-(U1-Pad36)*%
X148170000Y-98840000D03*
%TO.P,U1,35*%
%TO.N,Net-(U1-Pad35)*%
X148170000Y-96300000D03*
%TO.P,U1,34*%
%TO.N,Net-(U1-Pad34)*%
X148170000Y-93760000D03*
%TO.P,U1,33*%
%TO.N,Net-(U1-Pad33)*%
X148170000Y-91220000D03*
%TO.P,U1,32*%
%TO.N,Net-(U1-Pad32)*%
X148170000Y-88680000D03*
%TO.P,U1,31*%
%TO.N,Net-(U1-Pad31)*%
X148170000Y-86140000D03*
%TO.P,U1,30*%
%TO.N,Net-(U1-Pad30)*%
X148170000Y-83600000D03*
%TO.P,U1,29*%
%TO.N,Net-(U1-Pad29)*%
X148170000Y-81060000D03*
%TO.P,U1,28*%
%TO.N,Net-(U1-Pad28)*%
X148170000Y-78520000D03*
%TO.P,U1,27*%
%TO.N,Net-(U1-Pad27)*%
X148170000Y-75980000D03*
%TO.P,U1,26*%
%TO.N,Net-(J1-PadS)*%
X148170000Y-73440000D03*
%TO.P,U1,25*%
%TO.N,Net-(U1-Pad25)*%
X148170000Y-70900000D03*
%TO.P,U1,24*%
%TO.N,Net-(U1-Pad24)*%
X148170000Y-68360000D03*
%TO.P,U1,23*%
%TO.N,Net-(U1-Pad23)*%
X148170000Y-65820000D03*
%TO.P,U1,22*%
%TO.N,Net-(U1-Pad22)*%
X148170000Y-63280000D03*
%TO.P,U1,21*%
%TO.N,Net-(U1-Pad21)*%
X148170000Y-60740000D03*
%TO.P,U1,20*%
%TO.N,Net-(J1-PadS)*%
X148170000Y-58200000D03*
%TO.P,U1,18*%
%TO.N,Net-(U1-Pad18)*%
X122770000Y-101380000D03*
%TO.P,U1,17*%
%TO.N,Net-(U1-Pad17)*%
X122770000Y-98840000D03*
%TO.P,U1,16*%
%TO.N,Net-(U1-Pad16)*%
X122770000Y-96300000D03*
%TO.P,U1,15*%
%TO.N,Net-(U1-Pad15)*%
X122770000Y-93760000D03*
%TO.P,U1,14*%
%TO.N,Net-(J1-PadS)*%
X122770000Y-91220000D03*
%TO.P,U1,13*%
%TO.N,Net-(U1-Pad13)*%
X122770000Y-88680000D03*
%TO.P,U1,12*%
%TO.N,Net-(U1-Pad12)*%
X122770000Y-86140000D03*
%TO.P,U1,11*%
%TO.N,Net-(U1-Pad11)*%
X122770000Y-83600000D03*
%TO.P,U1,10*%
%TO.N,Net-(U1-Pad10)*%
X122770000Y-81060000D03*
%TO.P,U1,9*%
%TO.N,Net-(U1-Pad9)*%
X122770000Y-78520000D03*
%TO.P,U1,8*%
%TO.N,Net-(C6-Pad2)*%
X122770000Y-75980000D03*
%TO.P,U1,7*%
%TO.N,Net-(C5-Pad2)*%
X122770000Y-73440000D03*
%TO.P,U1,6*%
%TO.N,Net-(C4-Pad2)*%
X122770000Y-70900000D03*
%TO.P,U1,5*%
%TO.N,Net-(C3-Pad2)*%
X122770000Y-68360000D03*
%TO.P,U1,4*%
%TO.N,Net-(C2-Pad2)*%
X122770000Y-65820000D03*
%TO.P,U1,3*%
%TO.N,Net-(C1-Pad2)*%
X122770000Y-63280000D03*
%TO.P,U1,19*%
%TO.N,Net-(U1-Pad19)*%
X122770000Y-103920000D03*
%TO.P,U1,2*%
%TO.N,Net-(U1-Pad2)*%
X122770000Y-60740000D03*
D16*
%TO.P,U1,1*%
%TO.N,Net-(C1-Pad1)*%
X122770000Y-58200000D03*
%TD*%
D17*
%TO.P,J1,T*%
%TO.N,Net-(C1-Pad2)*%
X107253505Y-53227408D03*
X105830000Y-58540000D03*
D18*
%TO.P,J1,S*%
%TO.N,Net-(J1-PadS)*%
X113190912Y-60046476D03*
%TO.P,J1,R*%
%TO.N,Net-(J1-PadR)*%
X114381480Y-55603217D03*
%TD*%
D13*
%TO.P,C2,1*%
%TO.N,Net-(C1-Pad1)*%
X112880000Y-70270000D03*
D14*
%TO.P,C2,2*%
%TO.N,Net-(C2-Pad2)*%
X110880000Y-70270000D03*
%TD*%
D13*
%TO.P,C3,1*%
%TO.N,Net-(C1-Pad1)*%
X119250000Y-108950000D03*
D14*
%TO.P,C3,2*%
%TO.N,Net-(C3-Pad2)*%
X121250000Y-108950000D03*
%TD*%
D13*
%TO.P,C4,1*%
%TO.N,Net-(C1-Pad1)*%
X152640000Y-46390000D03*
D14*
%TO.P,C4,2*%
%TO.N,Net-(C4-Pad2)*%
X150640000Y-46390000D03*
%TD*%
D13*
%TO.P,C5,1*%
%TO.N,Net-(C1-Pad1)*%
X158320000Y-69210000D03*
D14*
%TO.P,C5,2*%
%TO.N,Net-(C5-Pad2)*%
X160320000Y-69210000D03*
%TD*%
D13*
%TO.P,C6,1*%
%TO.N,Net-(C1-Pad1)*%
X150220000Y-109450000D03*
D14*
%TO.P,C6,2*%
%TO.N,Net-(C6-Pad2)*%
X152220000Y-109450000D03*
%TD*%
D19*
%TO.P,J2,T*%
%TO.N,Net-(C2-Pad2)*%
X103180000Y-75140000D03*
X103180000Y-80640000D03*
D20*
%TO.P,J2,S*%
%TO.N,Net-(J1-PadS)*%
X110680000Y-80190000D03*
%TO.P,J2,R*%
%TO.N,Net-(J2-PadR)*%
X110680000Y-75590000D03*
%TD*%
D21*
%TO.P,J3,T*%
%TO.N,Net-(C3-Pad2)*%
X105866495Y-97407408D03*
X107290000Y-102720000D03*
D22*
%TO.P,J3,S*%
%TO.N,Net-(J1-PadS)*%
X114417975Y-100344191D03*
%TO.P,J3,R*%
%TO.N,Net-(J3-PadR)*%
X113227408Y-95900932D03*
%TD*%
D23*
%TO.P,J4,T*%
%TO.N,Net-(C4-Pad2)*%
X165123505Y-58512592D03*
X163700000Y-53200000D03*
D24*
%TO.P,J4,S*%
%TO.N,Net-(J1-PadS)*%
X156572025Y-55575809D03*
%TO.P,J4,R*%
%TO.N,Net-(J4-PadR)*%
X157762592Y-60019068D03*
%TD*%
D19*
%TO.P,J5,T*%
%TO.N,Net-(C5-Pad2)*%
X167800000Y-80670000D03*
X167800000Y-75170000D03*
D20*
%TO.P,J5,S*%
%TO.N,Net-(J1-PadS)*%
X160300000Y-75620000D03*
%TO.P,J5,R*%
%TO.N,Net-(J5-PadR)*%
X160300000Y-80220000D03*
%TD*%
D17*
%TO.P,J6,T*%
%TO.N,Net-(C6-Pad2)*%
X163656495Y-102802592D03*
X165080000Y-97490000D03*
D18*
%TO.P,J6,S*%
%TO.N,Net-(J1-PadS)*%
X157719088Y-95983524D03*
%TO.P,J6,R*%
%TO.N,Net-(J6-PadR)*%
X156528520Y-100426783D03*
%TD*%
D25*
%TO.P,RV1,3*%
%TO.N,Net-(C1-Pad2)*%
X114529899Y-46338463D03*
%TO.P,RV1,2*%
%TO.N,Net-(C1-Pad1)*%
X110686487Y-42279131D03*
%TO.P,RV1,1*%
%TO.N,Net-(RV1-Pad1)*%
X116240000Y-41640000D03*
%TD*%
%TO.P,RV2,3*%
%TO.N,Net-(C2-Pad2)*%
X114780000Y-75300000D03*
%TO.P,RV2,2*%
%TO.N,Net-(C1-Pad1)*%
X119780000Y-77800000D03*
%TO.P,RV2,1*%
%TO.N,Net-(RV2-Pad1)*%
X114780000Y-80300000D03*
%TD*%
%TO.P,RV3,3*%
%TO.N,Net-(C3-Pad2)*%
X116314095Y-114479629D03*
%TO.P,RV3,2*%
%TO.N,Net-(C1-Pad1)*%
X110837418Y-113358910D03*
%TO.P,RV3,1*%
%TO.N,Net-(RV3-Pad1)*%
X115020000Y-109650000D03*
%TD*%
%TO.P,RV4,3*%
%TO.N,Net-(C4-Pad2)*%
X154955905Y-41280371D03*
%TO.P,RV4,2*%
%TO.N,Net-(C1-Pad1)*%
X160432582Y-42401090D03*
%TO.P,RV4,1*%
%TO.N,Net-(RV4-Pad1)*%
X156250000Y-46110000D03*
%TD*%
%TO.P,RV5,3*%
%TO.N,Net-(C5-Pad2)*%
X156110000Y-80460000D03*
%TO.P,RV5,2*%
%TO.N,Net-(C1-Pad1)*%
X151110000Y-77960000D03*
%TO.P,RV5,1*%
%TO.N,Net-(RV5-Pad1)*%
X156110000Y-75460000D03*
%TD*%
%TO.P,RV6,3*%
%TO.N,Net-(C6-Pad2)*%
X155997418Y-109711090D03*
%TO.P,RV6,2*%
%TO.N,Net-(C1-Pad1)*%
X160180000Y-113420000D03*
%TO.P,RV6,1*%
%TO.N,Net-(RV6-Pad1)*%
X154703323Y-114540719D03*
%TD*%
D11*
%TO.P,U2,2*%
%TO.N,N/C*%
X107256512Y-47112796D03*
D12*
%TO.P,U2,1*%
%TO.N,Net-(C1-Pad2)*%
X112110000Y-49480000D03*
%TD*%
D11*
%TO.P,U3,2*%
%TO.N,N/C*%
X101240549Y-69269359D03*
D12*
%TO.P,U3,1*%
%TO.N,Net-(C2-Pad2)*%
X106620000Y-69740000D03*
%TD*%
D11*
%TO.P,U4,2*%
%TO.N,N/C*%
X107176512Y-108837204D03*
D12*
%TO.P,U4,1*%
%TO.N,Net-(C3-Pad2)*%
X112030000Y-106470000D03*
%TD*%
D11*
%TO.P,U6,2*%
%TO.N,N/C*%
X169519451Y-69269359D03*
D12*
%TO.P,U6,1*%
%TO.N,Net-(C5-Pad2)*%
X164140000Y-69740000D03*
%TD*%
D11*
%TO.P,U7,2*%
%TO.N,N/C*%
X163643488Y-108867204D03*
D12*
%TO.P,U7,1*%
%TO.N,Net-(C6-Pad2)*%
X158790000Y-106500000D03*
%TD*%
D11*
%TO.P,U8,2*%
%TO.N,N/C*%
X130199359Y-42570549D03*
D12*
%TO.P,U8,1*%
%TO.N,Net-(C1-Pad1)*%
X130670000Y-47950000D03*
%TD*%
D11*
%TO.P,U9,2*%
%TO.N,N/C*%
X130189359Y-113359451D03*
D12*
%TO.P,U9,1*%
%TO.N,Net-(U1-Pad19)*%
X130660000Y-107980000D03*
%TD*%
D11*
%TO.P,U10,2*%
%TO.N,N/C*%
X140580641Y-42570549D03*
D12*
%TO.P,U10,1*%
%TO.N,Net-(J1-PadS)*%
X140110000Y-47950000D03*
%TD*%
D11*
%TO.P,U11,2*%
%TO.N,N/C*%
X140610641Y-113359451D03*
D12*
%TO.P,U11,1*%
%TO.N,Net-(J1-PadS)*%
X140140000Y-107980000D03*
%TD*%
D26*
%TO.N,Net-(J1-PadS)*%
X154740000Y-52750000D03*
X149830000Y-50690000D03*
X134120000Y-54170000D03*
X129570000Y-62130000D03*
%TD*%
D27*
%TO.N,Net-(C1-Pad2)*%
X118280000Y-46010000D02*
X114900000Y-46010000D01*
X114900000Y-46010000D02*
X112050000Y-48860000D01*
X110110001Y-51479999D02*
X108930001Y-51479999D01*
X112110000Y-49480000D02*
X110110001Y-51479999D01*
X108930001Y-51479999D02*
X108930001Y-51539999D01*
X108930001Y-51539999D02*
X105800000Y-54670000D01*
X107253505Y-53227408D02*
X107253505Y-54123505D01*
X109530000Y-56340000D02*
X105800000Y-56340000D01*
X110990000Y-57800000D02*
X109530000Y-56340000D01*
X116930000Y-57800000D02*
X110990000Y-57800000D01*
X119880000Y-60750000D02*
X116930000Y-57800000D01*
X119880000Y-62220000D02*
X119880000Y-60750000D01*
X123070000Y-63340000D02*
X121000000Y-63340000D01*
X105800000Y-56340000D02*
X105800000Y-58430000D01*
X121000000Y-63340000D02*
X119880000Y-62220000D01*
X105800000Y-54670000D02*
X105800000Y-56340000D01*
%TO.N,Net-(C1-Pad1)*%
X123140000Y-58290000D02*
X125830000Y-58290000D01*
X125830000Y-58290000D02*
X130700000Y-53420000D01*
X130700000Y-53420000D02*
X130700000Y-47990000D01*
X130700000Y-47990000D02*
X122250000Y-47990000D01*
X122250000Y-47990000D02*
X120080000Y-45820000D01*
X120080000Y-45820000D02*
X120080000Y-44600000D01*
X120080000Y-44600000D02*
X119320000Y-43840000D01*
X119320000Y-43840000D02*
X112220000Y-43840000D01*
X112220000Y-43840000D02*
X110680000Y-42300000D01*
X160432582Y-42401090D02*
X156738910Y-42401090D01*
X156738910Y-42401090D02*
X152720000Y-46420000D01*
X152720000Y-46420000D02*
X152800000Y-46500000D01*
%TO.N,Net-(U1-Pad19)*%
X130660000Y-107980000D02*
X127120000Y-107980000D01*
X127120000Y-107980000D02*
X123160000Y-104020000D01*
%TO.N,Net-(J1-PadS)*%
X123140000Y-91310000D02*
X129770000Y-91310000D01*
X129770000Y-91310000D02*
X140150000Y-101690000D01*
X140150000Y-101690000D02*
X140150000Y-107750000D01*
X114417975Y-100344191D02*
X114417975Y-100282025D01*
X114417975Y-100282025D02*
X119810000Y-94890000D01*
X119810000Y-94890000D02*
X119810000Y-91150000D01*
X123020000Y-91150000D02*
X119810000Y-91150000D01*
X148540000Y-73530000D02*
X158220000Y-73530000D01*
X158220000Y-73530000D02*
X160290000Y-75600000D01*
X154740000Y-52750000D02*
X153200000Y-51210000D01*
X150350000Y-51210000D02*
X149830000Y-50690000D01*
X153200000Y-51210000D02*
X150350000Y-51210000D01*
X134120000Y-54170000D02*
X134120000Y-57580000D01*
X134120000Y-57580000D02*
X129570000Y-62130000D01*
X129570000Y-62130000D02*
X129570000Y-62130000D01*
%TO.N,Net-(C2-Pad2)*%
X110860000Y-70270000D02*
X107200000Y-70270000D01*
X114780000Y-69870000D02*
X114780000Y-75310000D01*
X103180000Y-74290000D02*
X103180000Y-75170000D01*
X123140000Y-65910000D02*
X118740000Y-65910000D01*
X118740000Y-65910000D02*
X114780000Y-69870000D01*
X107200000Y-70270000D02*
X103180000Y-74290000D01*
X114780000Y-75300000D02*
X112200000Y-77880000D01*
X103220000Y-77880000D02*
X103180000Y-77840000D01*
X112200000Y-77880000D02*
X103220000Y-77880000D01*
X103180000Y-77840000D02*
X103180000Y-80600000D01*
X103180000Y-75170000D02*
X103180000Y-77840000D01*
%TO.N,Net-(C3-Pad2)*%
X105850000Y-97670000D02*
X107190000Y-99010000D01*
X107290000Y-99110000D02*
X107190000Y-99010000D01*
X107290000Y-102720000D02*
X107290000Y-99110000D01*
X107290000Y-102720000D02*
X108240000Y-102720000D01*
X108240000Y-102720000D02*
X112120000Y-106600000D01*
X112120000Y-106600000D02*
X112120000Y-110340000D01*
X112120000Y-110340000D02*
X112120000Y-110500000D01*
X112120000Y-110500000D02*
X116060000Y-114440000D01*
X116314095Y-114479629D02*
X121290000Y-109503724D01*
X121290000Y-109503724D02*
X121290000Y-109080000D01*
X121290000Y-109080000D02*
X121230000Y-109020000D01*
X119530000Y-68450000D02*
X123140000Y-68450000D01*
X117330000Y-94620000D02*
X117330000Y-70650000D01*
X112940000Y-99010000D02*
X117330000Y-94620000D01*
X117330000Y-70650000D02*
X119530000Y-68450000D01*
X107190000Y-99010000D02*
X112940000Y-99010000D01*
%TO.N,Net-(C4-Pad2)*%
X125725915Y-70990000D02*
X150235915Y-46480000D01*
X123140000Y-70990000D02*
X125725915Y-70990000D01*
X150235915Y-46480000D02*
X150235915Y-46104085D01*
X150235915Y-46104085D02*
X154940000Y-41400000D01*
X154940000Y-41400000D02*
X154940000Y-41300000D01*
X150640000Y-47238528D02*
X150640000Y-46390000D01*
X158680000Y-49470000D02*
X152871472Y-49470000D01*
X162460000Y-53250000D02*
X158680000Y-49470000D01*
X163720000Y-53250000D02*
X162460000Y-53250000D01*
X163720000Y-57150000D02*
X163720000Y-53250000D01*
X152871472Y-49470000D02*
X150640000Y-47238528D01*
X165080000Y-58510000D02*
X163720000Y-57150000D01*
%TO.N,Net-(C5-Pad2)*%
X128100000Y-73530000D02*
X123140000Y-73530000D01*
X147800000Y-53830000D02*
X128100000Y-73530000D01*
X158310002Y-66740000D02*
X156430002Y-64860000D01*
X151290000Y-53830000D02*
X147800000Y-53830000D01*
X160310000Y-67040000D02*
X160010000Y-66740000D01*
X152500000Y-55040000D02*
X151290000Y-53830000D01*
X156430002Y-64860000D02*
X152500000Y-64860000D01*
X152500000Y-64860000D02*
X152500000Y-55040000D01*
X160010000Y-66740000D02*
X158310002Y-66740000D01*
X160310000Y-69170000D02*
X160310000Y-67040000D01*
X163610000Y-69170000D02*
X160310000Y-69170000D01*
X167770000Y-73330000D02*
X163610000Y-69170000D01*
X167770000Y-77800000D02*
X167770000Y-73330000D01*
X162180000Y-77800000D02*
X167770000Y-77800000D01*
X167770000Y-80590000D02*
X167770000Y-77800000D01*
X162180000Y-77800000D02*
X158890000Y-77800000D01*
X158890000Y-77800000D02*
X157990000Y-77800000D01*
X157990000Y-77800000D02*
X157030000Y-77800000D01*
X157030000Y-77800000D02*
X156060000Y-78770000D01*
X156060000Y-78770000D02*
X156060000Y-80620000D01*
%TO.N,Net-(C6-Pad2)*%
X145910000Y-98840000D02*
X145910000Y-103570402D01*
X145910000Y-103570402D02*
X145910000Y-106530000D01*
X145910000Y-106530000D02*
X151220000Y-106530000D01*
X151220000Y-106530000D02*
X152260000Y-107570000D01*
X152260000Y-107570000D02*
X152260000Y-109450000D01*
X152260000Y-109450000D02*
X155650000Y-109450000D01*
X155650000Y-109450000D02*
X155860000Y-109660000D01*
X155860000Y-109660000D02*
X155890000Y-109660000D01*
X155890000Y-109660000D02*
X158860000Y-106690000D01*
X163760000Y-102890000D02*
X163760000Y-99860000D01*
X165080000Y-98540000D02*
X163760000Y-99860000D01*
X165080000Y-97490000D02*
X165080000Y-98540000D01*
X163656495Y-102802592D02*
X162657408Y-102802592D01*
X162657408Y-102802592D02*
X158940000Y-106520000D01*
X151220000Y-105810000D02*
X151220000Y-106530000D01*
X156120881Y-98100000D02*
X151220000Y-103000881D01*
X159097371Y-99045513D02*
X158151858Y-98100000D01*
X158151858Y-98100000D02*
X156120881Y-98100000D01*
X162945513Y-99045513D02*
X159097371Y-99045513D01*
X151220000Y-103000881D02*
X151220000Y-105810000D01*
X163760000Y-99860000D02*
X162945513Y-99045513D01*
X145910000Y-98840000D02*
X145910000Y-93920000D01*
X145910000Y-93920000D02*
X128030000Y-76040000D01*
X128030000Y-76040000D02*
X123080000Y-76040000D01*
%TO.N,Net-(J2-PadR)*%
X110970000Y-75310000D02*
X110860000Y-75200000D01*
%TO.N,Net-(J3-PadR)*%
X113310000Y-95810000D02*
X113460000Y-95810000D01*
%TO.N,Net-(J4-PadR)*%
X157762592Y-60019068D02*
X157762592Y-59957408D01*
%TO.N,Net-(J6-PadR)*%
X156460000Y-100570000D02*
X156460000Y-100460000D01*
%TO.N,Net-(J1-PadR)*%
X114340000Y-55630000D02*
X114570000Y-55630000D01*
%TD*%
M02*
