%TF.GenerationSoftware,KiCad,Pcbnew,(6.0.2-0)*%
%TF.CreationDate,2022-03-08T15:03:46+01:00*%
%TF.ProjectId,ESP_aux_breakout,4553505f-6175-4785-9f62-7265616b6f75,rev?*%
%TF.SameCoordinates,Original*%
%TF.FileFunction,Profile,NP*%
%FSLAX46Y46*%
G04 Gerber Fmt 4.6, Leading zero omitted, Abs format (unit mm)*
G04 Created by KiCad (PCBNEW (6.0.2-0)) date 2022-03-08 15:03:46*
%MOMM*%
%LPD*%
G01*
G04 APERTURE LIST*
%ADD10C,0.200000*%
G04 APERTURE END LIST*
D10*
X134220515Y-115027752D02*
X134018291Y-115009369D01*
X133727051Y-114972322D01*
X133453567Y-114920950D01*
X133201481Y-114851921D01*
X132974438Y-114761905D01*
X132776081Y-114647574D01*
X132610054Y-114505595D01*
X132480000Y-114332641D01*
X132389565Y-114125379D01*
X132342391Y-113880482D01*
X132342123Y-113594618D01*
X132342123Y-113594618D02*
X128383636Y-113280488D01*
X108301140Y-45303459D02*
X108053301Y-45161001D01*
X107864335Y-44998237D01*
X107729540Y-44816671D01*
X107644215Y-44617807D01*
X107603659Y-44403149D01*
X107603170Y-44174201D01*
X107638046Y-43932468D01*
X107703586Y-43679452D01*
X107795089Y-43416659D01*
X107907852Y-43145592D01*
X107992518Y-42961028D01*
X106604183Y-48893534D02*
X108301140Y-45303459D01*
X104598253Y-50141922D02*
X104687127Y-49959346D01*
X104825007Y-49700151D01*
X104969990Y-49462637D01*
X105123897Y-49251391D01*
X105288550Y-49071001D01*
X105465772Y-48926054D01*
X105657385Y-48821137D01*
X105865210Y-48760840D01*
X106091070Y-48749748D01*
X106336787Y-48792450D01*
X106604183Y-48893534D01*
X99580226Y-78005169D02*
X99580226Y-77978362D01*
X106511666Y-107007494D02*
X106245972Y-107107934D01*
X106004908Y-107148880D01*
X105785971Y-107135176D01*
X105586657Y-107071666D01*
X105404464Y-106963195D01*
X105236889Y-106814607D01*
X105081428Y-106630747D01*
X104935579Y-106416460D01*
X104796839Y-106176590D01*
X104662703Y-105915982D01*
X104574603Y-105733115D01*
X108208622Y-110597569D02*
X106511666Y-107007494D01*
X121757786Y-43460314D02*
X122041211Y-43514120D01*
X122307192Y-43550712D01*
X122556561Y-43571086D01*
X122790150Y-43576238D01*
X123008791Y-43567164D01*
X123213316Y-43544860D01*
X123583348Y-43464545D01*
X123906902Y-43343263D01*
X124190636Y-43188980D01*
X124441208Y-43009665D01*
X124665274Y-42813286D01*
X124869492Y-42607811D01*
X125060518Y-42401207D01*
X125245011Y-42201444D01*
X125429628Y-42016488D01*
X125621025Y-41854308D01*
X125825861Y-41722872D01*
X126050791Y-41630149D01*
X126302475Y-41584105D01*
X114426925Y-117014002D02*
X114120147Y-117081860D01*
X113804800Y-117122561D01*
X113482393Y-117136675D01*
X113154434Y-117124772D01*
X112822433Y-117087421D01*
X112487898Y-117025192D01*
X112152339Y-116938656D01*
X111817264Y-116828382D01*
X111484183Y-116694941D01*
X111154604Y-116538901D01*
X110830037Y-116360833D01*
X110511991Y-116161308D01*
X110201974Y-115940894D01*
X109901496Y-115700162D01*
X109612066Y-115439682D01*
X109335193Y-115160024D01*
X128383636Y-113280488D02*
X128338284Y-113562731D01*
X128253075Y-113797123D01*
X128131083Y-113987527D01*
X127975379Y-114137805D01*
X127789037Y-114251821D01*
X127575130Y-114333437D01*
X127336731Y-114386517D01*
X127076914Y-114414923D01*
X126798750Y-114422519D01*
X126505313Y-114413167D01*
X126302721Y-114399426D01*
X100676349Y-65160080D02*
X100758036Y-64670438D01*
X100842443Y-64181033D01*
X100929562Y-63691973D01*
X101019385Y-63203364D01*
X101111904Y-62715315D01*
X101207109Y-62227933D01*
X101304993Y-61741324D01*
X101405547Y-61255598D01*
X101508763Y-60770860D01*
X101614633Y-60287218D01*
X101723147Y-59804780D01*
X101834299Y-59323654D01*
X101948080Y-58843946D01*
X102064481Y-58365764D01*
X102183493Y-57889216D01*
X102305109Y-57414409D01*
X102429321Y-56941450D01*
X102556119Y-56470447D01*
X102685496Y-56001507D01*
X102817443Y-55534738D01*
X102951952Y-55070247D01*
X103089015Y-54608141D01*
X103228623Y-54148528D01*
X103370768Y-53691516D01*
X103515441Y-53237211D01*
X103662634Y-52785722D01*
X103812340Y-52337155D01*
X103964548Y-51891619D01*
X104119253Y-51449220D01*
X104276443Y-51010065D01*
X104436113Y-50574264D01*
X104598253Y-50141922D01*
X114426925Y-38969529D02*
X114734482Y-39060347D01*
X115028423Y-39162183D01*
X115309605Y-39274255D01*
X115578881Y-39395779D01*
X115837108Y-39525974D01*
X116085140Y-39664057D01*
X116323833Y-39809246D01*
X116554043Y-39960759D01*
X116776624Y-40117813D01*
X116992432Y-40279627D01*
X117202322Y-40445417D01*
X117407150Y-40614403D01*
X117607770Y-40785800D01*
X117805039Y-40958828D01*
X117999812Y-41132704D01*
X118192943Y-41306646D01*
X118385288Y-41479871D01*
X118577703Y-41651597D01*
X118771043Y-41821042D01*
X118966162Y-41987424D01*
X119163918Y-42149960D01*
X119365164Y-42307868D01*
X119570756Y-42460366D01*
X119781549Y-42606671D01*
X119998399Y-42746002D01*
X120222161Y-42877575D01*
X120453691Y-43000610D01*
X120693843Y-43114323D01*
X120943473Y-43217932D01*
X121203437Y-43310655D01*
X121474589Y-43391709D01*
X121757786Y-43460314D01*
X104574603Y-105733115D02*
X104280946Y-104938647D01*
X103995316Y-104133098D01*
X103717797Y-103317109D01*
X103448475Y-102491326D01*
X103187433Y-101656391D01*
X102934758Y-100812947D01*
X102690534Y-99961639D01*
X102454846Y-99103109D01*
X102227780Y-98238002D01*
X102009420Y-97366961D01*
X101799851Y-96490629D01*
X101599158Y-95609650D01*
X101407426Y-94724667D01*
X101224741Y-93836324D01*
X101051187Y-92945264D01*
X100886850Y-92052132D01*
X100731813Y-91157569D01*
X100586163Y-90262221D01*
X100449985Y-89366730D01*
X100323362Y-88471740D01*
X100206381Y-87577894D01*
X100099126Y-86685837D01*
X100001683Y-85796210D01*
X99914135Y-84909659D01*
X99836569Y-84026826D01*
X99769070Y-83148355D01*
X99711722Y-82274890D01*
X99664610Y-81407074D01*
X99627819Y-80545550D01*
X99601435Y-79690962D01*
X99585542Y-78843954D01*
X99580226Y-78005169D01*
X136855437Y-115027752D02*
X134220515Y-115027752D01*
X166409415Y-50141922D02*
X166571554Y-50574264D01*
X166731224Y-51010065D01*
X166888414Y-51449220D01*
X167043119Y-51891619D01*
X167195327Y-52337155D01*
X167345033Y-52785722D01*
X167492226Y-53237211D01*
X167636899Y-53691516D01*
X167779044Y-54148528D01*
X167918652Y-54608141D01*
X168055714Y-55070247D01*
X168190223Y-55534738D01*
X168322171Y-56001507D01*
X168451547Y-56470447D01*
X168578346Y-56941450D01*
X168702557Y-57414409D01*
X168824173Y-57889216D01*
X168943186Y-58365764D01*
X169059587Y-58843946D01*
X169173367Y-59323654D01*
X169284519Y-59804780D01*
X169393034Y-60287218D01*
X169498903Y-60770860D01*
X169602119Y-61255598D01*
X169702673Y-61741324D01*
X169800557Y-62227933D01*
X169895762Y-62715315D01*
X169988281Y-63203364D01*
X170078104Y-63691973D01*
X170165223Y-64181033D01*
X170249630Y-64670438D01*
X170331318Y-65160080D01*
X170331318Y-65160080D02*
X170354137Y-65361843D01*
X170377181Y-65654456D01*
X170383127Y-65932476D01*
X170367842Y-66193024D01*
X170327194Y-66433224D01*
X170257049Y-66650199D01*
X170153274Y-66841073D01*
X170011737Y-67002968D01*
X169828304Y-67133007D01*
X169598842Y-67228314D01*
X169319219Y-67286012D01*
X126302475Y-41584105D02*
X126505110Y-41570363D01*
X126798602Y-41561011D01*
X127076810Y-41568607D01*
X127336662Y-41597013D01*
X127575087Y-41650093D01*
X127789012Y-41731709D01*
X127975366Y-41845724D01*
X128131077Y-41996002D01*
X128253074Y-42186406D01*
X128338284Y-42420799D01*
X128383636Y-42703043D01*
X99580226Y-77978362D02*
X99580142Y-77677309D01*
X99580022Y-77375041D01*
X99580065Y-77071600D01*
X99580468Y-76767031D01*
X99581430Y-76461378D01*
X99583147Y-76154683D01*
X99585819Y-75846992D01*
X99589644Y-75538348D01*
X99594818Y-75228795D01*
X99601541Y-74918377D01*
X99610009Y-74607137D01*
X99620422Y-74295120D01*
X99632977Y-73982370D01*
X99647872Y-73668930D01*
X99665305Y-73354844D01*
X99685475Y-73040157D01*
X164403485Y-48893534D02*
X164670880Y-48792450D01*
X164916597Y-48749748D01*
X165142457Y-48760840D01*
X165350282Y-48821137D01*
X165541894Y-48926054D01*
X165719116Y-49071001D01*
X165883770Y-49251391D01*
X166037677Y-49462637D01*
X166182660Y-49700151D01*
X166320540Y-49959346D01*
X166409415Y-50141922D01*
X162706528Y-45303459D02*
X164403485Y-48893534D01*
X163015150Y-42961028D02*
X163099815Y-43145592D01*
X163212578Y-43416659D01*
X163304081Y-43679452D01*
X163369621Y-43932468D01*
X163404497Y-44174201D01*
X163404008Y-44403149D01*
X163363452Y-44617807D01*
X163278127Y-44816671D01*
X163143332Y-44998237D01*
X162954366Y-45161001D01*
X162706528Y-45303459D01*
X171322193Y-73040157D02*
X171342362Y-73354844D01*
X171359795Y-73668930D01*
X171374690Y-73982370D01*
X171387245Y-74295120D01*
X171397658Y-74607137D01*
X171406126Y-74918377D01*
X171412849Y-75228795D01*
X171418023Y-75538348D01*
X171421848Y-75846992D01*
X171424520Y-76154683D01*
X171426237Y-76461378D01*
X171427199Y-76767031D01*
X171427602Y-77071600D01*
X171427645Y-77375041D01*
X171427525Y-77677309D01*
X171427442Y-77978362D01*
X169807615Y-71226794D02*
X170093212Y-71214455D01*
X170339952Y-71250783D01*
X170551000Y-71331990D01*
X170729522Y-71454289D01*
X170878684Y-71613894D01*
X171001653Y-71807016D01*
X171101593Y-72029868D01*
X171181672Y-72278665D01*
X171245055Y-72549618D01*
X171294909Y-72838940D01*
X171322193Y-73040157D01*
X169319219Y-67286012D02*
X169807615Y-71226794D01*
X109335193Y-40823506D02*
X109612066Y-40543847D01*
X109901496Y-40283367D01*
X110201974Y-40042635D01*
X110511991Y-39822222D01*
X110830037Y-39622696D01*
X111154604Y-39444629D01*
X111484183Y-39288589D01*
X111817264Y-39155148D01*
X112152339Y-39044874D01*
X112487898Y-38958338D01*
X112822433Y-38896109D01*
X113154434Y-38858758D01*
X113482393Y-38846855D01*
X113804800Y-38860969D01*
X114120147Y-38901670D01*
X114426925Y-38969529D01*
X107990630Y-42959918D02*
X108110325Y-42750714D01*
X108221919Y-42547247D01*
X108328673Y-42348168D01*
X108433845Y-42152131D01*
X108540695Y-41957789D01*
X108652481Y-41763794D01*
X108772464Y-41568801D01*
X108903901Y-41371461D01*
X109050054Y-41170427D01*
X109214180Y-40964353D01*
X109335193Y-40823506D01*
X107992518Y-42961028D02*
X107990630Y-42959918D01*
X144705193Y-41584105D02*
X144956876Y-41630149D01*
X145181806Y-41722872D01*
X145386642Y-41854308D01*
X145578039Y-42016488D01*
X145762656Y-42201444D01*
X145947149Y-42401207D01*
X146138175Y-42607811D01*
X146342393Y-42813286D01*
X146566459Y-43009665D01*
X146817031Y-43188980D01*
X147100765Y-43343263D01*
X147424319Y-43464545D01*
X147794351Y-43544860D01*
X147998876Y-43567164D01*
X148217517Y-43576238D01*
X148451106Y-43571086D01*
X148700475Y-43550712D01*
X148966456Y-43514120D01*
X149249882Y-43460314D01*
X142624032Y-42703043D02*
X142669383Y-42420799D01*
X142754593Y-42186406D01*
X142876590Y-41996002D01*
X143032301Y-41845724D01*
X143218655Y-41731709D01*
X143432580Y-41650093D01*
X143671005Y-41597013D01*
X143930857Y-41568607D01*
X144209065Y-41561011D01*
X144502557Y-41570363D01*
X144705193Y-41584105D01*
X138665545Y-42388912D02*
X142624032Y-42703043D01*
X136787153Y-40955778D02*
X136989376Y-40974160D01*
X137280616Y-41011207D01*
X137554100Y-41062579D01*
X137806186Y-41131608D01*
X138033229Y-41221624D01*
X138231586Y-41335956D01*
X138397613Y-41477934D01*
X138527667Y-41650889D01*
X138618102Y-41858150D01*
X138665276Y-42103048D01*
X138665545Y-42388912D01*
X134220515Y-40955778D02*
X136787153Y-40955778D01*
X132342123Y-42388912D02*
X132342391Y-42103048D01*
X132389565Y-41858150D01*
X132480000Y-41650889D01*
X132610054Y-41477934D01*
X132776081Y-41335956D01*
X132974438Y-41221624D01*
X133201481Y-41131608D01*
X133453567Y-41062579D01*
X133727051Y-41011207D01*
X134018291Y-40974160D01*
X134220515Y-40955778D01*
X128383636Y-42703043D02*
X132342123Y-42388912D01*
X163017038Y-42959918D02*
X163015150Y-42961028D01*
X161672475Y-40823506D02*
X161850394Y-41033688D01*
X162008166Y-41237932D01*
X162149052Y-41437585D01*
X162276309Y-41633993D01*
X162393197Y-41828504D01*
X162502976Y-42022464D01*
X162608904Y-42217222D01*
X162714241Y-42414123D01*
X162822247Y-42614515D01*
X162936180Y-42819745D01*
X163017038Y-42959918D01*
X126302721Y-114399426D02*
X126050994Y-114353381D01*
X125826025Y-114260657D01*
X125621157Y-114129221D01*
X125429732Y-113967041D01*
X125245091Y-113782086D01*
X125060578Y-113582322D01*
X124869535Y-113375719D01*
X124665305Y-113170244D01*
X124441229Y-112973865D01*
X124190649Y-112794550D01*
X123906910Y-112640267D01*
X123583352Y-112518984D01*
X123213318Y-112438670D01*
X123008792Y-112416366D01*
X122790151Y-112407291D01*
X122556562Y-112412443D01*
X122307193Y-112432817D01*
X122041211Y-112469409D01*
X121757786Y-112523216D01*
X156580743Y-38969529D02*
X156887520Y-38901670D01*
X157202867Y-38860969D01*
X157525274Y-38846855D01*
X157853233Y-38858758D01*
X158185234Y-38896109D01*
X158519769Y-38958338D01*
X158855328Y-39044874D01*
X159190403Y-39155148D01*
X159523484Y-39288589D01*
X159853063Y-39444629D01*
X160177630Y-39622696D01*
X160495676Y-39822222D01*
X160805693Y-40042635D01*
X161106171Y-40283367D01*
X161395601Y-40543847D01*
X161672475Y-40823506D01*
X149249882Y-43460314D02*
X149533078Y-43391709D01*
X149804230Y-43310655D01*
X150064193Y-43217932D01*
X150313824Y-43114323D01*
X150553976Y-43000610D01*
X150785506Y-42877575D01*
X151009268Y-42746002D01*
X151226118Y-42606671D01*
X151436911Y-42460366D01*
X151642503Y-42307868D01*
X151843749Y-42149960D01*
X152041504Y-41987424D01*
X152236624Y-41821042D01*
X152429964Y-41651597D01*
X152622379Y-41479871D01*
X152814724Y-41306646D01*
X153007855Y-41132704D01*
X153202627Y-40958828D01*
X153399896Y-40785800D01*
X153600517Y-40614403D01*
X153805345Y-40445417D01*
X154015235Y-40279627D01*
X154231043Y-40117813D01*
X154453624Y-39960759D01*
X154683833Y-39809246D01*
X154922527Y-39664057D01*
X155170559Y-39525974D01*
X155428786Y-39395779D01*
X155698062Y-39274255D01*
X155979243Y-39162183D01*
X156273185Y-39060347D01*
X156580743Y-38969529D01*
X164496002Y-107007494D02*
X162799046Y-110597569D01*
X166433065Y-105733115D02*
X166344963Y-105915982D01*
X166210828Y-106176590D01*
X166072087Y-106416460D01*
X165926238Y-106630747D01*
X165770778Y-106814607D01*
X165603202Y-106963195D01*
X165421009Y-107071666D01*
X165221696Y-107135176D01*
X165002759Y-107148880D01*
X164761695Y-107107934D01*
X164496002Y-107007494D01*
X171427442Y-78005169D02*
X171422125Y-78843954D01*
X171406232Y-79690962D01*
X171379848Y-80545550D01*
X171343057Y-81407074D01*
X171295945Y-82274890D01*
X171238597Y-83148355D01*
X171171098Y-84026826D01*
X171093532Y-84909659D01*
X171005984Y-85796210D01*
X170908541Y-86685837D01*
X170801286Y-87577894D01*
X170684305Y-88471740D01*
X170557682Y-89366730D01*
X170421504Y-90262221D01*
X170275854Y-91157569D01*
X170120817Y-92052132D01*
X169956480Y-92945264D01*
X169782926Y-93836324D01*
X169600241Y-94724667D01*
X169408509Y-95609650D01*
X169207816Y-96490629D01*
X168998247Y-97366961D01*
X168779887Y-98238002D01*
X168552821Y-99103109D01*
X168317133Y-99961639D01*
X168072909Y-100812947D01*
X167820234Y-101656391D01*
X167559192Y-102491326D01*
X167289870Y-103317109D01*
X167012351Y-104133098D01*
X166726721Y-104938647D01*
X166433065Y-105733115D01*
X171427442Y-77978362D02*
X171427442Y-78005169D01*
X101688449Y-67286012D02*
X101408825Y-67228314D01*
X101179363Y-67133007D01*
X100995930Y-67002968D01*
X100854392Y-66841073D01*
X100750618Y-66650199D01*
X100680472Y-66433224D01*
X100639824Y-66193024D01*
X100624539Y-65932476D01*
X100630485Y-65654456D01*
X100653529Y-65361843D01*
X100676349Y-65160080D01*
X101200052Y-71226794D02*
X101688449Y-67286012D01*
X109335193Y-115160024D02*
X109170563Y-114992639D01*
X109017378Y-114821034D01*
X108873831Y-114643751D01*
X108738113Y-114459333D01*
X108608418Y-114266324D01*
X108482938Y-114063267D01*
X108359866Y-113848705D01*
X108237395Y-113621180D01*
X108113718Y-113379237D01*
X107987027Y-113121418D01*
X107900000Y-112940000D01*
X136787153Y-115027752D02*
X134152231Y-115027752D01*
X138665545Y-113594618D02*
X138665276Y-113880482D01*
X138618102Y-114125379D01*
X138527667Y-114332641D01*
X138397613Y-114505595D01*
X138231586Y-114647574D01*
X138033229Y-114761905D01*
X137806186Y-114851921D01*
X137554100Y-114920950D01*
X137280616Y-114972322D01*
X136989376Y-115009369D01*
X136787153Y-115027752D01*
X142624032Y-113280488D02*
X138665545Y-113594618D01*
X144704947Y-114399426D02*
X144502354Y-114413167D01*
X144208917Y-114422519D01*
X143930753Y-114414923D01*
X143670935Y-114386517D01*
X143432536Y-114333437D01*
X143218630Y-114251821D01*
X143032288Y-114137805D01*
X142876584Y-113987527D01*
X142754592Y-113797123D01*
X142669383Y-113562731D01*
X142624032Y-113280488D01*
X149249882Y-112523216D02*
X148966456Y-112469409D01*
X148700474Y-112432817D01*
X148451105Y-112412443D01*
X148217516Y-112407291D01*
X147998875Y-112416366D01*
X147794349Y-112438670D01*
X147424315Y-112518984D01*
X147100757Y-112640267D01*
X146817018Y-112794550D01*
X146566438Y-112973865D01*
X146342362Y-113170244D01*
X146138132Y-113375719D01*
X145947089Y-113582322D01*
X145762576Y-113782086D01*
X145577935Y-113967041D01*
X145386510Y-114129221D01*
X145181642Y-114260657D01*
X144956673Y-114353381D01*
X144704947Y-114399426D01*
X99685475Y-73040157D02*
X99712758Y-72838940D01*
X99762612Y-72549618D01*
X99825995Y-72278665D01*
X99906074Y-72029868D01*
X100006014Y-71807016D01*
X100128983Y-71613894D01*
X100278145Y-71454289D01*
X100456666Y-71331990D01*
X100667714Y-71250783D01*
X100914454Y-71214455D01*
X101200052Y-71226794D01*
X156580743Y-117014002D02*
X156273185Y-116923183D01*
X155979243Y-116821347D01*
X155698062Y-116709275D01*
X155428786Y-116587751D01*
X155170559Y-116457556D01*
X154922527Y-116319473D01*
X154683833Y-116174284D01*
X154453624Y-116022771D01*
X154231043Y-115865717D01*
X154015235Y-115703903D01*
X153805345Y-115538113D01*
X153600517Y-115369127D01*
X153399896Y-115197730D01*
X153202627Y-115024701D01*
X153007855Y-114850826D01*
X152814724Y-114676884D01*
X152622379Y-114503659D01*
X152429964Y-114331933D01*
X152236624Y-114162488D01*
X152041504Y-113996106D01*
X151843749Y-113833570D01*
X151642503Y-113675662D01*
X151436911Y-113523164D01*
X151226118Y-113376859D01*
X151009268Y-113237528D01*
X150785506Y-113105954D01*
X150553976Y-112982920D01*
X150313824Y-112869207D01*
X150064193Y-112765598D01*
X149804230Y-112672875D01*
X149533078Y-112591820D01*
X149249882Y-112523216D01*
X161672475Y-115160024D02*
X161395601Y-115439682D01*
X161106171Y-115700162D01*
X160805693Y-115940894D01*
X160495676Y-116161308D01*
X160177630Y-116360833D01*
X159853063Y-116538901D01*
X159523484Y-116694941D01*
X159190403Y-116828382D01*
X158855328Y-116938656D01*
X158519769Y-117025192D01*
X158185234Y-117087421D01*
X157853233Y-117124772D01*
X157525274Y-117136675D01*
X157202867Y-117122561D01*
X156887520Y-117081860D01*
X156580743Y-117014002D01*
X163107668Y-112940000D02*
X163020640Y-113121418D01*
X162893949Y-113379237D01*
X162770272Y-113621180D01*
X162647801Y-113848705D01*
X162524729Y-114063267D01*
X162399249Y-114266324D01*
X162269554Y-114459333D01*
X162133836Y-114643751D01*
X161990289Y-114821034D01*
X161837104Y-114992639D01*
X161672475Y-115160024D01*
X162799046Y-110597569D02*
X163046884Y-110740026D01*
X163235850Y-110902790D01*
X163370645Y-111084356D01*
X163455970Y-111283220D01*
X163496526Y-111497878D01*
X163497015Y-111726826D01*
X163462139Y-111968559D01*
X163396599Y-112221575D01*
X163305096Y-112484368D01*
X163192333Y-112755435D01*
X163107668Y-112940000D01*
X121757786Y-112523216D02*
X121474589Y-112591820D01*
X121203437Y-112672875D01*
X120943473Y-112765598D01*
X120693843Y-112869207D01*
X120453691Y-112982920D01*
X120222161Y-113105954D01*
X119998399Y-113237528D01*
X119781549Y-113376859D01*
X119570756Y-113523164D01*
X119365164Y-113675662D01*
X119163918Y-113833570D01*
X118966162Y-113996106D01*
X118771043Y-114162488D01*
X118577703Y-114331933D01*
X118385288Y-114503659D01*
X118192943Y-114676884D01*
X117999812Y-114850826D01*
X117805039Y-115024701D01*
X117607770Y-115197730D01*
X117407150Y-115369127D01*
X117202322Y-115538113D01*
X116992432Y-115703903D01*
X116776624Y-115865717D01*
X116554043Y-116022771D01*
X116323833Y-116174284D01*
X116085140Y-116319473D01*
X115837108Y-116457556D01*
X115578881Y-116587751D01*
X115309605Y-116709275D01*
X115028423Y-116821347D01*
X114734482Y-116923183D01*
X114426925Y-117014002D01*
X107900000Y-112940000D02*
X107815334Y-112755435D01*
X107702571Y-112484368D01*
X107611068Y-112221575D01*
X107545528Y-111968559D01*
X107510652Y-111726826D01*
X107511141Y-111497878D01*
X107551697Y-111283220D01*
X107637022Y-111084356D01*
X107771817Y-110902790D01*
X107960783Y-110740026D01*
X108208622Y-110597569D01*
M02*
