%TF.GenerationSoftware,KiCad,Pcbnew,(6.0.2-0)*%
%TF.CreationDate,2022-03-08T15:03:46+01:00*%
%TF.ProjectId,ESP_aux_breakout,4553505f-6175-4785-9f62-7265616b6f75,rev?*%
%TF.SameCoordinates,Original*%
%TF.FileFunction,Soldermask,Bot*%
%TF.FilePolarity,Negative*%
%FSLAX46Y46*%
G04 Gerber Fmt 4.6, Leading zero omitted, Abs format (unit mm)*
G04 Created by KiCad (PCBNEW (6.0.2-0)) date 2022-03-08 15:03:46*
%MOMM*%
%LPD*%
G01*
G04 APERTURE LIST*
G04 Aperture macros list*
%AMHorizOval*
0 Thick line with rounded ends*
0 $1 width*
0 $2 $3 position (X,Y) of the first rounded end (center of the circle)*
0 $4 $5 position (X,Y) of the second rounded end (center of the circle)*
0 Add line between two ends*
20,1,$1,$2,$3,$4,$5,0*
0 Add two circle primitives to create the rounded ends*
1,1,$1,$2,$3*
1,1,$1,$4,$5*%
G04 Aperture macros list end*
%ADD10C,5.000000*%
%ADD11C,4.000000*%
%ADD12R,1.200000X1.200000*%
%ADD13C,1.200000*%
%ADD14C,1.560000*%
%ADD15R,1.560000X1.560000*%
%ADD16HorizOval,2.000000X-0.144889X0.038823X0.144889X-0.038823X0*%
%ADD17HorizOval,1.800000X-0.241481X0.064705X0.241481X-0.064705X0*%
%ADD18C,1.100000*%
%ADD19O,2.300000X2.000000*%
%ADD20O,2.300000X1.800000*%
%ADD21HorizOval,2.000000X0.144889X0.038823X-0.144889X-0.038823X0*%
%ADD22HorizOval,1.800000X0.241481X0.064705X-0.241481X-0.064705X0*%
%ADD23HorizOval,2.000000X-0.144889X-0.038823X0.144889X0.038823X0*%
%ADD24HorizOval,1.800000X-0.241481X-0.064705X0.241481X0.064705X0*%
%ADD25C,1.620000*%
G04 APERTURE END LIST*
D10*
%TO.C,U5*%
X163523488Y-47102796D03*
D11*
X158670000Y-49470000D03*
%TD*%
D12*
%TO.C,C1*%
X120280000Y-46010000D03*
D13*
X118280000Y-46010000D03*
%TD*%
D14*
%TO.C,U1*%
X148170000Y-103920000D03*
X148170000Y-101380000D03*
X148170000Y-98840000D03*
X148170000Y-96300000D03*
X148170000Y-93760000D03*
X148170000Y-91220000D03*
X148170000Y-88680000D03*
X148170000Y-86140000D03*
X148170000Y-83600000D03*
X148170000Y-81060000D03*
X148170000Y-78520000D03*
X148170000Y-75980000D03*
X148170000Y-73440000D03*
X148170000Y-70900000D03*
X148170000Y-68360000D03*
X148170000Y-65820000D03*
X148170000Y-63280000D03*
X148170000Y-60740000D03*
X148170000Y-58200000D03*
X122770000Y-101380000D03*
X122770000Y-98840000D03*
X122770000Y-96300000D03*
X122770000Y-93760000D03*
X122770000Y-91220000D03*
X122770000Y-88680000D03*
X122770000Y-86140000D03*
X122770000Y-83600000D03*
X122770000Y-81060000D03*
X122770000Y-78520000D03*
X122770000Y-75980000D03*
X122770000Y-73440000D03*
X122770000Y-70900000D03*
X122770000Y-68360000D03*
X122770000Y-65820000D03*
X122770000Y-63280000D03*
X122770000Y-103920000D03*
X122770000Y-60740000D03*
D15*
X122770000Y-58200000D03*
%TD*%
D16*
%TO.C,J1*%
X107253505Y-53227408D03*
X105830000Y-58540000D03*
D17*
X113190912Y-60046476D03*
X114381480Y-55603217D03*
D18*
X109275445Y-59204385D03*
X110569540Y-54374756D03*
%TD*%
D12*
%TO.C,C2*%
X112880000Y-70270000D03*
D13*
X110880000Y-70270000D03*
%TD*%
D12*
%TO.C,C3*%
X119250000Y-108950000D03*
D13*
X121250000Y-108950000D03*
%TD*%
D12*
%TO.C,C4*%
X152640000Y-46390000D03*
D13*
X150640000Y-46390000D03*
%TD*%
D12*
%TO.C,C5*%
X158320000Y-69210000D03*
D13*
X160320000Y-69210000D03*
%TD*%
D12*
%TO.C,C6*%
X150220000Y-109450000D03*
D13*
X152220000Y-109450000D03*
%TD*%
D19*
%TO.C,J2*%
X103180000Y-75140000D03*
X103180000Y-80640000D03*
D20*
X110680000Y-80190000D03*
X110680000Y-75590000D03*
D18*
X106680000Y-80390000D03*
X106680000Y-75390000D03*
%TD*%
D21*
%TO.C,J3*%
X105866495Y-97407408D03*
X107290000Y-102720000D03*
D22*
X114417975Y-100344191D03*
X113227408Y-95900932D03*
D18*
X110606036Y-101572652D03*
X109311940Y-96743023D03*
%TD*%
D23*
%TO.C,J4*%
X165123505Y-58512592D03*
X163700000Y-53200000D03*
D24*
X156572025Y-55575809D03*
X157762592Y-60019068D03*
D18*
X160383964Y-54347348D03*
X161678060Y-59176977D03*
%TD*%
D19*
%TO.C,J5*%
X167800000Y-80670000D03*
X167800000Y-75170000D03*
D20*
X160300000Y-75620000D03*
X160300000Y-80220000D03*
D18*
X164300000Y-75420000D03*
X164300000Y-80420000D03*
%TD*%
D16*
%TO.C,J6*%
X163656495Y-102802592D03*
X165080000Y-97490000D03*
D17*
X157719088Y-95983524D03*
X156528520Y-100426783D03*
D18*
X161634555Y-96825615D03*
X160340460Y-101655244D03*
%TD*%
D25*
%TO.C,RV1*%
X114529899Y-46338463D03*
X110686487Y-42279131D03*
X116240000Y-41640000D03*
%TD*%
%TO.C,RV2*%
X114780000Y-75300000D03*
X119780000Y-77800000D03*
X114780000Y-80300000D03*
%TD*%
%TO.C,RV3*%
X116314095Y-114479629D03*
X110837418Y-113358910D03*
X115020000Y-109650000D03*
%TD*%
%TO.C,RV4*%
X154955905Y-41280371D03*
X160432582Y-42401090D03*
X156250000Y-46110000D03*
%TD*%
%TO.C,RV5*%
X156110000Y-80460000D03*
X151110000Y-77960000D03*
X156110000Y-75460000D03*
%TD*%
%TO.C,RV6*%
X155997418Y-109711090D03*
X160180000Y-113420000D03*
X154703323Y-114540719D03*
%TD*%
D10*
%TO.C,U2*%
X107256512Y-47112796D03*
D11*
X112110000Y-49480000D03*
%TD*%
D10*
%TO.C,U3*%
X101240549Y-69269359D03*
D11*
X106620000Y-69740000D03*
%TD*%
D10*
%TO.C,U4*%
X107176512Y-108837204D03*
D11*
X112030000Y-106470000D03*
%TD*%
D10*
%TO.C,U6*%
X169519451Y-69269359D03*
D11*
X164140000Y-69740000D03*
%TD*%
D10*
%TO.C,U7*%
X163643488Y-108867204D03*
D11*
X158790000Y-106500000D03*
%TD*%
D10*
%TO.C,U8*%
X130199359Y-42570549D03*
D11*
X130670000Y-47950000D03*
%TD*%
D10*
%TO.C,U9*%
X130189359Y-113359451D03*
D11*
X130660000Y-107980000D03*
%TD*%
D10*
%TO.C,U10*%
X140580641Y-42570549D03*
D11*
X140110000Y-47950000D03*
%TD*%
D10*
%TO.C,U11*%
X140610641Y-113359451D03*
D11*
X140140000Y-107980000D03*
%TD*%
M02*
